G04 #@! TF.GenerationSoftware,KiCad,Pcbnew,8.0.5*
G04 #@! TF.CreationDate,2024-10-27T13:37:53-04:00*
G04 #@! TF.ProjectId,Project1,50726f6a-6563-4743-912e-6b696361645f,rev?*
G04 #@! TF.SameCoordinates,Original*
G04 #@! TF.FileFunction,Legend,Top*
G04 #@! TF.FilePolarity,Positive*
%FSLAX46Y46*%
G04 Gerber Fmt 4.6, Leading zero omitted, Abs format (unit mm)*
G04 Created by KiCad (PCBNEW 8.0.5) date 2024-10-27 13:37:53*
%MOMM*%
%LPD*%
G01*
G04 APERTURE LIST*
%ADD10C,0.152400*%
%ADD11C,0.300000*%
%ADD12C,0.150000*%
%ADD13C,0.100000*%
%ADD14C,0.000000*%
%ADD15C,0.120000*%
%ADD16C,2.000000*%
%ADD17C,1.600000*%
%ADD18O,1.600000X1.600000*%
%ADD19R,1.800000X1.800000*%
%ADD20C,1.800000*%
%ADD21C,1.524000*%
%ADD22R,1.524000X1.524000*%
%ADD23R,1.600000X1.600000*%
G04 APERTURE END LIST*
D10*
X136776015Y-55779803D02*
X136776015Y-56360375D01*
X136776015Y-56360375D02*
X136737310Y-56476489D01*
X136737310Y-56476489D02*
X136659901Y-56553899D01*
X136659901Y-56553899D02*
X136543786Y-56592603D01*
X136543786Y-56592603D02*
X136466377Y-56592603D01*
X137550110Y-56592603D02*
X137163062Y-56592603D01*
X137163062Y-56592603D02*
X137163062Y-55779803D01*
X138285500Y-56515194D02*
X138246796Y-56553899D01*
X138246796Y-56553899D02*
X138130681Y-56592603D01*
X138130681Y-56592603D02*
X138053272Y-56592603D01*
X138053272Y-56592603D02*
X137937158Y-56553899D01*
X137937158Y-56553899D02*
X137859748Y-56476489D01*
X137859748Y-56476489D02*
X137821043Y-56399079D01*
X137821043Y-56399079D02*
X137782339Y-56244260D01*
X137782339Y-56244260D02*
X137782339Y-56128146D01*
X137782339Y-56128146D02*
X137821043Y-55973327D01*
X137821043Y-55973327D02*
X137859748Y-55895918D01*
X137859748Y-55895918D02*
X137937158Y-55818508D01*
X137937158Y-55818508D02*
X138053272Y-55779803D01*
X138053272Y-55779803D02*
X138130681Y-55779803D01*
X138130681Y-55779803D02*
X138246796Y-55818508D01*
X138246796Y-55818508D02*
X138285500Y-55857213D01*
X138866072Y-55779803D02*
X138866072Y-56360375D01*
X138866072Y-56360375D02*
X138827367Y-56476489D01*
X138827367Y-56476489D02*
X138749958Y-56553899D01*
X138749958Y-56553899D02*
X138633843Y-56592603D01*
X138633843Y-56592603D02*
X138556434Y-56592603D01*
X139640167Y-56592603D02*
X139253119Y-56592603D01*
X139253119Y-56592603D02*
X139253119Y-55779803D01*
X140375557Y-56515194D02*
X140336853Y-56553899D01*
X140336853Y-56553899D02*
X140220738Y-56592603D01*
X140220738Y-56592603D02*
X140143329Y-56592603D01*
X140143329Y-56592603D02*
X140027215Y-56553899D01*
X140027215Y-56553899D02*
X139949805Y-56476489D01*
X139949805Y-56476489D02*
X139911100Y-56399079D01*
X139911100Y-56399079D02*
X139872396Y-56244260D01*
X139872396Y-56244260D02*
X139872396Y-56128146D01*
X139872396Y-56128146D02*
X139911100Y-55973327D01*
X139911100Y-55973327D02*
X139949805Y-55895918D01*
X139949805Y-55895918D02*
X140027215Y-55818508D01*
X140027215Y-55818508D02*
X140143329Y-55779803D01*
X140143329Y-55779803D02*
X140220738Y-55779803D01*
X140220738Y-55779803D02*
X140336853Y-55818508D01*
X140336853Y-55818508D02*
X140375557Y-55857213D01*
X140956129Y-55779803D02*
X140956129Y-56360375D01*
X140956129Y-56360375D02*
X140917424Y-56476489D01*
X140917424Y-56476489D02*
X140840015Y-56553899D01*
X140840015Y-56553899D02*
X140723900Y-56592603D01*
X140723900Y-56592603D02*
X140646491Y-56592603D01*
X141730224Y-56592603D02*
X141343176Y-56592603D01*
X141343176Y-56592603D02*
X141343176Y-55779803D01*
X142465614Y-56515194D02*
X142426910Y-56553899D01*
X142426910Y-56553899D02*
X142310795Y-56592603D01*
X142310795Y-56592603D02*
X142233386Y-56592603D01*
X142233386Y-56592603D02*
X142117272Y-56553899D01*
X142117272Y-56553899D02*
X142039862Y-56476489D01*
X142039862Y-56476489D02*
X142001157Y-56399079D01*
X142001157Y-56399079D02*
X141962453Y-56244260D01*
X141962453Y-56244260D02*
X141962453Y-56128146D01*
X141962453Y-56128146D02*
X142001157Y-55973327D01*
X142001157Y-55973327D02*
X142039862Y-55895918D01*
X142039862Y-55895918D02*
X142117272Y-55818508D01*
X142117272Y-55818508D02*
X142233386Y-55779803D01*
X142233386Y-55779803D02*
X142310795Y-55779803D01*
X142310795Y-55779803D02*
X142426910Y-55818508D01*
X142426910Y-55818508D02*
X142465614Y-55857213D01*
X143046186Y-55779803D02*
X143046186Y-56360375D01*
X143046186Y-56360375D02*
X143007481Y-56476489D01*
X143007481Y-56476489D02*
X142930072Y-56553899D01*
X142930072Y-56553899D02*
X142813957Y-56592603D01*
X142813957Y-56592603D02*
X142736548Y-56592603D01*
X143820281Y-56592603D02*
X143433233Y-56592603D01*
X143433233Y-56592603D02*
X143433233Y-55779803D01*
X144555671Y-56515194D02*
X144516967Y-56553899D01*
X144516967Y-56553899D02*
X144400852Y-56592603D01*
X144400852Y-56592603D02*
X144323443Y-56592603D01*
X144323443Y-56592603D02*
X144207329Y-56553899D01*
X144207329Y-56553899D02*
X144129919Y-56476489D01*
X144129919Y-56476489D02*
X144091214Y-56399079D01*
X144091214Y-56399079D02*
X144052510Y-56244260D01*
X144052510Y-56244260D02*
X144052510Y-56128146D01*
X144052510Y-56128146D02*
X144091214Y-55973327D01*
X144091214Y-55973327D02*
X144129919Y-55895918D01*
X144129919Y-55895918D02*
X144207329Y-55818508D01*
X144207329Y-55818508D02*
X144323443Y-55779803D01*
X144323443Y-55779803D02*
X144400852Y-55779803D01*
X144400852Y-55779803D02*
X144516967Y-55818508D01*
X144516967Y-55818508D02*
X144555671Y-55857213D01*
X145298605Y-91879803D02*
X145453424Y-91879803D01*
X145453424Y-91879803D02*
X145530834Y-91918508D01*
X145530834Y-91918508D02*
X145608243Y-91995918D01*
X145608243Y-91995918D02*
X145646948Y-92150737D01*
X145646948Y-92150737D02*
X145646948Y-92421670D01*
X145646948Y-92421670D02*
X145608243Y-92576489D01*
X145608243Y-92576489D02*
X145530834Y-92653899D01*
X145530834Y-92653899D02*
X145453424Y-92692603D01*
X145453424Y-92692603D02*
X145298605Y-92692603D01*
X145298605Y-92692603D02*
X145221196Y-92653899D01*
X145221196Y-92653899D02*
X145143786Y-92576489D01*
X145143786Y-92576489D02*
X145105082Y-92421670D01*
X145105082Y-92421670D02*
X145105082Y-92150737D01*
X145105082Y-92150737D02*
X145143786Y-91995918D01*
X145143786Y-91995918D02*
X145221196Y-91918508D01*
X145221196Y-91918508D02*
X145298605Y-91879803D01*
X146459748Y-92615194D02*
X146421044Y-92653899D01*
X146421044Y-92653899D02*
X146304929Y-92692603D01*
X146304929Y-92692603D02*
X146227520Y-92692603D01*
X146227520Y-92692603D02*
X146111406Y-92653899D01*
X146111406Y-92653899D02*
X146033996Y-92576489D01*
X146033996Y-92576489D02*
X145995291Y-92499079D01*
X145995291Y-92499079D02*
X145956587Y-92344260D01*
X145956587Y-92344260D02*
X145956587Y-92228146D01*
X145956587Y-92228146D02*
X145995291Y-92073327D01*
X145995291Y-92073327D02*
X146033996Y-91995918D01*
X146033996Y-91995918D02*
X146111406Y-91918508D01*
X146111406Y-91918508D02*
X146227520Y-91879803D01*
X146227520Y-91879803D02*
X146304929Y-91879803D01*
X146304929Y-91879803D02*
X146421044Y-91918508D01*
X146421044Y-91918508D02*
X146459748Y-91957213D01*
X146691977Y-91879803D02*
X147156434Y-91879803D01*
X146924206Y-92692603D02*
X146924206Y-91879803D01*
X148007939Y-91841099D02*
X147311253Y-92886127D01*
X148240168Y-91957213D02*
X148278872Y-91918508D01*
X148278872Y-91918508D02*
X148356282Y-91879803D01*
X148356282Y-91879803D02*
X148549806Y-91879803D01*
X148549806Y-91879803D02*
X148627215Y-91918508D01*
X148627215Y-91918508D02*
X148665920Y-91957213D01*
X148665920Y-91957213D02*
X148704625Y-92034622D01*
X148704625Y-92034622D02*
X148704625Y-92112032D01*
X148704625Y-92112032D02*
X148665920Y-92228146D01*
X148665920Y-92228146D02*
X148201463Y-92692603D01*
X148201463Y-92692603D02*
X148704625Y-92692603D01*
X148975558Y-91879803D02*
X149517424Y-91879803D01*
X149517424Y-91879803D02*
X149169082Y-92692603D01*
X150407634Y-91841099D02*
X149710948Y-92886127D01*
X150639863Y-91957213D02*
X150678567Y-91918508D01*
X150678567Y-91918508D02*
X150755977Y-91879803D01*
X150755977Y-91879803D02*
X150949501Y-91879803D01*
X150949501Y-91879803D02*
X151026910Y-91918508D01*
X151026910Y-91918508D02*
X151065615Y-91957213D01*
X151065615Y-91957213D02*
X151104320Y-92034622D01*
X151104320Y-92034622D02*
X151104320Y-92112032D01*
X151104320Y-92112032D02*
X151065615Y-92228146D01*
X151065615Y-92228146D02*
X150601158Y-92692603D01*
X150601158Y-92692603D02*
X151104320Y-92692603D01*
X151607481Y-91879803D02*
X151684891Y-91879803D01*
X151684891Y-91879803D02*
X151762300Y-91918508D01*
X151762300Y-91918508D02*
X151801005Y-91957213D01*
X151801005Y-91957213D02*
X151839710Y-92034622D01*
X151839710Y-92034622D02*
X151878415Y-92189441D01*
X151878415Y-92189441D02*
X151878415Y-92382965D01*
X151878415Y-92382965D02*
X151839710Y-92537784D01*
X151839710Y-92537784D02*
X151801005Y-92615194D01*
X151801005Y-92615194D02*
X151762300Y-92653899D01*
X151762300Y-92653899D02*
X151684891Y-92692603D01*
X151684891Y-92692603D02*
X151607481Y-92692603D01*
X151607481Y-92692603D02*
X151530072Y-92653899D01*
X151530072Y-92653899D02*
X151491367Y-92615194D01*
X151491367Y-92615194D02*
X151452662Y-92537784D01*
X151452662Y-92537784D02*
X151413958Y-92382965D01*
X151413958Y-92382965D02*
X151413958Y-92189441D01*
X151413958Y-92189441D02*
X151452662Y-92034622D01*
X151452662Y-92034622D02*
X151491367Y-91957213D01*
X151491367Y-91957213D02*
X151530072Y-91918508D01*
X151530072Y-91918508D02*
X151607481Y-91879803D01*
X152188053Y-91957213D02*
X152226757Y-91918508D01*
X152226757Y-91918508D02*
X152304167Y-91879803D01*
X152304167Y-91879803D02*
X152497691Y-91879803D01*
X152497691Y-91879803D02*
X152575100Y-91918508D01*
X152575100Y-91918508D02*
X152613805Y-91957213D01*
X152613805Y-91957213D02*
X152652510Y-92034622D01*
X152652510Y-92034622D02*
X152652510Y-92112032D01*
X152652510Y-92112032D02*
X152613805Y-92228146D01*
X152613805Y-92228146D02*
X152149348Y-92692603D01*
X152149348Y-92692603D02*
X152652510Y-92692603D01*
X153387900Y-91879803D02*
X153000852Y-91879803D01*
X153000852Y-91879803D02*
X152962148Y-92266851D01*
X152962148Y-92266851D02*
X153000852Y-92228146D01*
X153000852Y-92228146D02*
X153078262Y-92189441D01*
X153078262Y-92189441D02*
X153271786Y-92189441D01*
X153271786Y-92189441D02*
X153349195Y-92228146D01*
X153349195Y-92228146D02*
X153387900Y-92266851D01*
X153387900Y-92266851D02*
X153426605Y-92344260D01*
X153426605Y-92344260D02*
X153426605Y-92537784D01*
X153426605Y-92537784D02*
X153387900Y-92615194D01*
X153387900Y-92615194D02*
X153349195Y-92653899D01*
X153349195Y-92653899D02*
X153271786Y-92692603D01*
X153271786Y-92692603D02*
X153078262Y-92692603D01*
X153078262Y-92692603D02*
X153000852Y-92653899D01*
X153000852Y-92653899D02*
X152962148Y-92615194D01*
D11*
X150028571Y-87616215D02*
X150028571Y-85816215D01*
X150028571Y-85816215D02*
X150457142Y-85816215D01*
X150457142Y-85816215D02*
X150714285Y-85901929D01*
X150714285Y-85901929D02*
X150885714Y-86073358D01*
X150885714Y-86073358D02*
X150971428Y-86244786D01*
X150971428Y-86244786D02*
X151057142Y-86587643D01*
X151057142Y-86587643D02*
X151057142Y-86844786D01*
X151057142Y-86844786D02*
X150971428Y-87187643D01*
X150971428Y-87187643D02*
X150885714Y-87359072D01*
X150885714Y-87359072D02*
X150714285Y-87530501D01*
X150714285Y-87530501D02*
X150457142Y-87616215D01*
X150457142Y-87616215D02*
X150028571Y-87616215D01*
X151828571Y-87616215D02*
X151828571Y-85816215D01*
X153028571Y-86759072D02*
X153028571Y-87616215D01*
X152428571Y-85816215D02*
X153028571Y-86759072D01*
X153028571Y-86759072D02*
X153628571Y-85816215D01*
X148485714Y-90428400D02*
X148742857Y-90514114D01*
X148742857Y-90514114D02*
X149171428Y-90514114D01*
X149171428Y-90514114D02*
X149342857Y-90428400D01*
X149342857Y-90428400D02*
X149428571Y-90342685D01*
X149428571Y-90342685D02*
X149514285Y-90171257D01*
X149514285Y-90171257D02*
X149514285Y-89999828D01*
X149514285Y-89999828D02*
X149428571Y-89828400D01*
X149428571Y-89828400D02*
X149342857Y-89742685D01*
X149342857Y-89742685D02*
X149171428Y-89656971D01*
X149171428Y-89656971D02*
X148828571Y-89571257D01*
X148828571Y-89571257D02*
X148657142Y-89485542D01*
X148657142Y-89485542D02*
X148571428Y-89399828D01*
X148571428Y-89399828D02*
X148485714Y-89228400D01*
X148485714Y-89228400D02*
X148485714Y-89056971D01*
X148485714Y-89056971D02*
X148571428Y-88885542D01*
X148571428Y-88885542D02*
X148657142Y-88799828D01*
X148657142Y-88799828D02*
X148828571Y-88714114D01*
X148828571Y-88714114D02*
X149257142Y-88714114D01*
X149257142Y-88714114D02*
X149514285Y-88799828D01*
X150285714Y-90514114D02*
X150285714Y-88714114D01*
X150285714Y-88714114D02*
X150971428Y-88714114D01*
X150971428Y-88714114D02*
X151142857Y-88799828D01*
X151142857Y-88799828D02*
X151228571Y-88885542D01*
X151228571Y-88885542D02*
X151314285Y-89056971D01*
X151314285Y-89056971D02*
X151314285Y-89314114D01*
X151314285Y-89314114D02*
X151228571Y-89485542D01*
X151228571Y-89485542D02*
X151142857Y-89571257D01*
X151142857Y-89571257D02*
X150971428Y-89656971D01*
X150971428Y-89656971D02*
X150285714Y-89656971D01*
X152428571Y-88714114D02*
X152771428Y-88714114D01*
X152771428Y-88714114D02*
X152942857Y-88799828D01*
X152942857Y-88799828D02*
X153114285Y-88971257D01*
X153114285Y-88971257D02*
X153200000Y-89314114D01*
X153200000Y-89314114D02*
X153200000Y-89914114D01*
X153200000Y-89914114D02*
X153114285Y-90256971D01*
X153114285Y-90256971D02*
X152942857Y-90428400D01*
X152942857Y-90428400D02*
X152771428Y-90514114D01*
X152771428Y-90514114D02*
X152428571Y-90514114D01*
X152428571Y-90514114D02*
X152257143Y-90428400D01*
X152257143Y-90428400D02*
X152085714Y-90256971D01*
X152085714Y-90256971D02*
X152000000Y-89914114D01*
X152000000Y-89914114D02*
X152000000Y-89314114D01*
X152000000Y-89314114D02*
X152085714Y-88971257D01*
X152085714Y-88971257D02*
X152257143Y-88799828D01*
X152257143Y-88799828D02*
X152428571Y-88714114D01*
X153885714Y-88885542D02*
X153971428Y-88799828D01*
X153971428Y-88799828D02*
X154142857Y-88714114D01*
X154142857Y-88714114D02*
X154571428Y-88714114D01*
X154571428Y-88714114D02*
X154742857Y-88799828D01*
X154742857Y-88799828D02*
X154828571Y-88885542D01*
X154828571Y-88885542D02*
X154914285Y-89056971D01*
X154914285Y-89056971D02*
X154914285Y-89228400D01*
X154914285Y-89228400D02*
X154828571Y-89485542D01*
X154828571Y-89485542D02*
X153799999Y-90514114D01*
X153799999Y-90514114D02*
X154914285Y-90514114D01*
D10*
X163405082Y-73560375D02*
X163792129Y-73560375D01*
X163327672Y-73792603D02*
X163598605Y-72979803D01*
X163598605Y-72979803D02*
X163869539Y-73792603D01*
X164140472Y-73792603D02*
X164140472Y-73250737D01*
X164140472Y-73405556D02*
X164179177Y-73328146D01*
X164179177Y-73328146D02*
X164217882Y-73289441D01*
X164217882Y-73289441D02*
X164295291Y-73250737D01*
X164295291Y-73250737D02*
X164372701Y-73250737D01*
X164991977Y-73792603D02*
X164991977Y-72979803D01*
X164991977Y-73753899D02*
X164914568Y-73792603D01*
X164914568Y-73792603D02*
X164759749Y-73792603D01*
X164759749Y-73792603D02*
X164682339Y-73753899D01*
X164682339Y-73753899D02*
X164643634Y-73715194D01*
X164643634Y-73715194D02*
X164604930Y-73637784D01*
X164604930Y-73637784D02*
X164604930Y-73405556D01*
X164604930Y-73405556D02*
X164643634Y-73328146D01*
X164643634Y-73328146D02*
X164682339Y-73289441D01*
X164682339Y-73289441D02*
X164759749Y-73250737D01*
X164759749Y-73250737D02*
X164914568Y-73250737D01*
X164914568Y-73250737D02*
X164991977Y-73289441D01*
X165727367Y-73250737D02*
X165727367Y-73792603D01*
X165379024Y-73250737D02*
X165379024Y-73676489D01*
X165379024Y-73676489D02*
X165417729Y-73753899D01*
X165417729Y-73753899D02*
X165495139Y-73792603D01*
X165495139Y-73792603D02*
X165611253Y-73792603D01*
X165611253Y-73792603D02*
X165688662Y-73753899D01*
X165688662Y-73753899D02*
X165727367Y-73715194D01*
X166114414Y-73250737D02*
X166114414Y-73792603D01*
X166114414Y-73328146D02*
X166153119Y-73289441D01*
X166153119Y-73289441D02*
X166230529Y-73250737D01*
X166230529Y-73250737D02*
X166346643Y-73250737D01*
X166346643Y-73250737D02*
X166424052Y-73289441D01*
X166424052Y-73289441D02*
X166462757Y-73366851D01*
X166462757Y-73366851D02*
X166462757Y-73792603D01*
X166965919Y-73792603D02*
X166888509Y-73753899D01*
X166888509Y-73753899D02*
X166849804Y-73715194D01*
X166849804Y-73715194D02*
X166811100Y-73637784D01*
X166811100Y-73637784D02*
X166811100Y-73405556D01*
X166811100Y-73405556D02*
X166849804Y-73328146D01*
X166849804Y-73328146D02*
X166888509Y-73289441D01*
X166888509Y-73289441D02*
X166965919Y-73250737D01*
X166965919Y-73250737D02*
X167082033Y-73250737D01*
X167082033Y-73250737D02*
X167159442Y-73289441D01*
X167159442Y-73289441D02*
X167198147Y-73328146D01*
X167198147Y-73328146D02*
X167236852Y-73405556D01*
X167236852Y-73405556D02*
X167236852Y-73637784D01*
X167236852Y-73637784D02*
X167198147Y-73715194D01*
X167198147Y-73715194D02*
X167159442Y-73753899D01*
X167159442Y-73753899D02*
X167082033Y-73792603D01*
X167082033Y-73792603D02*
X166965919Y-73792603D01*
X168204470Y-73792603D02*
X168204470Y-72979803D01*
X168204470Y-72979803D02*
X168668927Y-73792603D01*
X168668927Y-73792603D02*
X168668927Y-72979803D01*
X169404318Y-73792603D02*
X169404318Y-73366851D01*
X169404318Y-73366851D02*
X169365613Y-73289441D01*
X169365613Y-73289441D02*
X169288204Y-73250737D01*
X169288204Y-73250737D02*
X169133385Y-73250737D01*
X169133385Y-73250737D02*
X169055975Y-73289441D01*
X169404318Y-73753899D02*
X169326909Y-73792603D01*
X169326909Y-73792603D02*
X169133385Y-73792603D01*
X169133385Y-73792603D02*
X169055975Y-73753899D01*
X169055975Y-73753899D02*
X169017271Y-73676489D01*
X169017271Y-73676489D02*
X169017271Y-73599079D01*
X169017271Y-73599079D02*
X169055975Y-73521670D01*
X169055975Y-73521670D02*
X169133385Y-73482965D01*
X169133385Y-73482965D02*
X169326909Y-73482965D01*
X169326909Y-73482965D02*
X169404318Y-73444260D01*
X169791365Y-73250737D02*
X169791365Y-73792603D01*
X169791365Y-73328146D02*
X169830070Y-73289441D01*
X169830070Y-73289441D02*
X169907480Y-73250737D01*
X169907480Y-73250737D02*
X170023594Y-73250737D01*
X170023594Y-73250737D02*
X170101003Y-73289441D01*
X170101003Y-73289441D02*
X170139708Y-73366851D01*
X170139708Y-73366851D02*
X170139708Y-73792603D01*
X170642870Y-73792603D02*
X170565460Y-73753899D01*
X170565460Y-73753899D02*
X170526755Y-73715194D01*
X170526755Y-73715194D02*
X170488051Y-73637784D01*
X170488051Y-73637784D02*
X170488051Y-73405556D01*
X170488051Y-73405556D02*
X170526755Y-73328146D01*
X170526755Y-73328146D02*
X170565460Y-73289441D01*
X170565460Y-73289441D02*
X170642870Y-73250737D01*
X170642870Y-73250737D02*
X170758984Y-73250737D01*
X170758984Y-73250737D02*
X170836393Y-73289441D01*
X170836393Y-73289441D02*
X170875098Y-73328146D01*
X170875098Y-73328146D02*
X170913803Y-73405556D01*
X170913803Y-73405556D02*
X170913803Y-73637784D01*
X170913803Y-73637784D02*
X170875098Y-73715194D01*
X170875098Y-73715194D02*
X170836393Y-73753899D01*
X170836393Y-73753899D02*
X170758984Y-73792603D01*
X170758984Y-73792603D02*
X170642870Y-73792603D01*
X192543786Y-84692603D02*
X192543786Y-83879803D01*
X192543786Y-83879803D02*
X192737310Y-83879803D01*
X192737310Y-83879803D02*
X192853424Y-83918508D01*
X192853424Y-83918508D02*
X192930834Y-83995918D01*
X192930834Y-83995918D02*
X192969539Y-84073327D01*
X192969539Y-84073327D02*
X193008243Y-84228146D01*
X193008243Y-84228146D02*
X193008243Y-84344260D01*
X193008243Y-84344260D02*
X192969539Y-84499079D01*
X192969539Y-84499079D02*
X192930834Y-84576489D01*
X192930834Y-84576489D02*
X192853424Y-84653899D01*
X192853424Y-84653899D02*
X192737310Y-84692603D01*
X192737310Y-84692603D02*
X192543786Y-84692603D01*
X193511405Y-83879803D02*
X193666224Y-83879803D01*
X193666224Y-83879803D02*
X193743634Y-83918508D01*
X193743634Y-83918508D02*
X193821043Y-83995918D01*
X193821043Y-83995918D02*
X193859748Y-84150737D01*
X193859748Y-84150737D02*
X193859748Y-84421670D01*
X193859748Y-84421670D02*
X193821043Y-84576489D01*
X193821043Y-84576489D02*
X193743634Y-84653899D01*
X193743634Y-84653899D02*
X193666224Y-84692603D01*
X193666224Y-84692603D02*
X193511405Y-84692603D01*
X193511405Y-84692603D02*
X193433996Y-84653899D01*
X193433996Y-84653899D02*
X193356586Y-84576489D01*
X193356586Y-84576489D02*
X193317882Y-84421670D01*
X193317882Y-84421670D02*
X193317882Y-84150737D01*
X193317882Y-84150737D02*
X193356586Y-83995918D01*
X193356586Y-83995918D02*
X193433996Y-83918508D01*
X193433996Y-83918508D02*
X193511405Y-83879803D01*
X194130682Y-83879803D02*
X194324206Y-84692603D01*
X194324206Y-84692603D02*
X194479025Y-84112032D01*
X194479025Y-84112032D02*
X194633844Y-84692603D01*
X194633844Y-84692603D02*
X194827368Y-83879803D01*
X195137005Y-84692603D02*
X195137005Y-83879803D01*
X195137005Y-83879803D02*
X195601462Y-84692603D01*
X195601462Y-84692603D02*
X195601462Y-83879803D01*
X193743786Y-72729803D02*
X193743786Y-73387784D01*
X193743786Y-73387784D02*
X193782491Y-73465194D01*
X193782491Y-73465194D02*
X193821196Y-73503899D01*
X193821196Y-73503899D02*
X193898605Y-73542603D01*
X193898605Y-73542603D02*
X194053424Y-73542603D01*
X194053424Y-73542603D02*
X194130834Y-73503899D01*
X194130834Y-73503899D02*
X194169539Y-73465194D01*
X194169539Y-73465194D02*
X194208243Y-73387784D01*
X194208243Y-73387784D02*
X194208243Y-72729803D01*
X194595291Y-73542603D02*
X194595291Y-72729803D01*
X194595291Y-72729803D02*
X194904929Y-72729803D01*
X194904929Y-72729803D02*
X194982339Y-72768508D01*
X194982339Y-72768508D02*
X195021044Y-72807213D01*
X195021044Y-72807213D02*
X195059748Y-72884622D01*
X195059748Y-72884622D02*
X195059748Y-73000737D01*
X195059748Y-73000737D02*
X195021044Y-73078146D01*
X195021044Y-73078146D02*
X194982339Y-73116851D01*
X194982339Y-73116851D02*
X194904929Y-73155556D01*
X194904929Y-73155556D02*
X194595291Y-73155556D01*
X192243786Y-62442603D02*
X192243786Y-61629803D01*
X192243786Y-61629803D02*
X192514720Y-62210375D01*
X192514720Y-62210375D02*
X192785653Y-61629803D01*
X192785653Y-61629803D02*
X192785653Y-62442603D01*
X193172700Y-62016851D02*
X193443634Y-62016851D01*
X193559748Y-62442603D02*
X193172700Y-62442603D01*
X193172700Y-62442603D02*
X193172700Y-61629803D01*
X193172700Y-61629803D02*
X193559748Y-61629803D01*
X193908090Y-62442603D02*
X193908090Y-61629803D01*
X193908090Y-61629803D02*
X194372547Y-62442603D01*
X194372547Y-62442603D02*
X194372547Y-61629803D01*
X194759595Y-61629803D02*
X194759595Y-62287784D01*
X194759595Y-62287784D02*
X194798300Y-62365194D01*
X194798300Y-62365194D02*
X194837005Y-62403899D01*
X194837005Y-62403899D02*
X194914414Y-62442603D01*
X194914414Y-62442603D02*
X195069233Y-62442603D01*
X195069233Y-62442603D02*
X195146643Y-62403899D01*
X195146643Y-62403899D02*
X195185348Y-62365194D01*
X195185348Y-62365194D02*
X195224052Y-62287784D01*
X195224052Y-62287784D02*
X195224052Y-61629803D01*
X179949539Y-62192603D02*
X179485082Y-62192603D01*
X179717310Y-62192603D02*
X179717310Y-61379803D01*
X179717310Y-61379803D02*
X179639901Y-61495918D01*
X179639901Y-61495918D02*
X179562491Y-61573327D01*
X179562491Y-61573327D02*
X179485082Y-61612032D01*
X180452700Y-61379803D02*
X180530110Y-61379803D01*
X180530110Y-61379803D02*
X180607519Y-61418508D01*
X180607519Y-61418508D02*
X180646224Y-61457213D01*
X180646224Y-61457213D02*
X180684929Y-61534622D01*
X180684929Y-61534622D02*
X180723634Y-61689441D01*
X180723634Y-61689441D02*
X180723634Y-61882965D01*
X180723634Y-61882965D02*
X180684929Y-62037784D01*
X180684929Y-62037784D02*
X180646224Y-62115194D01*
X180646224Y-62115194D02*
X180607519Y-62153899D01*
X180607519Y-62153899D02*
X180530110Y-62192603D01*
X180530110Y-62192603D02*
X180452700Y-62192603D01*
X180452700Y-62192603D02*
X180375291Y-62153899D01*
X180375291Y-62153899D02*
X180336586Y-62115194D01*
X180336586Y-62115194D02*
X180297881Y-62037784D01*
X180297881Y-62037784D02*
X180259177Y-61882965D01*
X180259177Y-61882965D02*
X180259177Y-61689441D01*
X180259177Y-61689441D02*
X180297881Y-61534622D01*
X180297881Y-61534622D02*
X180336586Y-61457213D01*
X180336586Y-61457213D02*
X180375291Y-61418508D01*
X180375291Y-61418508D02*
X180452700Y-61379803D01*
X181226795Y-61379803D02*
X181304205Y-61379803D01*
X181304205Y-61379803D02*
X181381614Y-61418508D01*
X181381614Y-61418508D02*
X181420319Y-61457213D01*
X181420319Y-61457213D02*
X181459024Y-61534622D01*
X181459024Y-61534622D02*
X181497729Y-61689441D01*
X181497729Y-61689441D02*
X181497729Y-61882965D01*
X181497729Y-61882965D02*
X181459024Y-62037784D01*
X181459024Y-62037784D02*
X181420319Y-62115194D01*
X181420319Y-62115194D02*
X181381614Y-62153899D01*
X181381614Y-62153899D02*
X181304205Y-62192603D01*
X181304205Y-62192603D02*
X181226795Y-62192603D01*
X181226795Y-62192603D02*
X181149386Y-62153899D01*
X181149386Y-62153899D02*
X181110681Y-62115194D01*
X181110681Y-62115194D02*
X181071976Y-62037784D01*
X181071976Y-62037784D02*
X181033272Y-61882965D01*
X181033272Y-61882965D02*
X181033272Y-61689441D01*
X181033272Y-61689441D02*
X181071976Y-61534622D01*
X181071976Y-61534622D02*
X181110681Y-61457213D01*
X181110681Y-61457213D02*
X181149386Y-61418508D01*
X181149386Y-61418508D02*
X181226795Y-61379803D01*
X181846071Y-61650737D02*
X181846071Y-62192603D01*
X181846071Y-61728146D02*
X181884776Y-61689441D01*
X181884776Y-61689441D02*
X181962186Y-61650737D01*
X181962186Y-61650737D02*
X182078300Y-61650737D01*
X182078300Y-61650737D02*
X182155709Y-61689441D01*
X182155709Y-61689441D02*
X182194414Y-61766851D01*
X182194414Y-61766851D02*
X182194414Y-62192603D01*
X180049539Y-73392603D02*
X179585082Y-73392603D01*
X179817310Y-73392603D02*
X179817310Y-72579803D01*
X179817310Y-72579803D02*
X179739901Y-72695918D01*
X179739901Y-72695918D02*
X179662491Y-72773327D01*
X179662491Y-72773327D02*
X179585082Y-72812032D01*
X180552700Y-72579803D02*
X180630110Y-72579803D01*
X180630110Y-72579803D02*
X180707519Y-72618508D01*
X180707519Y-72618508D02*
X180746224Y-72657213D01*
X180746224Y-72657213D02*
X180784929Y-72734622D01*
X180784929Y-72734622D02*
X180823634Y-72889441D01*
X180823634Y-72889441D02*
X180823634Y-73082965D01*
X180823634Y-73082965D02*
X180784929Y-73237784D01*
X180784929Y-73237784D02*
X180746224Y-73315194D01*
X180746224Y-73315194D02*
X180707519Y-73353899D01*
X180707519Y-73353899D02*
X180630110Y-73392603D01*
X180630110Y-73392603D02*
X180552700Y-73392603D01*
X180552700Y-73392603D02*
X180475291Y-73353899D01*
X180475291Y-73353899D02*
X180436586Y-73315194D01*
X180436586Y-73315194D02*
X180397881Y-73237784D01*
X180397881Y-73237784D02*
X180359177Y-73082965D01*
X180359177Y-73082965D02*
X180359177Y-72889441D01*
X180359177Y-72889441D02*
X180397881Y-72734622D01*
X180397881Y-72734622D02*
X180436586Y-72657213D01*
X180436586Y-72657213D02*
X180475291Y-72618508D01*
X180475291Y-72618508D02*
X180552700Y-72579803D01*
X181326795Y-72579803D02*
X181404205Y-72579803D01*
X181404205Y-72579803D02*
X181481614Y-72618508D01*
X181481614Y-72618508D02*
X181520319Y-72657213D01*
X181520319Y-72657213D02*
X181559024Y-72734622D01*
X181559024Y-72734622D02*
X181597729Y-72889441D01*
X181597729Y-72889441D02*
X181597729Y-73082965D01*
X181597729Y-73082965D02*
X181559024Y-73237784D01*
X181559024Y-73237784D02*
X181520319Y-73315194D01*
X181520319Y-73315194D02*
X181481614Y-73353899D01*
X181481614Y-73353899D02*
X181404205Y-73392603D01*
X181404205Y-73392603D02*
X181326795Y-73392603D01*
X181326795Y-73392603D02*
X181249386Y-73353899D01*
X181249386Y-73353899D02*
X181210681Y-73315194D01*
X181210681Y-73315194D02*
X181171976Y-73237784D01*
X181171976Y-73237784D02*
X181133272Y-73082965D01*
X181133272Y-73082965D02*
X181133272Y-72889441D01*
X181133272Y-72889441D02*
X181171976Y-72734622D01*
X181171976Y-72734622D02*
X181210681Y-72657213D01*
X181210681Y-72657213D02*
X181249386Y-72618508D01*
X181249386Y-72618508D02*
X181326795Y-72579803D01*
X181946071Y-72850737D02*
X181946071Y-73392603D01*
X181946071Y-72928146D02*
X181984776Y-72889441D01*
X181984776Y-72889441D02*
X182062186Y-72850737D01*
X182062186Y-72850737D02*
X182178300Y-72850737D01*
X182178300Y-72850737D02*
X182255709Y-72889441D01*
X182255709Y-72889441D02*
X182294414Y-72966851D01*
X182294414Y-72966851D02*
X182294414Y-73392603D01*
X179749539Y-85092603D02*
X179285082Y-85092603D01*
X179517310Y-85092603D02*
X179517310Y-84279803D01*
X179517310Y-84279803D02*
X179439901Y-84395918D01*
X179439901Y-84395918D02*
X179362491Y-84473327D01*
X179362491Y-84473327D02*
X179285082Y-84512032D01*
X180252700Y-84279803D02*
X180330110Y-84279803D01*
X180330110Y-84279803D02*
X180407519Y-84318508D01*
X180407519Y-84318508D02*
X180446224Y-84357213D01*
X180446224Y-84357213D02*
X180484929Y-84434622D01*
X180484929Y-84434622D02*
X180523634Y-84589441D01*
X180523634Y-84589441D02*
X180523634Y-84782965D01*
X180523634Y-84782965D02*
X180484929Y-84937784D01*
X180484929Y-84937784D02*
X180446224Y-85015194D01*
X180446224Y-85015194D02*
X180407519Y-85053899D01*
X180407519Y-85053899D02*
X180330110Y-85092603D01*
X180330110Y-85092603D02*
X180252700Y-85092603D01*
X180252700Y-85092603D02*
X180175291Y-85053899D01*
X180175291Y-85053899D02*
X180136586Y-85015194D01*
X180136586Y-85015194D02*
X180097881Y-84937784D01*
X180097881Y-84937784D02*
X180059177Y-84782965D01*
X180059177Y-84782965D02*
X180059177Y-84589441D01*
X180059177Y-84589441D02*
X180097881Y-84434622D01*
X180097881Y-84434622D02*
X180136586Y-84357213D01*
X180136586Y-84357213D02*
X180175291Y-84318508D01*
X180175291Y-84318508D02*
X180252700Y-84279803D01*
X181026795Y-84279803D02*
X181104205Y-84279803D01*
X181104205Y-84279803D02*
X181181614Y-84318508D01*
X181181614Y-84318508D02*
X181220319Y-84357213D01*
X181220319Y-84357213D02*
X181259024Y-84434622D01*
X181259024Y-84434622D02*
X181297729Y-84589441D01*
X181297729Y-84589441D02*
X181297729Y-84782965D01*
X181297729Y-84782965D02*
X181259024Y-84937784D01*
X181259024Y-84937784D02*
X181220319Y-85015194D01*
X181220319Y-85015194D02*
X181181614Y-85053899D01*
X181181614Y-85053899D02*
X181104205Y-85092603D01*
X181104205Y-85092603D02*
X181026795Y-85092603D01*
X181026795Y-85092603D02*
X180949386Y-85053899D01*
X180949386Y-85053899D02*
X180910681Y-85015194D01*
X180910681Y-85015194D02*
X180871976Y-84937784D01*
X180871976Y-84937784D02*
X180833272Y-84782965D01*
X180833272Y-84782965D02*
X180833272Y-84589441D01*
X180833272Y-84589441D02*
X180871976Y-84434622D01*
X180871976Y-84434622D02*
X180910681Y-84357213D01*
X180910681Y-84357213D02*
X180949386Y-84318508D01*
X180949386Y-84318508D02*
X181026795Y-84279803D01*
X181646071Y-84550737D02*
X181646071Y-85092603D01*
X181646071Y-84628146D02*
X181684776Y-84589441D01*
X181684776Y-84589441D02*
X181762186Y-84550737D01*
X181762186Y-84550737D02*
X181878300Y-84550737D01*
X181878300Y-84550737D02*
X181955709Y-84589441D01*
X181955709Y-84589441D02*
X181994414Y-84666851D01*
X181994414Y-84666851D02*
X181994414Y-85092603D01*
X186769539Y-85392603D02*
X186305082Y-85392603D01*
X186537310Y-85392603D02*
X186537310Y-84579803D01*
X186537310Y-84579803D02*
X186459901Y-84695918D01*
X186459901Y-84695918D02*
X186382491Y-84773327D01*
X186382491Y-84773327D02*
X186305082Y-84812032D01*
X187117881Y-85392603D02*
X187117881Y-84579803D01*
X187195291Y-85082965D02*
X187427519Y-85392603D01*
X187427519Y-84850737D02*
X187117881Y-85160375D01*
X186769539Y-74242603D02*
X186305082Y-74242603D01*
X186537310Y-74242603D02*
X186537310Y-73429803D01*
X186537310Y-73429803D02*
X186459901Y-73545918D01*
X186459901Y-73545918D02*
X186382491Y-73623327D01*
X186382491Y-73623327D02*
X186305082Y-73662032D01*
X187117881Y-74242603D02*
X187117881Y-73429803D01*
X187195291Y-73932965D02*
X187427519Y-74242603D01*
X187427519Y-73700737D02*
X187117881Y-74010375D01*
X186419539Y-62742603D02*
X185955082Y-62742603D01*
X186187310Y-62742603D02*
X186187310Y-61929803D01*
X186187310Y-61929803D02*
X186109901Y-62045918D01*
X186109901Y-62045918D02*
X186032491Y-62123327D01*
X186032491Y-62123327D02*
X185955082Y-62162032D01*
X186767881Y-62742603D02*
X186767881Y-61929803D01*
X186845291Y-62432965D02*
X187077519Y-62742603D01*
X187077519Y-62200737D02*
X186767881Y-62510375D01*
X184669539Y-50192603D02*
X184205082Y-50192603D01*
X184437310Y-50192603D02*
X184437310Y-49379803D01*
X184437310Y-49379803D02*
X184359901Y-49495918D01*
X184359901Y-49495918D02*
X184282491Y-49573327D01*
X184282491Y-49573327D02*
X184205082Y-49612032D01*
X185017881Y-50192603D02*
X185017881Y-49379803D01*
X185095291Y-49882965D02*
X185327519Y-50192603D01*
X185327519Y-49650737D02*
X185017881Y-49960375D01*
X131255082Y-89453899D02*
X131371196Y-89492603D01*
X131371196Y-89492603D02*
X131564720Y-89492603D01*
X131564720Y-89492603D02*
X131642129Y-89453899D01*
X131642129Y-89453899D02*
X131680834Y-89415194D01*
X131680834Y-89415194D02*
X131719539Y-89337784D01*
X131719539Y-89337784D02*
X131719539Y-89260375D01*
X131719539Y-89260375D02*
X131680834Y-89182965D01*
X131680834Y-89182965D02*
X131642129Y-89144260D01*
X131642129Y-89144260D02*
X131564720Y-89105556D01*
X131564720Y-89105556D02*
X131409901Y-89066851D01*
X131409901Y-89066851D02*
X131332491Y-89028146D01*
X131332491Y-89028146D02*
X131293786Y-88989441D01*
X131293786Y-88989441D02*
X131255082Y-88912032D01*
X131255082Y-88912032D02*
X131255082Y-88834622D01*
X131255082Y-88834622D02*
X131293786Y-88757213D01*
X131293786Y-88757213D02*
X131332491Y-88718508D01*
X131332491Y-88718508D02*
X131409901Y-88679803D01*
X131409901Y-88679803D02*
X131603424Y-88679803D01*
X131603424Y-88679803D02*
X131719539Y-88718508D01*
X132029177Y-89453899D02*
X132145291Y-89492603D01*
X132145291Y-89492603D02*
X132338815Y-89492603D01*
X132338815Y-89492603D02*
X132416224Y-89453899D01*
X132416224Y-89453899D02*
X132454929Y-89415194D01*
X132454929Y-89415194D02*
X132493634Y-89337784D01*
X132493634Y-89337784D02*
X132493634Y-89260375D01*
X132493634Y-89260375D02*
X132454929Y-89182965D01*
X132454929Y-89182965D02*
X132416224Y-89144260D01*
X132416224Y-89144260D02*
X132338815Y-89105556D01*
X132338815Y-89105556D02*
X132183996Y-89066851D01*
X132183996Y-89066851D02*
X132106586Y-89028146D01*
X132106586Y-89028146D02*
X132067881Y-88989441D01*
X132067881Y-88989441D02*
X132029177Y-88912032D01*
X132029177Y-88912032D02*
X132029177Y-88834622D01*
X132029177Y-88834622D02*
X132067881Y-88757213D01*
X132067881Y-88757213D02*
X132106586Y-88718508D01*
X132106586Y-88718508D02*
X132183996Y-88679803D01*
X132183996Y-88679803D02*
X132377519Y-88679803D01*
X132377519Y-88679803D02*
X132493634Y-88718508D01*
X132841976Y-89492603D02*
X132841976Y-88679803D01*
X132841976Y-88679803D02*
X133035500Y-88679803D01*
X133035500Y-88679803D02*
X133151614Y-88718508D01*
X133151614Y-88718508D02*
X133229024Y-88795918D01*
X133229024Y-88795918D02*
X133267729Y-88873327D01*
X133267729Y-88873327D02*
X133306433Y-89028146D01*
X133306433Y-89028146D02*
X133306433Y-89144260D01*
X133306433Y-89144260D02*
X133267729Y-89299079D01*
X133267729Y-89299079D02*
X133229024Y-89376489D01*
X133229024Y-89376489D02*
X133151614Y-89453899D01*
X133151614Y-89453899D02*
X133035500Y-89492603D01*
X133035500Y-89492603D02*
X132841976Y-89492603D01*
X134080529Y-89492603D02*
X133616072Y-89492603D01*
X133848300Y-89492603D02*
X133848300Y-88679803D01*
X133848300Y-88679803D02*
X133770891Y-88795918D01*
X133770891Y-88795918D02*
X133693481Y-88873327D01*
X133693481Y-88873327D02*
X133616072Y-88912032D01*
X134351462Y-88679803D02*
X134854624Y-88679803D01*
X134854624Y-88679803D02*
X134583690Y-88989441D01*
X134583690Y-88989441D02*
X134699805Y-88989441D01*
X134699805Y-88989441D02*
X134777214Y-89028146D01*
X134777214Y-89028146D02*
X134815919Y-89066851D01*
X134815919Y-89066851D02*
X134854624Y-89144260D01*
X134854624Y-89144260D02*
X134854624Y-89337784D01*
X134854624Y-89337784D02*
X134815919Y-89415194D01*
X134815919Y-89415194D02*
X134777214Y-89453899D01*
X134777214Y-89453899D02*
X134699805Y-89492603D01*
X134699805Y-89492603D02*
X134467576Y-89492603D01*
X134467576Y-89492603D02*
X134390167Y-89453899D01*
X134390167Y-89453899D02*
X134351462Y-89415194D01*
X135357785Y-88679803D02*
X135435195Y-88679803D01*
X135435195Y-88679803D02*
X135512604Y-88718508D01*
X135512604Y-88718508D02*
X135551309Y-88757213D01*
X135551309Y-88757213D02*
X135590014Y-88834622D01*
X135590014Y-88834622D02*
X135628719Y-88989441D01*
X135628719Y-88989441D02*
X135628719Y-89182965D01*
X135628719Y-89182965D02*
X135590014Y-89337784D01*
X135590014Y-89337784D02*
X135551309Y-89415194D01*
X135551309Y-89415194D02*
X135512604Y-89453899D01*
X135512604Y-89453899D02*
X135435195Y-89492603D01*
X135435195Y-89492603D02*
X135357785Y-89492603D01*
X135357785Y-89492603D02*
X135280376Y-89453899D01*
X135280376Y-89453899D02*
X135241671Y-89415194D01*
X135241671Y-89415194D02*
X135202966Y-89337784D01*
X135202966Y-89337784D02*
X135164262Y-89182965D01*
X135164262Y-89182965D02*
X135164262Y-88989441D01*
X135164262Y-88989441D02*
X135202966Y-88834622D01*
X135202966Y-88834622D02*
X135241671Y-88757213D01*
X135241671Y-88757213D02*
X135280376Y-88718508D01*
X135280376Y-88718508D02*
X135357785Y-88679803D01*
X136325404Y-88679803D02*
X136170585Y-88679803D01*
X136170585Y-88679803D02*
X136093176Y-88718508D01*
X136093176Y-88718508D02*
X136054471Y-88757213D01*
X136054471Y-88757213D02*
X135977061Y-88873327D01*
X135977061Y-88873327D02*
X135938357Y-89028146D01*
X135938357Y-89028146D02*
X135938357Y-89337784D01*
X135938357Y-89337784D02*
X135977061Y-89415194D01*
X135977061Y-89415194D02*
X136015766Y-89453899D01*
X136015766Y-89453899D02*
X136093176Y-89492603D01*
X136093176Y-89492603D02*
X136247995Y-89492603D01*
X136247995Y-89492603D02*
X136325404Y-89453899D01*
X136325404Y-89453899D02*
X136364109Y-89415194D01*
X136364109Y-89415194D02*
X136402814Y-89337784D01*
X136402814Y-89337784D02*
X136402814Y-89144260D01*
X136402814Y-89144260D02*
X136364109Y-89066851D01*
X136364109Y-89066851D02*
X136325404Y-89028146D01*
X136325404Y-89028146D02*
X136247995Y-88989441D01*
X136247995Y-88989441D02*
X136093176Y-88989441D01*
X136093176Y-88989441D02*
X136015766Y-89028146D01*
X136015766Y-89028146D02*
X135977061Y-89066851D01*
X135977061Y-89066851D02*
X135938357Y-89144260D01*
X137525251Y-88679803D02*
X137680070Y-88679803D01*
X137680070Y-88679803D02*
X137757480Y-88718508D01*
X137757480Y-88718508D02*
X137834889Y-88795918D01*
X137834889Y-88795918D02*
X137873594Y-88950737D01*
X137873594Y-88950737D02*
X137873594Y-89221670D01*
X137873594Y-89221670D02*
X137834889Y-89376489D01*
X137834889Y-89376489D02*
X137757480Y-89453899D01*
X137757480Y-89453899D02*
X137680070Y-89492603D01*
X137680070Y-89492603D02*
X137525251Y-89492603D01*
X137525251Y-89492603D02*
X137447842Y-89453899D01*
X137447842Y-89453899D02*
X137370432Y-89376489D01*
X137370432Y-89376489D02*
X137331728Y-89221670D01*
X137331728Y-89221670D02*
X137331728Y-88950737D01*
X137331728Y-88950737D02*
X137370432Y-88795918D01*
X137370432Y-88795918D02*
X137447842Y-88718508D01*
X137447842Y-88718508D02*
X137525251Y-88679803D01*
X138608985Y-89492603D02*
X138221937Y-89492603D01*
X138221937Y-89492603D02*
X138221937Y-88679803D01*
X138879918Y-89066851D02*
X139150852Y-89066851D01*
X139266966Y-89492603D02*
X138879918Y-89492603D01*
X138879918Y-89492603D02*
X138879918Y-88679803D01*
X138879918Y-88679803D02*
X139266966Y-88679803D01*
X139615308Y-89492603D02*
X139615308Y-88679803D01*
X139615308Y-88679803D02*
X139808832Y-88679803D01*
X139808832Y-88679803D02*
X139924946Y-88718508D01*
X139924946Y-88718508D02*
X140002356Y-88795918D01*
X140002356Y-88795918D02*
X140041061Y-88873327D01*
X140041061Y-88873327D02*
X140079765Y-89028146D01*
X140079765Y-89028146D02*
X140079765Y-89144260D01*
X140079765Y-89144260D02*
X140041061Y-89299079D01*
X140041061Y-89299079D02*
X140002356Y-89376489D01*
X140002356Y-89376489D02*
X139924946Y-89453899D01*
X139924946Y-89453899D02*
X139808832Y-89492603D01*
X139808832Y-89492603D02*
X139615308Y-89492603D01*
D12*
X192816667Y-69707200D02*
X192959524Y-69754819D01*
X192959524Y-69754819D02*
X193197619Y-69754819D01*
X193197619Y-69754819D02*
X193292857Y-69707200D01*
X193292857Y-69707200D02*
X193340476Y-69659580D01*
X193340476Y-69659580D02*
X193388095Y-69564342D01*
X193388095Y-69564342D02*
X193388095Y-69469104D01*
X193388095Y-69469104D02*
X193340476Y-69373866D01*
X193340476Y-69373866D02*
X193292857Y-69326247D01*
X193292857Y-69326247D02*
X193197619Y-69278628D01*
X193197619Y-69278628D02*
X193007143Y-69231009D01*
X193007143Y-69231009D02*
X192911905Y-69183390D01*
X192911905Y-69183390D02*
X192864286Y-69135771D01*
X192864286Y-69135771D02*
X192816667Y-69040533D01*
X192816667Y-69040533D02*
X192816667Y-68945295D01*
X192816667Y-68945295D02*
X192864286Y-68850057D01*
X192864286Y-68850057D02*
X192911905Y-68802438D01*
X192911905Y-68802438D02*
X193007143Y-68754819D01*
X193007143Y-68754819D02*
X193245238Y-68754819D01*
X193245238Y-68754819D02*
X193388095Y-68802438D01*
X193721429Y-68754819D02*
X193959524Y-69754819D01*
X193959524Y-69754819D02*
X194150000Y-69040533D01*
X194150000Y-69040533D02*
X194340476Y-69754819D01*
X194340476Y-69754819D02*
X194578572Y-68754819D01*
X194911905Y-68850057D02*
X194959524Y-68802438D01*
X194959524Y-68802438D02*
X195054762Y-68754819D01*
X195054762Y-68754819D02*
X195292857Y-68754819D01*
X195292857Y-68754819D02*
X195388095Y-68802438D01*
X195388095Y-68802438D02*
X195435714Y-68850057D01*
X195435714Y-68850057D02*
X195483333Y-68945295D01*
X195483333Y-68945295D02*
X195483333Y-69040533D01*
X195483333Y-69040533D02*
X195435714Y-69183390D01*
X195435714Y-69183390D02*
X194864286Y-69754819D01*
X194864286Y-69754819D02*
X195483333Y-69754819D01*
X184733333Y-48284819D02*
X184400000Y-47808628D01*
X184161905Y-48284819D02*
X184161905Y-47284819D01*
X184161905Y-47284819D02*
X184542857Y-47284819D01*
X184542857Y-47284819D02*
X184638095Y-47332438D01*
X184638095Y-47332438D02*
X184685714Y-47380057D01*
X184685714Y-47380057D02*
X184733333Y-47475295D01*
X184733333Y-47475295D02*
X184733333Y-47618152D01*
X184733333Y-47618152D02*
X184685714Y-47713390D01*
X184685714Y-47713390D02*
X184638095Y-47761009D01*
X184638095Y-47761009D02*
X184542857Y-47808628D01*
X184542857Y-47808628D02*
X184161905Y-47808628D01*
X185590476Y-47618152D02*
X185590476Y-48284819D01*
X185352381Y-47237200D02*
X185114286Y-47951485D01*
X185114286Y-47951485D02*
X185733333Y-47951485D01*
X192566667Y-81057200D02*
X192709524Y-81104819D01*
X192709524Y-81104819D02*
X192947619Y-81104819D01*
X192947619Y-81104819D02*
X193042857Y-81057200D01*
X193042857Y-81057200D02*
X193090476Y-81009580D01*
X193090476Y-81009580D02*
X193138095Y-80914342D01*
X193138095Y-80914342D02*
X193138095Y-80819104D01*
X193138095Y-80819104D02*
X193090476Y-80723866D01*
X193090476Y-80723866D02*
X193042857Y-80676247D01*
X193042857Y-80676247D02*
X192947619Y-80628628D01*
X192947619Y-80628628D02*
X192757143Y-80581009D01*
X192757143Y-80581009D02*
X192661905Y-80533390D01*
X192661905Y-80533390D02*
X192614286Y-80485771D01*
X192614286Y-80485771D02*
X192566667Y-80390533D01*
X192566667Y-80390533D02*
X192566667Y-80295295D01*
X192566667Y-80295295D02*
X192614286Y-80200057D01*
X192614286Y-80200057D02*
X192661905Y-80152438D01*
X192661905Y-80152438D02*
X192757143Y-80104819D01*
X192757143Y-80104819D02*
X192995238Y-80104819D01*
X192995238Y-80104819D02*
X193138095Y-80152438D01*
X193471429Y-80104819D02*
X193709524Y-81104819D01*
X193709524Y-81104819D02*
X193900000Y-80390533D01*
X193900000Y-80390533D02*
X194090476Y-81104819D01*
X194090476Y-81104819D02*
X194328572Y-80104819D01*
X194614286Y-80104819D02*
X195233333Y-80104819D01*
X195233333Y-80104819D02*
X194900000Y-80485771D01*
X194900000Y-80485771D02*
X195042857Y-80485771D01*
X195042857Y-80485771D02*
X195138095Y-80533390D01*
X195138095Y-80533390D02*
X195185714Y-80581009D01*
X195185714Y-80581009D02*
X195233333Y-80676247D01*
X195233333Y-80676247D02*
X195233333Y-80914342D01*
X195233333Y-80914342D02*
X195185714Y-81009580D01*
X195185714Y-81009580D02*
X195138095Y-81057200D01*
X195138095Y-81057200D02*
X195042857Y-81104819D01*
X195042857Y-81104819D02*
X194757143Y-81104819D01*
X194757143Y-81104819D02*
X194661905Y-81057200D01*
X194661905Y-81057200D02*
X194614286Y-81009580D01*
X183159580Y-73766666D02*
X183207200Y-73814285D01*
X183207200Y-73814285D02*
X183254819Y-73957142D01*
X183254819Y-73957142D02*
X183254819Y-74052380D01*
X183254819Y-74052380D02*
X183207200Y-74195237D01*
X183207200Y-74195237D02*
X183111961Y-74290475D01*
X183111961Y-74290475D02*
X183016723Y-74338094D01*
X183016723Y-74338094D02*
X182826247Y-74385713D01*
X182826247Y-74385713D02*
X182683390Y-74385713D01*
X182683390Y-74385713D02*
X182492914Y-74338094D01*
X182492914Y-74338094D02*
X182397676Y-74290475D01*
X182397676Y-74290475D02*
X182302438Y-74195237D01*
X182302438Y-74195237D02*
X182254819Y-74052380D01*
X182254819Y-74052380D02*
X182254819Y-73957142D01*
X182254819Y-73957142D02*
X182302438Y-73814285D01*
X182302438Y-73814285D02*
X182350057Y-73766666D01*
X182350057Y-73385713D02*
X182302438Y-73338094D01*
X182302438Y-73338094D02*
X182254819Y-73242856D01*
X182254819Y-73242856D02*
X182254819Y-73004761D01*
X182254819Y-73004761D02*
X182302438Y-72909523D01*
X182302438Y-72909523D02*
X182350057Y-72861904D01*
X182350057Y-72861904D02*
X182445295Y-72814285D01*
X182445295Y-72814285D02*
X182540533Y-72814285D01*
X182540533Y-72814285D02*
X182683390Y-72861904D01*
X182683390Y-72861904D02*
X183254819Y-73433332D01*
X183254819Y-73433332D02*
X183254819Y-72814285D01*
X188924819Y-62566666D02*
X188448628Y-62899999D01*
X188924819Y-63138094D02*
X187924819Y-63138094D01*
X187924819Y-63138094D02*
X187924819Y-62757142D01*
X187924819Y-62757142D02*
X187972438Y-62661904D01*
X187972438Y-62661904D02*
X188020057Y-62614285D01*
X188020057Y-62614285D02*
X188115295Y-62566666D01*
X188115295Y-62566666D02*
X188258152Y-62566666D01*
X188258152Y-62566666D02*
X188353390Y-62614285D01*
X188353390Y-62614285D02*
X188401009Y-62661904D01*
X188401009Y-62661904D02*
X188448628Y-62757142D01*
X188448628Y-62757142D02*
X188448628Y-63138094D01*
X188924819Y-61614285D02*
X188924819Y-62185713D01*
X188924819Y-61899999D02*
X187924819Y-61899999D01*
X187924819Y-61899999D02*
X188067676Y-61995237D01*
X188067676Y-61995237D02*
X188162914Y-62090475D01*
X188162914Y-62090475D02*
X188210533Y-62185713D01*
X192566667Y-58557200D02*
X192709524Y-58604819D01*
X192709524Y-58604819D02*
X192947619Y-58604819D01*
X192947619Y-58604819D02*
X193042857Y-58557200D01*
X193042857Y-58557200D02*
X193090476Y-58509580D01*
X193090476Y-58509580D02*
X193138095Y-58414342D01*
X193138095Y-58414342D02*
X193138095Y-58319104D01*
X193138095Y-58319104D02*
X193090476Y-58223866D01*
X193090476Y-58223866D02*
X193042857Y-58176247D01*
X193042857Y-58176247D02*
X192947619Y-58128628D01*
X192947619Y-58128628D02*
X192757143Y-58081009D01*
X192757143Y-58081009D02*
X192661905Y-58033390D01*
X192661905Y-58033390D02*
X192614286Y-57985771D01*
X192614286Y-57985771D02*
X192566667Y-57890533D01*
X192566667Y-57890533D02*
X192566667Y-57795295D01*
X192566667Y-57795295D02*
X192614286Y-57700057D01*
X192614286Y-57700057D02*
X192661905Y-57652438D01*
X192661905Y-57652438D02*
X192757143Y-57604819D01*
X192757143Y-57604819D02*
X192995238Y-57604819D01*
X192995238Y-57604819D02*
X193138095Y-57652438D01*
X193471429Y-57604819D02*
X193709524Y-58604819D01*
X193709524Y-58604819D02*
X193900000Y-57890533D01*
X193900000Y-57890533D02*
X194090476Y-58604819D01*
X194090476Y-58604819D02*
X194328572Y-57604819D01*
X195233333Y-58604819D02*
X194661905Y-58604819D01*
X194947619Y-58604819D02*
X194947619Y-57604819D01*
X194947619Y-57604819D02*
X194852381Y-57747676D01*
X194852381Y-57747676D02*
X194757143Y-57842914D01*
X194757143Y-57842914D02*
X194661905Y-57890533D01*
X191909104Y-54112856D02*
X191909104Y-53636666D01*
X192194819Y-54208094D02*
X191194819Y-53874761D01*
X191194819Y-53874761D02*
X192194819Y-53541428D01*
X192194819Y-52731904D02*
X192194819Y-53208094D01*
X192194819Y-53208094D02*
X191194819Y-53208094D01*
X191909104Y-52446189D02*
X191909104Y-51969999D01*
X192194819Y-52541427D02*
X191194819Y-52208094D01*
X191194819Y-52208094D02*
X192194819Y-51874761D01*
X192194819Y-50969999D02*
X191718628Y-51303332D01*
X192194819Y-51541427D02*
X191194819Y-51541427D01*
X191194819Y-51541427D02*
X191194819Y-51160475D01*
X191194819Y-51160475D02*
X191242438Y-51065237D01*
X191242438Y-51065237D02*
X191290057Y-51017618D01*
X191290057Y-51017618D02*
X191385295Y-50969999D01*
X191385295Y-50969999D02*
X191528152Y-50969999D01*
X191528152Y-50969999D02*
X191623390Y-51017618D01*
X191623390Y-51017618D02*
X191671009Y-51065237D01*
X191671009Y-51065237D02*
X191718628Y-51160475D01*
X191718628Y-51160475D02*
X191718628Y-51541427D01*
X192194819Y-50541427D02*
X191194819Y-50541427D01*
X191194819Y-50541427D02*
X191909104Y-50208094D01*
X191909104Y-50208094D02*
X191194819Y-49874761D01*
X191194819Y-49874761D02*
X192194819Y-49874761D01*
X189124819Y-73976666D02*
X188648628Y-74309999D01*
X189124819Y-74548094D02*
X188124819Y-74548094D01*
X188124819Y-74548094D02*
X188124819Y-74167142D01*
X188124819Y-74167142D02*
X188172438Y-74071904D01*
X188172438Y-74071904D02*
X188220057Y-74024285D01*
X188220057Y-74024285D02*
X188315295Y-73976666D01*
X188315295Y-73976666D02*
X188458152Y-73976666D01*
X188458152Y-73976666D02*
X188553390Y-74024285D01*
X188553390Y-74024285D02*
X188601009Y-74071904D01*
X188601009Y-74071904D02*
X188648628Y-74167142D01*
X188648628Y-74167142D02*
X188648628Y-74548094D01*
X188220057Y-73595713D02*
X188172438Y-73548094D01*
X188172438Y-73548094D02*
X188124819Y-73452856D01*
X188124819Y-73452856D02*
X188124819Y-73214761D01*
X188124819Y-73214761D02*
X188172438Y-73119523D01*
X188172438Y-73119523D02*
X188220057Y-73071904D01*
X188220057Y-73071904D02*
X188315295Y-73024285D01*
X188315295Y-73024285D02*
X188410533Y-73024285D01*
X188410533Y-73024285D02*
X188553390Y-73071904D01*
X188553390Y-73071904D02*
X189124819Y-73643332D01*
X189124819Y-73643332D02*
X189124819Y-73024285D01*
D13*
X139638095Y-93057419D02*
X139638095Y-93866942D01*
X139638095Y-93866942D02*
X139685714Y-93962180D01*
X139685714Y-93962180D02*
X139733333Y-94009800D01*
X139733333Y-94009800D02*
X139828571Y-94057419D01*
X139828571Y-94057419D02*
X140019047Y-94057419D01*
X140019047Y-94057419D02*
X140114285Y-94009800D01*
X140114285Y-94009800D02*
X140161904Y-93962180D01*
X140161904Y-93962180D02*
X140209523Y-93866942D01*
X140209523Y-93866942D02*
X140209523Y-93057419D01*
X141209523Y-94057419D02*
X140638095Y-94057419D01*
X140923809Y-94057419D02*
X140923809Y-93057419D01*
X140923809Y-93057419D02*
X140828571Y-93200276D01*
X140828571Y-93200276D02*
X140733333Y-93295514D01*
X140733333Y-93295514D02*
X140638095Y-93343133D01*
X137642466Y-83000877D02*
X137609133Y-83067544D01*
X137609133Y-83067544D02*
X137609133Y-83167544D01*
X137609133Y-83167544D02*
X137642466Y-83267544D01*
X137642466Y-83267544D02*
X137709133Y-83334211D01*
X137709133Y-83334211D02*
X137775800Y-83367544D01*
X137775800Y-83367544D02*
X137909133Y-83400877D01*
X137909133Y-83400877D02*
X138009133Y-83400877D01*
X138009133Y-83400877D02*
X138142466Y-83367544D01*
X138142466Y-83367544D02*
X138209133Y-83334211D01*
X138209133Y-83334211D02*
X138275800Y-83267544D01*
X138275800Y-83267544D02*
X138309133Y-83167544D01*
X138309133Y-83167544D02*
X138309133Y-83100877D01*
X138309133Y-83100877D02*
X138275800Y-83000877D01*
X138275800Y-83000877D02*
X138242466Y-82967544D01*
X138242466Y-82967544D02*
X138009133Y-82967544D01*
X138009133Y-82967544D02*
X138009133Y-83100877D01*
X138309133Y-82667544D02*
X137609133Y-82667544D01*
X137609133Y-82667544D02*
X138309133Y-82267544D01*
X138309133Y-82267544D02*
X137609133Y-82267544D01*
X138309133Y-81934211D02*
X137609133Y-81934211D01*
X137609133Y-81934211D02*
X137609133Y-81767544D01*
X137609133Y-81767544D02*
X137642466Y-81667544D01*
X137642466Y-81667544D02*
X137709133Y-81600878D01*
X137709133Y-81600878D02*
X137775800Y-81567544D01*
X137775800Y-81567544D02*
X137909133Y-81534211D01*
X137909133Y-81534211D02*
X138009133Y-81534211D01*
X138009133Y-81534211D02*
X138142466Y-81567544D01*
X138142466Y-81567544D02*
X138209133Y-81600878D01*
X138209133Y-81600878D02*
X138275800Y-81667544D01*
X138275800Y-81667544D02*
X138309133Y-81767544D01*
X138309133Y-81767544D02*
X138309133Y-81934211D01*
X133275800Y-83400877D02*
X133309133Y-83300877D01*
X133309133Y-83300877D02*
X133309133Y-83134211D01*
X133309133Y-83134211D02*
X133275800Y-83067544D01*
X133275800Y-83067544D02*
X133242466Y-83034211D01*
X133242466Y-83034211D02*
X133175800Y-83000877D01*
X133175800Y-83000877D02*
X133109133Y-83000877D01*
X133109133Y-83000877D02*
X133042466Y-83034211D01*
X133042466Y-83034211D02*
X133009133Y-83067544D01*
X133009133Y-83067544D02*
X132975800Y-83134211D01*
X132975800Y-83134211D02*
X132942466Y-83267544D01*
X132942466Y-83267544D02*
X132909133Y-83334211D01*
X132909133Y-83334211D02*
X132875800Y-83367544D01*
X132875800Y-83367544D02*
X132809133Y-83400877D01*
X132809133Y-83400877D02*
X132742466Y-83400877D01*
X132742466Y-83400877D02*
X132675800Y-83367544D01*
X132675800Y-83367544D02*
X132642466Y-83334211D01*
X132642466Y-83334211D02*
X132609133Y-83267544D01*
X132609133Y-83267544D02*
X132609133Y-83100877D01*
X132609133Y-83100877D02*
X132642466Y-83000877D01*
X133309133Y-82700877D02*
X132609133Y-82700877D01*
X132609133Y-82700877D02*
X132609133Y-82534210D01*
X132609133Y-82534210D02*
X132642466Y-82434210D01*
X132642466Y-82434210D02*
X132709133Y-82367544D01*
X132709133Y-82367544D02*
X132775800Y-82334210D01*
X132775800Y-82334210D02*
X132909133Y-82300877D01*
X132909133Y-82300877D02*
X133009133Y-82300877D01*
X133009133Y-82300877D02*
X133142466Y-82334210D01*
X133142466Y-82334210D02*
X133209133Y-82367544D01*
X133209133Y-82367544D02*
X133275800Y-82434210D01*
X133275800Y-82434210D02*
X133309133Y-82534210D01*
X133309133Y-82534210D02*
X133309133Y-82700877D01*
X133109133Y-82034210D02*
X133109133Y-81700877D01*
X133309133Y-82100877D02*
X132609133Y-81867544D01*
X132609133Y-81867544D02*
X133309133Y-81634210D01*
X130809133Y-83367544D02*
X130109133Y-83367544D01*
X130809133Y-83034211D02*
X130109133Y-83034211D01*
X130109133Y-83034211D02*
X130809133Y-82634211D01*
X130809133Y-82634211D02*
X130109133Y-82634211D01*
X130109133Y-82400878D02*
X130109133Y-82000878D01*
X130809133Y-82200878D02*
X130109133Y-82200878D01*
X135775800Y-83400877D02*
X135809133Y-83300877D01*
X135809133Y-83300877D02*
X135809133Y-83134211D01*
X135809133Y-83134211D02*
X135775800Y-83067544D01*
X135775800Y-83067544D02*
X135742466Y-83034211D01*
X135742466Y-83034211D02*
X135675800Y-83000877D01*
X135675800Y-83000877D02*
X135609133Y-83000877D01*
X135609133Y-83000877D02*
X135542466Y-83034211D01*
X135542466Y-83034211D02*
X135509133Y-83067544D01*
X135509133Y-83067544D02*
X135475800Y-83134211D01*
X135475800Y-83134211D02*
X135442466Y-83267544D01*
X135442466Y-83267544D02*
X135409133Y-83334211D01*
X135409133Y-83334211D02*
X135375800Y-83367544D01*
X135375800Y-83367544D02*
X135309133Y-83400877D01*
X135309133Y-83400877D02*
X135242466Y-83400877D01*
X135242466Y-83400877D02*
X135175800Y-83367544D01*
X135175800Y-83367544D02*
X135142466Y-83334211D01*
X135142466Y-83334211D02*
X135109133Y-83267544D01*
X135109133Y-83267544D02*
X135109133Y-83100877D01*
X135109133Y-83100877D02*
X135142466Y-83000877D01*
X135742466Y-82300877D02*
X135775800Y-82334210D01*
X135775800Y-82334210D02*
X135809133Y-82434210D01*
X135809133Y-82434210D02*
X135809133Y-82500877D01*
X135809133Y-82500877D02*
X135775800Y-82600877D01*
X135775800Y-82600877D02*
X135709133Y-82667544D01*
X135709133Y-82667544D02*
X135642466Y-82700877D01*
X135642466Y-82700877D02*
X135509133Y-82734210D01*
X135509133Y-82734210D02*
X135409133Y-82734210D01*
X135409133Y-82734210D02*
X135275800Y-82700877D01*
X135275800Y-82700877D02*
X135209133Y-82667544D01*
X135209133Y-82667544D02*
X135142466Y-82600877D01*
X135142466Y-82600877D02*
X135109133Y-82500877D01*
X135109133Y-82500877D02*
X135109133Y-82434210D01*
X135109133Y-82434210D02*
X135142466Y-82334210D01*
X135142466Y-82334210D02*
X135175800Y-82300877D01*
X135809133Y-81667544D02*
X135809133Y-82000877D01*
X135809133Y-82000877D02*
X135109133Y-82000877D01*
X140109133Y-83467544D02*
X140809133Y-83234211D01*
X140809133Y-83234211D02*
X140109133Y-83000877D01*
X140742466Y-82367544D02*
X140775800Y-82400877D01*
X140775800Y-82400877D02*
X140809133Y-82500877D01*
X140809133Y-82500877D02*
X140809133Y-82567544D01*
X140809133Y-82567544D02*
X140775800Y-82667544D01*
X140775800Y-82667544D02*
X140709133Y-82734211D01*
X140709133Y-82734211D02*
X140642466Y-82767544D01*
X140642466Y-82767544D02*
X140509133Y-82800877D01*
X140509133Y-82800877D02*
X140409133Y-82800877D01*
X140409133Y-82800877D02*
X140275800Y-82767544D01*
X140275800Y-82767544D02*
X140209133Y-82734211D01*
X140209133Y-82734211D02*
X140142466Y-82667544D01*
X140142466Y-82667544D02*
X140109133Y-82567544D01*
X140109133Y-82567544D02*
X140109133Y-82500877D01*
X140109133Y-82500877D02*
X140142466Y-82400877D01*
X140142466Y-82400877D02*
X140175800Y-82367544D01*
X140742466Y-81667544D02*
X140775800Y-81700877D01*
X140775800Y-81700877D02*
X140809133Y-81800877D01*
X140809133Y-81800877D02*
X140809133Y-81867544D01*
X140809133Y-81867544D02*
X140775800Y-81967544D01*
X140775800Y-81967544D02*
X140709133Y-82034211D01*
X140709133Y-82034211D02*
X140642466Y-82067544D01*
X140642466Y-82067544D02*
X140509133Y-82100877D01*
X140509133Y-82100877D02*
X140409133Y-82100877D01*
X140409133Y-82100877D02*
X140275800Y-82067544D01*
X140275800Y-82067544D02*
X140209133Y-82034211D01*
X140209133Y-82034211D02*
X140142466Y-81967544D01*
X140142466Y-81967544D02*
X140109133Y-81867544D01*
X140109133Y-81867544D02*
X140109133Y-81800877D01*
X140109133Y-81800877D02*
X140142466Y-81700877D01*
X140142466Y-81700877D02*
X140175800Y-81667544D01*
D12*
X166355714Y-94669104D02*
X166831904Y-94669104D01*
X166260476Y-94954819D02*
X166593809Y-93954819D01*
X166593809Y-93954819D02*
X166927142Y-94954819D01*
X167784285Y-94954819D02*
X167212857Y-94954819D01*
X167498571Y-94954819D02*
X167498571Y-93954819D01*
X167498571Y-93954819D02*
X167403333Y-94097676D01*
X167403333Y-94097676D02*
X167308095Y-94192914D01*
X167308095Y-94192914D02*
X167212857Y-94240533D01*
X168331904Y-54405180D02*
X168331904Y-53595657D01*
X168331904Y-53595657D02*
X168284285Y-53500419D01*
X168284285Y-53500419D02*
X168236666Y-53452800D01*
X168236666Y-53452800D02*
X168141428Y-53405180D01*
X168141428Y-53405180D02*
X167950952Y-53405180D01*
X167950952Y-53405180D02*
X167855714Y-53452800D01*
X167855714Y-53452800D02*
X167808095Y-53500419D01*
X167808095Y-53500419D02*
X167760476Y-53595657D01*
X167760476Y-53595657D02*
X167760476Y-54405180D01*
X167331904Y-53452800D02*
X167189047Y-53405180D01*
X167189047Y-53405180D02*
X166950952Y-53405180D01*
X166950952Y-53405180D02*
X166855714Y-53452800D01*
X166855714Y-53452800D02*
X166808095Y-53500419D01*
X166808095Y-53500419D02*
X166760476Y-53595657D01*
X166760476Y-53595657D02*
X166760476Y-53690895D01*
X166760476Y-53690895D02*
X166808095Y-53786133D01*
X166808095Y-53786133D02*
X166855714Y-53833752D01*
X166855714Y-53833752D02*
X166950952Y-53881371D01*
X166950952Y-53881371D02*
X167141428Y-53928990D01*
X167141428Y-53928990D02*
X167236666Y-53976609D01*
X167236666Y-53976609D02*
X167284285Y-54024228D01*
X167284285Y-54024228D02*
X167331904Y-54119466D01*
X167331904Y-54119466D02*
X167331904Y-54214704D01*
X167331904Y-54214704D02*
X167284285Y-54309942D01*
X167284285Y-54309942D02*
X167236666Y-54357561D01*
X167236666Y-54357561D02*
X167141428Y-54405180D01*
X167141428Y-54405180D02*
X166903333Y-54405180D01*
X166903333Y-54405180D02*
X166760476Y-54357561D01*
X165998571Y-53928990D02*
X165855714Y-53881371D01*
X165855714Y-53881371D02*
X165808095Y-53833752D01*
X165808095Y-53833752D02*
X165760476Y-53738514D01*
X165760476Y-53738514D02*
X165760476Y-53595657D01*
X165760476Y-53595657D02*
X165808095Y-53500419D01*
X165808095Y-53500419D02*
X165855714Y-53452800D01*
X165855714Y-53452800D02*
X165950952Y-53405180D01*
X165950952Y-53405180D02*
X166331904Y-53405180D01*
X166331904Y-53405180D02*
X166331904Y-54405180D01*
X166331904Y-54405180D02*
X165998571Y-54405180D01*
X165998571Y-54405180D02*
X165903333Y-54357561D01*
X165903333Y-54357561D02*
X165855714Y-54309942D01*
X165855714Y-54309942D02*
X165808095Y-54214704D01*
X165808095Y-54214704D02*
X165808095Y-54119466D01*
X165808095Y-54119466D02*
X165855714Y-54024228D01*
X165855714Y-54024228D02*
X165903333Y-53976609D01*
X165903333Y-53976609D02*
X165998571Y-53928990D01*
X165998571Y-53928990D02*
X166331904Y-53928990D01*
X183159580Y-62366666D02*
X183207200Y-62414285D01*
X183207200Y-62414285D02*
X183254819Y-62557142D01*
X183254819Y-62557142D02*
X183254819Y-62652380D01*
X183254819Y-62652380D02*
X183207200Y-62795237D01*
X183207200Y-62795237D02*
X183111961Y-62890475D01*
X183111961Y-62890475D02*
X183016723Y-62938094D01*
X183016723Y-62938094D02*
X182826247Y-62985713D01*
X182826247Y-62985713D02*
X182683390Y-62985713D01*
X182683390Y-62985713D02*
X182492914Y-62938094D01*
X182492914Y-62938094D02*
X182397676Y-62890475D01*
X182397676Y-62890475D02*
X182302438Y-62795237D01*
X182302438Y-62795237D02*
X182254819Y-62652380D01*
X182254819Y-62652380D02*
X182254819Y-62557142D01*
X182254819Y-62557142D02*
X182302438Y-62414285D01*
X182302438Y-62414285D02*
X182350057Y-62366666D01*
X183254819Y-61414285D02*
X183254819Y-61985713D01*
X183254819Y-61699999D02*
X182254819Y-61699999D01*
X182254819Y-61699999D02*
X182397676Y-61795237D01*
X182397676Y-61795237D02*
X182492914Y-61890475D01*
X182492914Y-61890475D02*
X182540533Y-61985713D01*
X183159580Y-85166666D02*
X183207200Y-85214285D01*
X183207200Y-85214285D02*
X183254819Y-85357142D01*
X183254819Y-85357142D02*
X183254819Y-85452380D01*
X183254819Y-85452380D02*
X183207200Y-85595237D01*
X183207200Y-85595237D02*
X183111961Y-85690475D01*
X183111961Y-85690475D02*
X183016723Y-85738094D01*
X183016723Y-85738094D02*
X182826247Y-85785713D01*
X182826247Y-85785713D02*
X182683390Y-85785713D01*
X182683390Y-85785713D02*
X182492914Y-85738094D01*
X182492914Y-85738094D02*
X182397676Y-85690475D01*
X182397676Y-85690475D02*
X182302438Y-85595237D01*
X182302438Y-85595237D02*
X182254819Y-85452380D01*
X182254819Y-85452380D02*
X182254819Y-85357142D01*
X182254819Y-85357142D02*
X182302438Y-85214285D01*
X182302438Y-85214285D02*
X182350057Y-85166666D01*
X182254819Y-84833332D02*
X182254819Y-84214285D01*
X182254819Y-84214285D02*
X182635771Y-84547618D01*
X182635771Y-84547618D02*
X182635771Y-84404761D01*
X182635771Y-84404761D02*
X182683390Y-84309523D01*
X182683390Y-84309523D02*
X182731009Y-84261904D01*
X182731009Y-84261904D02*
X182826247Y-84214285D01*
X182826247Y-84214285D02*
X183064342Y-84214285D01*
X183064342Y-84214285D02*
X183159580Y-84261904D01*
X183159580Y-84261904D02*
X183207200Y-84309523D01*
X183207200Y-84309523D02*
X183254819Y-84404761D01*
X183254819Y-84404761D02*
X183254819Y-84690475D01*
X183254819Y-84690475D02*
X183207200Y-84785713D01*
X183207200Y-84785713D02*
X183159580Y-84833332D01*
X189124819Y-84976666D02*
X188648628Y-85309999D01*
X189124819Y-85548094D02*
X188124819Y-85548094D01*
X188124819Y-85548094D02*
X188124819Y-85167142D01*
X188124819Y-85167142D02*
X188172438Y-85071904D01*
X188172438Y-85071904D02*
X188220057Y-85024285D01*
X188220057Y-85024285D02*
X188315295Y-84976666D01*
X188315295Y-84976666D02*
X188458152Y-84976666D01*
X188458152Y-84976666D02*
X188553390Y-85024285D01*
X188553390Y-85024285D02*
X188601009Y-85071904D01*
X188601009Y-85071904D02*
X188648628Y-85167142D01*
X188648628Y-85167142D02*
X188648628Y-85548094D01*
X188124819Y-84643332D02*
X188124819Y-84024285D01*
X188124819Y-84024285D02*
X188505771Y-84357618D01*
X188505771Y-84357618D02*
X188505771Y-84214761D01*
X188505771Y-84214761D02*
X188553390Y-84119523D01*
X188553390Y-84119523D02*
X188601009Y-84071904D01*
X188601009Y-84071904D02*
X188696247Y-84024285D01*
X188696247Y-84024285D02*
X188934342Y-84024285D01*
X188934342Y-84024285D02*
X189029580Y-84071904D01*
X189029580Y-84071904D02*
X189077200Y-84119523D01*
X189077200Y-84119523D02*
X189124819Y-84214761D01*
X189124819Y-84214761D02*
X189124819Y-84500475D01*
X189124819Y-84500475D02*
X189077200Y-84595713D01*
X189077200Y-84595713D02*
X189029580Y-84643332D01*
D13*
X139538095Y-61357419D02*
X139538095Y-62166942D01*
X139538095Y-62166942D02*
X139585714Y-62262180D01*
X139585714Y-62262180D02*
X139633333Y-62309800D01*
X139633333Y-62309800D02*
X139728571Y-62357419D01*
X139728571Y-62357419D02*
X139919047Y-62357419D01*
X139919047Y-62357419D02*
X140014285Y-62309800D01*
X140014285Y-62309800D02*
X140061904Y-62262180D01*
X140061904Y-62262180D02*
X140109523Y-62166942D01*
X140109523Y-62166942D02*
X140109523Y-61357419D01*
X140538095Y-61452657D02*
X140585714Y-61405038D01*
X140585714Y-61405038D02*
X140680952Y-61357419D01*
X140680952Y-61357419D02*
X140919047Y-61357419D01*
X140919047Y-61357419D02*
X141014285Y-61405038D01*
X141014285Y-61405038D02*
X141061904Y-61452657D01*
X141061904Y-61452657D02*
X141109523Y-61547895D01*
X141109523Y-61547895D02*
X141109523Y-61643133D01*
X141109523Y-61643133D02*
X141061904Y-61785990D01*
X141061904Y-61785990D02*
X140490476Y-62357419D01*
X140490476Y-62357419D02*
X141109523Y-62357419D01*
X138874133Y-53459544D02*
X139574133Y-53226211D01*
X139574133Y-53226211D02*
X138874133Y-52992877D01*
X139507466Y-52359544D02*
X139540800Y-52392877D01*
X139540800Y-52392877D02*
X139574133Y-52492877D01*
X139574133Y-52492877D02*
X139574133Y-52559544D01*
X139574133Y-52559544D02*
X139540800Y-52659544D01*
X139540800Y-52659544D02*
X139474133Y-52726211D01*
X139474133Y-52726211D02*
X139407466Y-52759544D01*
X139407466Y-52759544D02*
X139274133Y-52792877D01*
X139274133Y-52792877D02*
X139174133Y-52792877D01*
X139174133Y-52792877D02*
X139040800Y-52759544D01*
X139040800Y-52759544D02*
X138974133Y-52726211D01*
X138974133Y-52726211D02*
X138907466Y-52659544D01*
X138907466Y-52659544D02*
X138874133Y-52559544D01*
X138874133Y-52559544D02*
X138874133Y-52492877D01*
X138874133Y-52492877D02*
X138907466Y-52392877D01*
X138907466Y-52392877D02*
X138940800Y-52359544D01*
X139507466Y-51659544D02*
X139540800Y-51692877D01*
X139540800Y-51692877D02*
X139574133Y-51792877D01*
X139574133Y-51792877D02*
X139574133Y-51859544D01*
X139574133Y-51859544D02*
X139540800Y-51959544D01*
X139540800Y-51959544D02*
X139474133Y-52026211D01*
X139474133Y-52026211D02*
X139407466Y-52059544D01*
X139407466Y-52059544D02*
X139274133Y-52092877D01*
X139274133Y-52092877D02*
X139174133Y-52092877D01*
X139174133Y-52092877D02*
X139040800Y-52059544D01*
X139040800Y-52059544D02*
X138974133Y-52026211D01*
X138974133Y-52026211D02*
X138907466Y-51959544D01*
X138907466Y-51959544D02*
X138874133Y-51859544D01*
X138874133Y-51859544D02*
X138874133Y-51792877D01*
X138874133Y-51792877D02*
X138907466Y-51692877D01*
X138907466Y-51692877D02*
X138940800Y-51659544D01*
X146271800Y-53392877D02*
X146305133Y-53292877D01*
X146305133Y-53292877D02*
X146305133Y-53126211D01*
X146305133Y-53126211D02*
X146271800Y-53059544D01*
X146271800Y-53059544D02*
X146238466Y-53026211D01*
X146238466Y-53026211D02*
X146171800Y-52992877D01*
X146171800Y-52992877D02*
X146105133Y-52992877D01*
X146105133Y-52992877D02*
X146038466Y-53026211D01*
X146038466Y-53026211D02*
X146005133Y-53059544D01*
X146005133Y-53059544D02*
X145971800Y-53126211D01*
X145971800Y-53126211D02*
X145938466Y-53259544D01*
X145938466Y-53259544D02*
X145905133Y-53326211D01*
X145905133Y-53326211D02*
X145871800Y-53359544D01*
X145871800Y-53359544D02*
X145805133Y-53392877D01*
X145805133Y-53392877D02*
X145738466Y-53392877D01*
X145738466Y-53392877D02*
X145671800Y-53359544D01*
X145671800Y-53359544D02*
X145638466Y-53326211D01*
X145638466Y-53326211D02*
X145605133Y-53259544D01*
X145605133Y-53259544D02*
X145605133Y-53092877D01*
X145605133Y-53092877D02*
X145638466Y-52992877D01*
X146305133Y-52692877D02*
X145605133Y-52692877D01*
X145605133Y-52692877D02*
X145605133Y-52526210D01*
X145605133Y-52526210D02*
X145638466Y-52426210D01*
X145638466Y-52426210D02*
X145705133Y-52359544D01*
X145705133Y-52359544D02*
X145771800Y-52326210D01*
X145771800Y-52326210D02*
X145905133Y-52292877D01*
X145905133Y-52292877D02*
X146005133Y-52292877D01*
X146005133Y-52292877D02*
X146138466Y-52326210D01*
X146138466Y-52326210D02*
X146205133Y-52359544D01*
X146205133Y-52359544D02*
X146271800Y-52426210D01*
X146271800Y-52426210D02*
X146305133Y-52526210D01*
X146305133Y-52526210D02*
X146305133Y-52692877D01*
X146105133Y-52026210D02*
X146105133Y-51692877D01*
X146305133Y-52092877D02*
X145605133Y-51859544D01*
X145605133Y-51859544D02*
X146305133Y-51626210D01*
X135097466Y-52992877D02*
X135064133Y-53059544D01*
X135064133Y-53059544D02*
X135064133Y-53159544D01*
X135064133Y-53159544D02*
X135097466Y-53259544D01*
X135097466Y-53259544D02*
X135164133Y-53326211D01*
X135164133Y-53326211D02*
X135230800Y-53359544D01*
X135230800Y-53359544D02*
X135364133Y-53392877D01*
X135364133Y-53392877D02*
X135464133Y-53392877D01*
X135464133Y-53392877D02*
X135597466Y-53359544D01*
X135597466Y-53359544D02*
X135664133Y-53326211D01*
X135664133Y-53326211D02*
X135730800Y-53259544D01*
X135730800Y-53259544D02*
X135764133Y-53159544D01*
X135764133Y-53159544D02*
X135764133Y-53092877D01*
X135764133Y-53092877D02*
X135730800Y-52992877D01*
X135730800Y-52992877D02*
X135697466Y-52959544D01*
X135697466Y-52959544D02*
X135464133Y-52959544D01*
X135464133Y-52959544D02*
X135464133Y-53092877D01*
X135764133Y-52659544D02*
X135064133Y-52659544D01*
X135064133Y-52659544D02*
X135764133Y-52259544D01*
X135764133Y-52259544D02*
X135064133Y-52259544D01*
X135764133Y-51926211D02*
X135064133Y-51926211D01*
X135064133Y-51926211D02*
X135064133Y-51759544D01*
X135064133Y-51759544D02*
X135097466Y-51659544D01*
X135097466Y-51659544D02*
X135164133Y-51592878D01*
X135164133Y-51592878D02*
X135230800Y-51559544D01*
X135230800Y-51559544D02*
X135364133Y-51526211D01*
X135364133Y-51526211D02*
X135464133Y-51526211D01*
X135464133Y-51526211D02*
X135597466Y-51559544D01*
X135597466Y-51559544D02*
X135664133Y-51592878D01*
X135664133Y-51592878D02*
X135730800Y-51659544D01*
X135730800Y-51659544D02*
X135764133Y-51759544D01*
X135764133Y-51759544D02*
X135764133Y-51926211D01*
X142842800Y-53138877D02*
X142876133Y-53038877D01*
X142876133Y-53038877D02*
X142876133Y-52872211D01*
X142876133Y-52872211D02*
X142842800Y-52805544D01*
X142842800Y-52805544D02*
X142809466Y-52772211D01*
X142809466Y-52772211D02*
X142742800Y-52738877D01*
X142742800Y-52738877D02*
X142676133Y-52738877D01*
X142676133Y-52738877D02*
X142609466Y-52772211D01*
X142609466Y-52772211D02*
X142576133Y-52805544D01*
X142576133Y-52805544D02*
X142542800Y-52872211D01*
X142542800Y-52872211D02*
X142509466Y-53005544D01*
X142509466Y-53005544D02*
X142476133Y-53072211D01*
X142476133Y-53072211D02*
X142442800Y-53105544D01*
X142442800Y-53105544D02*
X142376133Y-53138877D01*
X142376133Y-53138877D02*
X142309466Y-53138877D01*
X142309466Y-53138877D02*
X142242800Y-53105544D01*
X142242800Y-53105544D02*
X142209466Y-53072211D01*
X142209466Y-53072211D02*
X142176133Y-53005544D01*
X142176133Y-53005544D02*
X142176133Y-52838877D01*
X142176133Y-52838877D02*
X142209466Y-52738877D01*
X142809466Y-52038877D02*
X142842800Y-52072210D01*
X142842800Y-52072210D02*
X142876133Y-52172210D01*
X142876133Y-52172210D02*
X142876133Y-52238877D01*
X142876133Y-52238877D02*
X142842800Y-52338877D01*
X142842800Y-52338877D02*
X142776133Y-52405544D01*
X142776133Y-52405544D02*
X142709466Y-52438877D01*
X142709466Y-52438877D02*
X142576133Y-52472210D01*
X142576133Y-52472210D02*
X142476133Y-52472210D01*
X142476133Y-52472210D02*
X142342800Y-52438877D01*
X142342800Y-52438877D02*
X142276133Y-52405544D01*
X142276133Y-52405544D02*
X142209466Y-52338877D01*
X142209466Y-52338877D02*
X142176133Y-52238877D01*
X142176133Y-52238877D02*
X142176133Y-52172210D01*
X142176133Y-52172210D02*
X142209466Y-52072210D01*
X142209466Y-52072210D02*
X142242800Y-52038877D01*
X142876133Y-51405544D02*
X142876133Y-51738877D01*
X142876133Y-51738877D02*
X142176133Y-51738877D01*
D14*
G36*
X144859926Y-85481265D02*
G01*
X145106324Y-85483003D01*
X145343017Y-85487706D01*
X145555712Y-85494859D01*
X145730118Y-85503948D01*
X145851944Y-85514457D01*
X145876517Y-85517877D01*
X146206858Y-85599117D01*
X146483930Y-85726281D01*
X146706583Y-85898139D01*
X146873668Y-86113461D01*
X146984033Y-86371016D01*
X147036529Y-86669574D01*
X147040760Y-86763465D01*
X147014135Y-87075030D01*
X146923888Y-87356073D01*
X146772361Y-87603007D01*
X146561891Y-87812246D01*
X146294820Y-87980201D01*
X146226082Y-88012416D01*
X146132510Y-88056571D01*
X146073198Y-88089872D01*
X146062240Y-88100216D01*
X146080160Y-88133138D01*
X146131053Y-88219645D01*
X146210618Y-88352601D01*
X146314553Y-88524872D01*
X146438557Y-88729320D01*
X146578328Y-88958812D01*
X146689375Y-89140554D01*
X146838751Y-89384706D01*
X146976347Y-89609618D01*
X147097728Y-89808038D01*
X147198459Y-89972717D01*
X147274106Y-90096404D01*
X147320233Y-90171849D01*
X147332712Y-90192287D01*
X147307876Y-90204730D01*
X147227536Y-90214084D01*
X147107419Y-90218754D01*
X147069324Y-90219005D01*
X146789735Y-90219005D01*
X146681383Y-90031978D01*
X146633650Y-89949915D01*
X146556140Y-89817051D01*
X146455092Y-89644059D01*
X146336741Y-89441614D01*
X146207325Y-89220390D01*
X146098519Y-89034503D01*
X145624007Y-88224054D01*
X145095017Y-88224054D01*
X144566027Y-88224054D01*
X144566027Y-89221529D01*
X144566027Y-90219005D01*
X144316658Y-90219005D01*
X144067289Y-90219005D01*
X144067289Y-87850000D01*
X144067289Y-87313763D01*
X144555651Y-87313763D01*
X144556459Y-87506055D01*
X144558575Y-87655094D01*
X144561921Y-87751301D01*
X144566027Y-87784925D01*
X144605675Y-87789994D01*
X144704892Y-87793092D01*
X144852020Y-87794127D01*
X145035406Y-87793011D01*
X145225073Y-87790026D01*
X145462715Y-87784336D01*
X145641525Y-87777239D01*
X145773919Y-87767395D01*
X145872312Y-87753464D01*
X145949119Y-87734107D01*
X146016758Y-87707982D01*
X146026616Y-87703519D01*
X146187089Y-87602889D01*
X146333117Y-87463456D01*
X146444692Y-87306932D01*
X146491530Y-87198990D01*
X146510064Y-87094787D01*
X146520587Y-86946879D01*
X146521332Y-86782538D01*
X146520342Y-86754512D01*
X146511114Y-86597379D01*
X146495223Y-86488524D01*
X146466615Y-86404978D01*
X146419236Y-86323773D01*
X146399087Y-86294483D01*
X146298337Y-86175047D01*
X146177201Y-86081233D01*
X146026985Y-86010544D01*
X145838997Y-85960479D01*
X145604544Y-85928542D01*
X145314934Y-85912233D01*
X145057012Y-85908755D01*
X144568335Y-85908486D01*
X144558275Y-86837732D01*
X144556230Y-87087795D01*
X144555651Y-87313763D01*
X144067289Y-87313763D01*
X144067289Y-85480996D01*
X144859926Y-85481265D01*
G37*
D15*
X190650000Y-72800000D02*
X190650000Y-74300000D01*
X191900000Y-76800000D02*
X196400000Y-76800000D01*
X196400000Y-70300000D02*
X191900000Y-70300000D01*
X197650000Y-74300000D02*
X197650000Y-72800000D01*
X181630000Y-48830000D02*
X188170000Y-48830000D01*
X181630000Y-49160000D02*
X181630000Y-48830000D01*
X181630000Y-51240000D02*
X181630000Y-51570000D01*
X181630000Y-51570000D02*
X188170000Y-51570000D01*
X188170000Y-48830000D02*
X188170000Y-49160000D01*
X188170000Y-51570000D02*
X188170000Y-51240000D01*
X190400000Y-84150000D02*
X190400000Y-85650000D01*
X191650000Y-88150000D02*
X196150000Y-88150000D01*
X196150000Y-81650000D02*
X191650000Y-81650000D01*
X197400000Y-85650000D02*
X197400000Y-84150000D01*
X179330000Y-71030000D02*
X179645000Y-71030000D01*
X179330000Y-75970000D02*
X179330000Y-71030000D01*
X179330000Y-75970000D02*
X179645000Y-75970000D01*
X181755000Y-71030000D02*
X182070000Y-71030000D01*
X181755000Y-75970000D02*
X182070000Y-75970000D01*
X182070000Y-75970000D02*
X182070000Y-71030000D01*
X187470000Y-65670000D02*
X187140000Y-65670000D01*
X187470000Y-59130000D02*
X187470000Y-65670000D01*
X187140000Y-59130000D02*
X187470000Y-59130000D01*
X185060000Y-59130000D02*
X184730000Y-59130000D01*
X184730000Y-65670000D02*
X185060000Y-65670000D01*
X184730000Y-59130000D02*
X184730000Y-65670000D01*
X190400000Y-61650000D02*
X190400000Y-63150000D01*
X191650000Y-65650000D02*
X196150000Y-65650000D01*
X196150000Y-59150000D02*
X191650000Y-59150000D01*
X197400000Y-63150000D02*
X197400000Y-61650000D01*
X194155000Y-54530000D02*
X197245000Y-54530000D01*
X194155170Y-54530000D02*
G75*
G02*
X195700462Y-48980000I1544830J2560000D01*
G01*
X195699538Y-48980000D02*
G75*
G02*
X197244830Y-54530000I462J-2990000D01*
G01*
X198200000Y-51970000D02*
G75*
G02*
X193200000Y-51970000I-2500000J0D01*
G01*
X193200000Y-51970000D02*
G75*
G02*
X198200000Y-51970000I2500000J0D01*
G01*
X184930000Y-70540000D02*
X184930000Y-77080000D01*
X184930000Y-77080000D02*
X185260000Y-77080000D01*
X185260000Y-70540000D02*
X184930000Y-70540000D01*
X187340000Y-70540000D02*
X187670000Y-70540000D01*
X187670000Y-70540000D02*
X187670000Y-77080000D01*
X187670000Y-77080000D02*
X187340000Y-77080000D01*
D13*
X142400000Y-92600000D02*
X128400000Y-92600000D01*
X142400000Y-78600000D02*
X142400000Y-92600000D01*
X128400000Y-92600000D02*
X128400000Y-78600000D01*
X128400000Y-78600000D02*
X142400000Y-78600000D01*
D15*
X158050000Y-49920000D02*
X158050000Y-93360000D01*
X158050000Y-49920000D02*
X163130000Y-49920000D01*
X158050000Y-93360000D02*
X176090000Y-93360000D01*
X160720000Y-52590000D02*
X158050000Y-52590000D01*
X160720000Y-90690000D02*
X158050000Y-90690000D01*
X160720000Y-90690000D02*
X160720000Y-52590000D01*
X163130000Y-47380000D02*
X171010000Y-47380000D01*
X163130000Y-57800000D02*
X163130000Y-47380000D01*
X171010000Y-47380000D02*
X171010000Y-57800000D01*
X171010000Y-57800000D02*
X163130000Y-57800000D01*
X173420000Y-52590000D02*
X176090000Y-52590000D01*
X173420000Y-88150000D02*
X173420000Y-52590000D01*
X173420000Y-88150000D02*
X173420000Y-90690000D01*
X173420000Y-88150000D02*
X176090000Y-88150000D01*
X173420000Y-90690000D02*
X176090000Y-90690000D01*
X176090000Y-49920000D02*
X171010000Y-49920000D01*
X176090000Y-88150000D02*
X176090000Y-49920000D01*
X176090000Y-93360000D02*
X176090000Y-90690000D01*
X179230000Y-59830000D02*
X179545000Y-59830000D01*
X179230000Y-64770000D02*
X179230000Y-59830000D01*
X179230000Y-64770000D02*
X179545000Y-64770000D01*
X181655000Y-59830000D02*
X181970000Y-59830000D01*
X181655000Y-64770000D02*
X181970000Y-64770000D01*
X181970000Y-64770000D02*
X181970000Y-59830000D01*
X179030000Y-82730000D02*
X179345000Y-82730000D01*
X179030000Y-87670000D02*
X179030000Y-82730000D01*
X179030000Y-87670000D02*
X179345000Y-87670000D01*
X181455000Y-82730000D02*
X181770000Y-82730000D01*
X181455000Y-87670000D02*
X181770000Y-87670000D01*
X181770000Y-87670000D02*
X181770000Y-82730000D01*
X184930000Y-81540000D02*
X184930000Y-88080000D01*
X184930000Y-88080000D02*
X185260000Y-88080000D01*
X185260000Y-81540000D02*
X184930000Y-81540000D01*
X187340000Y-81540000D02*
X187670000Y-81540000D01*
X187670000Y-81540000D02*
X187670000Y-88080000D01*
X187670000Y-88080000D02*
X187340000Y-88080000D01*
D13*
X127600000Y-48400000D02*
X155600000Y-48400000D01*
X127600000Y-76400000D02*
X127600000Y-48400000D01*
X155600000Y-48400000D02*
X155600000Y-76400000D01*
X155600000Y-76400000D02*
X127600000Y-76400000D01*
X127600000Y-48400000D02*
X155600000Y-48400000D01*
X155600000Y-76400000D01*
X127600000Y-76400000D01*
X127600000Y-48400000D01*
%LPC*%
D16*
X190900000Y-71300000D03*
X197400000Y-71300000D03*
X190900000Y-75800000D03*
X197400000Y-75800000D03*
D17*
X181090000Y-50200000D03*
D18*
X188710000Y-50200000D03*
D16*
X190650000Y-82650000D03*
X197150000Y-82650000D03*
X190650000Y-87150000D03*
X197150000Y-87150000D03*
D17*
X180700000Y-76000000D03*
X180700000Y-71000000D03*
D18*
X186100000Y-66210000D03*
D17*
X186100000Y-58590000D03*
D16*
X190650000Y-60150000D03*
X197150000Y-60150000D03*
X190650000Y-64650000D03*
X197150000Y-64650000D03*
D19*
X195700000Y-53240000D03*
D20*
X195700000Y-50700000D03*
D17*
X186300000Y-70000000D03*
D18*
X186300000Y-77620000D03*
D21*
X140480000Y-80100000D03*
X137940000Y-80100000D03*
X135400000Y-80100000D03*
X132860000Y-80100000D03*
D22*
X130320000Y-80100000D03*
D23*
X174690000Y-89420000D03*
D18*
X174690000Y-86880000D03*
X174690000Y-84340000D03*
X174690000Y-81800000D03*
X174690000Y-79260000D03*
X174690000Y-76720000D03*
X174690000Y-74180000D03*
X174690000Y-71640000D03*
X174690000Y-69100000D03*
X174690000Y-66560000D03*
X174690000Y-64020000D03*
X174690000Y-61480000D03*
X174690000Y-58940000D03*
X174690000Y-56400000D03*
X174690000Y-53860000D03*
X159450000Y-53860000D03*
X159450000Y-56400000D03*
X159450000Y-58940000D03*
X159450000Y-61480000D03*
X159450000Y-64020000D03*
X159450000Y-66560000D03*
X159450000Y-69100000D03*
X159450000Y-71640000D03*
X159450000Y-74180000D03*
X159450000Y-76720000D03*
X159450000Y-79260000D03*
X159450000Y-81800000D03*
X159450000Y-84340000D03*
X159450000Y-86880000D03*
X159450000Y-89420000D03*
D17*
X180600000Y-64800000D03*
X180600000Y-59800000D03*
X180400000Y-87700000D03*
X180400000Y-82700000D03*
X186300000Y-81000000D03*
D18*
X186300000Y-88620000D03*
D22*
X135530000Y-50470000D03*
D21*
X139030000Y-50470000D03*
X142530000Y-50470000D03*
X146030000Y-50470000D03*
%LPD*%
M02*
