G04 #@! TF.GenerationSoftware,KiCad,Pcbnew,8.0.5*
G04 #@! TF.CreationDate,2024-10-27T13:37:52-04:00*
G04 #@! TF.ProjectId,Project1,50726f6a-6563-4743-912e-6b696361645f,rev?*
G04 #@! TF.SameCoordinates,Original*
G04 #@! TF.FileFunction,Copper,L1,Top*
G04 #@! TF.FilePolarity,Positive*
%FSLAX46Y46*%
G04 Gerber Fmt 4.6, Leading zero omitted, Abs format (unit mm)*
G04 Created by KiCad (PCBNEW 8.0.5) date 2024-10-27 13:37:52*
%MOMM*%
%LPD*%
G01*
G04 APERTURE LIST*
G04 #@! TA.AperFunction,ComponentPad*
%ADD10C,2.000000*%
G04 #@! TD*
G04 #@! TA.AperFunction,ComponentPad*
%ADD11C,1.600000*%
G04 #@! TD*
G04 #@! TA.AperFunction,ComponentPad*
%ADD12O,1.600000X1.600000*%
G04 #@! TD*
G04 #@! TA.AperFunction,ComponentPad*
%ADD13R,1.800000X1.800000*%
G04 #@! TD*
G04 #@! TA.AperFunction,ComponentPad*
%ADD14C,1.800000*%
G04 #@! TD*
G04 #@! TA.AperFunction,ComponentPad*
%ADD15C,1.524000*%
G04 #@! TD*
G04 #@! TA.AperFunction,ComponentPad*
%ADD16R,1.524000X1.524000*%
G04 #@! TD*
G04 #@! TA.AperFunction,ComponentPad*
%ADD17R,1.600000X1.600000*%
G04 #@! TD*
G04 #@! TA.AperFunction,ViaPad*
%ADD18C,0.600000*%
G04 #@! TD*
G04 #@! TA.AperFunction,Conductor*
%ADD19C,0.200000*%
G04 #@! TD*
G04 #@! TA.AperFunction,Conductor*
%ADD20C,0.400000*%
G04 #@! TD*
G04 APERTURE END LIST*
D10*
X190900000Y-71300000D03*
X197400000Y-71300000D03*
X190900000Y-75800000D03*
X197400000Y-75800000D03*
D11*
X181090000Y-50200000D03*
D12*
X188710000Y-50200000D03*
D10*
X190650000Y-82650000D03*
X197150000Y-82650000D03*
X190650000Y-87150000D03*
X197150000Y-87150000D03*
D11*
X180700000Y-76000000D03*
X180700000Y-71000000D03*
D12*
X186100000Y-66210000D03*
D11*
X186100000Y-58590000D03*
D10*
X190650000Y-60150000D03*
X197150000Y-60150000D03*
X190650000Y-64650000D03*
X197150000Y-64650000D03*
D13*
X195700000Y-53240000D03*
D14*
X195700000Y-50700000D03*
D11*
X186300000Y-70000000D03*
D12*
X186300000Y-77620000D03*
D15*
X140480000Y-80100000D03*
X137940000Y-80100000D03*
X135400000Y-80100000D03*
X132860000Y-80100000D03*
D16*
X130320000Y-80100000D03*
D17*
X174690000Y-89420000D03*
D12*
X174690000Y-86880000D03*
X174690000Y-84340000D03*
X174690000Y-81800000D03*
X174690000Y-79260000D03*
X174690000Y-76720000D03*
X174690000Y-74180000D03*
X174690000Y-71640000D03*
X174690000Y-69100000D03*
X174690000Y-66560000D03*
X174690000Y-64020000D03*
X174690000Y-61480000D03*
X174690000Y-58940000D03*
X174690000Y-56400000D03*
X174690000Y-53860000D03*
X159450000Y-53860000D03*
X159450000Y-56400000D03*
X159450000Y-58940000D03*
X159450000Y-61480000D03*
X159450000Y-64020000D03*
X159450000Y-66560000D03*
X159450000Y-69100000D03*
X159450000Y-71640000D03*
X159450000Y-74180000D03*
X159450000Y-76720000D03*
X159450000Y-79260000D03*
X159450000Y-81800000D03*
X159450000Y-84340000D03*
X159450000Y-86880000D03*
X159450000Y-89420000D03*
D11*
X180600000Y-64800000D03*
X180600000Y-59800000D03*
X180400000Y-87700000D03*
X180400000Y-82700000D03*
X186300000Y-81000000D03*
D12*
X186300000Y-88620000D03*
D16*
X135530000Y-50470000D03*
D15*
X139030000Y-50470000D03*
X142530000Y-50470000D03*
X146030000Y-50470000D03*
D18*
X142500000Y-74180000D03*
X146050000Y-71600000D03*
X178223000Y-74050000D03*
X178675000Y-79125000D03*
D19*
X141360000Y-71600000D02*
X132860000Y-80100000D01*
X146050000Y-71600000D02*
X141360000Y-71600000D01*
X141320000Y-74180000D02*
X135400000Y-80100000D01*
X142500000Y-74180000D02*
X141320000Y-74180000D01*
X159460000Y-74180000D02*
X142500000Y-74180000D01*
X146090000Y-71640000D02*
X146050000Y-71600000D01*
X159460000Y-71640000D02*
X146090000Y-71640000D01*
D20*
X142180000Y-81800000D02*
X140480000Y-80100000D01*
X159460000Y-81800000D02*
X142180000Y-81800000D01*
D19*
X174830000Y-74050000D02*
X178223000Y-74050000D01*
X174700000Y-74180000D02*
X174830000Y-74050000D01*
X178540000Y-79260000D02*
X174700000Y-79260000D01*
X178675000Y-79125000D02*
X178540000Y-79260000D01*
X179980000Y-76720000D02*
X180700000Y-76000000D01*
X174700000Y-76720000D02*
X179980000Y-76720000D01*
X190650000Y-87150000D02*
X197150000Y-87150000D01*
X190900000Y-75800000D02*
X197400000Y-75800000D01*
X190650000Y-64650000D02*
X197150000Y-64650000D01*
X189080000Y-77620000D02*
X190900000Y-75800000D01*
X186300000Y-77620000D02*
X189080000Y-77620000D01*
X180700000Y-76000000D02*
X184680000Y-76000000D01*
X184680000Y-76000000D02*
X186300000Y-77620000D01*
X160487000Y-80773000D02*
X159460000Y-81800000D01*
X186073000Y-80773000D02*
X160487000Y-80773000D01*
X186300000Y-81000000D02*
X186073000Y-80773000D01*
X186100000Y-66210000D02*
X189090000Y-66210000D01*
X184690000Y-64800000D02*
X186100000Y-66210000D01*
X180600000Y-64800000D02*
X184690000Y-64800000D01*
X189090000Y-66210000D02*
X190650000Y-64650000D01*
X186300000Y-88620000D02*
X189180000Y-88620000D01*
X189180000Y-88620000D02*
X190650000Y-87150000D01*
X180400000Y-87700000D02*
X185380000Y-87700000D01*
X185380000Y-87700000D02*
X186300000Y-88620000D01*
X177430000Y-53860000D02*
X181090000Y-50200000D01*
X174700000Y-53860000D02*
X177430000Y-53860000D01*
X195200000Y-50200000D02*
X195700000Y-50700000D01*
X188710000Y-50200000D02*
X195200000Y-50200000D01*
G04 #@! TA.AperFunction,Conductor*
G36*
X141984627Y-74800185D02*
G01*
X141994903Y-74807555D01*
X141997736Y-74809814D01*
X141997738Y-74809816D01*
X142150478Y-74905789D01*
X142320745Y-74965368D01*
X142320750Y-74965369D01*
X142499996Y-74985565D01*
X142500000Y-74985565D01*
X142500004Y-74985565D01*
X142679249Y-74965369D01*
X142679252Y-74965368D01*
X142679255Y-74965368D01*
X142849522Y-74905789D01*
X143002262Y-74809816D01*
X143002267Y-74809810D01*
X143005097Y-74807555D01*
X143007275Y-74806665D01*
X143008158Y-74806111D01*
X143008255Y-74806265D01*
X143069783Y-74781145D01*
X143082412Y-74780500D01*
X158218308Y-74780500D01*
X158285347Y-74800185D01*
X158319880Y-74833374D01*
X158405480Y-74955624D01*
X158449954Y-75019141D01*
X158610858Y-75180045D01*
X158610861Y-75180047D01*
X158797266Y-75310568D01*
X158855275Y-75337618D01*
X158907714Y-75383791D01*
X158926866Y-75450984D01*
X158906650Y-75517865D01*
X158855275Y-75562382D01*
X158797267Y-75589431D01*
X158797265Y-75589432D01*
X158610858Y-75719954D01*
X158449954Y-75880858D01*
X158319432Y-76067265D01*
X158319431Y-76067267D01*
X158223261Y-76273502D01*
X158223258Y-76273511D01*
X158164366Y-76493302D01*
X158164364Y-76493313D01*
X158144532Y-76719998D01*
X158144532Y-76720001D01*
X158164364Y-76946686D01*
X158164366Y-76946697D01*
X158223258Y-77166488D01*
X158223261Y-77166497D01*
X158319431Y-77372732D01*
X158319432Y-77372734D01*
X158449954Y-77559141D01*
X158610858Y-77720045D01*
X158610861Y-77720047D01*
X158797266Y-77850568D01*
X158855275Y-77877618D01*
X158907714Y-77923791D01*
X158926866Y-77990984D01*
X158906650Y-78057865D01*
X158855275Y-78102382D01*
X158797267Y-78129431D01*
X158797265Y-78129432D01*
X158610858Y-78259954D01*
X158449954Y-78420858D01*
X158319432Y-78607265D01*
X158319431Y-78607267D01*
X158223261Y-78813502D01*
X158223258Y-78813511D01*
X158164366Y-79033302D01*
X158164364Y-79033313D01*
X158144532Y-79259998D01*
X158144532Y-79260001D01*
X158164364Y-79486686D01*
X158164366Y-79486697D01*
X158223258Y-79706488D01*
X158223261Y-79706497D01*
X158319431Y-79912732D01*
X158319432Y-79912734D01*
X158449954Y-80099141D01*
X158610858Y-80260045D01*
X158610861Y-80260047D01*
X158797266Y-80390568D01*
X158855275Y-80417618D01*
X158907714Y-80463791D01*
X158926866Y-80530984D01*
X158906650Y-80597865D01*
X158855275Y-80642382D01*
X158797267Y-80669431D01*
X158797265Y-80669432D01*
X158610858Y-80799954D01*
X158449954Y-80960858D01*
X158389902Y-81046623D01*
X158335325Y-81090248D01*
X158288327Y-81099500D01*
X142521519Y-81099500D01*
X142454480Y-81079815D01*
X142433838Y-81063181D01*
X141765951Y-80395294D01*
X141732466Y-80333971D01*
X141730104Y-80296812D01*
X141747323Y-80100000D01*
X141728070Y-79879932D01*
X141670894Y-79666550D01*
X141577534Y-79466339D01*
X141482125Y-79330080D01*
X141450827Y-79285381D01*
X141395962Y-79230516D01*
X141294620Y-79129174D01*
X141294616Y-79129171D01*
X141294615Y-79129170D01*
X141113666Y-79002468D01*
X141113662Y-79002466D01*
X141066457Y-78980454D01*
X140913450Y-78909106D01*
X140913447Y-78909105D01*
X140913445Y-78909104D01*
X140700070Y-78851930D01*
X140700062Y-78851929D01*
X140480002Y-78832677D01*
X140479998Y-78832677D01*
X140259937Y-78851929D01*
X140259929Y-78851930D01*
X140046554Y-78909104D01*
X140046548Y-78909107D01*
X139846340Y-79002465D01*
X139846338Y-79002466D01*
X139665377Y-79129175D01*
X139509175Y-79285377D01*
X139382467Y-79466337D01*
X139322105Y-79595782D01*
X139275932Y-79648221D01*
X139208738Y-79667372D01*
X139141857Y-79647156D01*
X139097341Y-79595780D01*
X139037098Y-79466589D01*
X139037097Y-79466587D01*
X138991741Y-79401811D01*
X138991740Y-79401810D01*
X138321000Y-80072551D01*
X138321000Y-80049840D01*
X138295036Y-79952939D01*
X138244876Y-79866060D01*
X138173940Y-79795124D01*
X138087061Y-79744964D01*
X137990160Y-79719000D01*
X137967446Y-79719000D01*
X138638188Y-79048258D01*
X138573411Y-79002901D01*
X138573405Y-79002898D01*
X138373284Y-78909580D01*
X138373270Y-78909575D01*
X138159986Y-78852426D01*
X138159976Y-78852424D01*
X137940001Y-78833179D01*
X137939998Y-78833179D01*
X137814797Y-78844132D01*
X137746297Y-78830365D01*
X137696114Y-78781750D01*
X137680181Y-78713721D01*
X137703557Y-78647877D01*
X137716296Y-78632938D01*
X141532416Y-74816819D01*
X141593739Y-74783334D01*
X141620097Y-74780500D01*
X141917588Y-74780500D01*
X141984627Y-74800185D01*
G37*
G04 #@! TD.AperFunction*
G04 #@! TA.AperFunction,Conductor*
G36*
X200943039Y-46019685D02*
G01*
X200988794Y-46072489D01*
X201000000Y-46124000D01*
X201000000Y-95876000D01*
X200980315Y-95943039D01*
X200927511Y-95988794D01*
X200876000Y-96000000D01*
X126124000Y-96000000D01*
X126056961Y-95980315D01*
X126011206Y-95927511D01*
X126000000Y-95876000D01*
X126000000Y-79290135D01*
X129057500Y-79290135D01*
X129057500Y-80909870D01*
X129057501Y-80909876D01*
X129063908Y-80969483D01*
X129114202Y-81104328D01*
X129114206Y-81104335D01*
X129200452Y-81219544D01*
X129200455Y-81219547D01*
X129315664Y-81305793D01*
X129315671Y-81305797D01*
X129450517Y-81356091D01*
X129450516Y-81356091D01*
X129457444Y-81356835D01*
X129510127Y-81362500D01*
X131129872Y-81362499D01*
X131189483Y-81356091D01*
X131324331Y-81305796D01*
X131439546Y-81219546D01*
X131525796Y-81104331D01*
X131576091Y-80969483D01*
X131582500Y-80909873D01*
X131582499Y-80869920D01*
X131602182Y-80802884D01*
X131654985Y-80757128D01*
X131724143Y-80747183D01*
X131787700Y-80776206D01*
X131808073Y-80798796D01*
X131889174Y-80914620D01*
X131889175Y-80914621D01*
X132045378Y-81070824D01*
X132045384Y-81070829D01*
X132226333Y-81197531D01*
X132226335Y-81197532D01*
X132226338Y-81197534D01*
X132426550Y-81290894D01*
X132639932Y-81348070D01*
X132797123Y-81361822D01*
X132859998Y-81367323D01*
X132860000Y-81367323D01*
X132860002Y-81367323D01*
X132915151Y-81362498D01*
X133080068Y-81348070D01*
X133293450Y-81290894D01*
X133493662Y-81197534D01*
X133674620Y-81070826D01*
X133830826Y-80914620D01*
X133957534Y-80733662D01*
X134017618Y-80604811D01*
X134063790Y-80552371D01*
X134130983Y-80533219D01*
X134197865Y-80553435D01*
X134242382Y-80604811D01*
X134302464Y-80733658D01*
X134302468Y-80733666D01*
X134429170Y-80914615D01*
X134429175Y-80914621D01*
X134585378Y-81070824D01*
X134585384Y-81070829D01*
X134766333Y-81197531D01*
X134766335Y-81197532D01*
X134766338Y-81197534D01*
X134966550Y-81290894D01*
X135179932Y-81348070D01*
X135337123Y-81361822D01*
X135399998Y-81367323D01*
X135400000Y-81367323D01*
X135400002Y-81367323D01*
X135455151Y-81362498D01*
X135620068Y-81348070D01*
X135833450Y-81290894D01*
X136033662Y-81197534D01*
X136214620Y-81070826D01*
X136370826Y-80914620D01*
X136497534Y-80733662D01*
X136557894Y-80604218D01*
X136604066Y-80551779D01*
X136671259Y-80532627D01*
X136738141Y-80552843D01*
X136782658Y-80604219D01*
X136842898Y-80733405D01*
X136842901Y-80733411D01*
X136888258Y-80798187D01*
X136888258Y-80798188D01*
X137559000Y-80127446D01*
X137559000Y-80150160D01*
X137584964Y-80247061D01*
X137635124Y-80333940D01*
X137706060Y-80404876D01*
X137792939Y-80455036D01*
X137889840Y-80481000D01*
X137912553Y-80481000D01*
X137241810Y-81151740D01*
X137306590Y-81197099D01*
X137306592Y-81197100D01*
X137506715Y-81290419D01*
X137506729Y-81290424D01*
X137720013Y-81347573D01*
X137720023Y-81347575D01*
X137939999Y-81366821D01*
X137940001Y-81366821D01*
X138159976Y-81347575D01*
X138159986Y-81347573D01*
X138373270Y-81290424D01*
X138373284Y-81290419D01*
X138573407Y-81197100D01*
X138573417Y-81197094D01*
X138638188Y-81151741D01*
X137967448Y-80481000D01*
X137990160Y-80481000D01*
X138087061Y-80455036D01*
X138173940Y-80404876D01*
X138244876Y-80333940D01*
X138295036Y-80247061D01*
X138321000Y-80150160D01*
X138321000Y-80127447D01*
X138991741Y-80798188D01*
X139037094Y-80733417D01*
X139037095Y-80733416D01*
X139097340Y-80604219D01*
X139143512Y-80551780D01*
X139210706Y-80532627D01*
X139277587Y-80552842D01*
X139322105Y-80604218D01*
X139382466Y-80733662D01*
X139382468Y-80733666D01*
X139509170Y-80914615D01*
X139509175Y-80914621D01*
X139665378Y-81070824D01*
X139665384Y-81070829D01*
X139846333Y-81197531D01*
X139846335Y-81197532D01*
X139846338Y-81197534D01*
X140046550Y-81290894D01*
X140259932Y-81348070D01*
X140417123Y-81361822D01*
X140479998Y-81367323D01*
X140480000Y-81367323D01*
X140480001Y-81367323D01*
X140493367Y-81366153D01*
X140676809Y-81350104D01*
X140745305Y-81363870D01*
X140775294Y-81385951D01*
X141733453Y-82344111D01*
X141733454Y-82344112D01*
X141848192Y-82420777D01*
X141975211Y-82473389D01*
X141975672Y-82473580D01*
X141975676Y-82473580D01*
X141975677Y-82473581D01*
X142111003Y-82500500D01*
X142111006Y-82500500D01*
X142111007Y-82500500D01*
X158288327Y-82500500D01*
X158355366Y-82520185D01*
X158389902Y-82553377D01*
X158449954Y-82639141D01*
X158610858Y-82800045D01*
X158610861Y-82800047D01*
X158797266Y-82930568D01*
X158854681Y-82957341D01*
X158855275Y-82957618D01*
X158907714Y-83003791D01*
X158926866Y-83070984D01*
X158906650Y-83137865D01*
X158855275Y-83182382D01*
X158797267Y-83209431D01*
X158797265Y-83209432D01*
X158610858Y-83339954D01*
X158449954Y-83500858D01*
X158319432Y-83687265D01*
X158319431Y-83687267D01*
X158223261Y-83893502D01*
X158223258Y-83893511D01*
X158164366Y-84113302D01*
X158164364Y-84113313D01*
X158144532Y-84339998D01*
X158144532Y-84340001D01*
X158164364Y-84566686D01*
X158164366Y-84566697D01*
X158223258Y-84786488D01*
X158223261Y-84786497D01*
X158319431Y-84992732D01*
X158319432Y-84992734D01*
X158449954Y-85179141D01*
X158610858Y-85340045D01*
X158610861Y-85340047D01*
X158797266Y-85470568D01*
X158855865Y-85497893D01*
X158908305Y-85544065D01*
X158927457Y-85611258D01*
X158907242Y-85678139D01*
X158855867Y-85722657D01*
X158797515Y-85749867D01*
X158611179Y-85880342D01*
X158450342Y-86041179D01*
X158319865Y-86227517D01*
X158223734Y-86433673D01*
X158223730Y-86433682D01*
X158171127Y-86629999D01*
X158171128Y-86630000D01*
X159016988Y-86630000D01*
X158984075Y-86687007D01*
X158950000Y-86814174D01*
X158950000Y-86945826D01*
X158984075Y-87072993D01*
X159016988Y-87130000D01*
X158171128Y-87130000D01*
X158223730Y-87326317D01*
X158223734Y-87326326D01*
X158319865Y-87532482D01*
X158450342Y-87718820D01*
X158611179Y-87879657D01*
X158797518Y-88010134D01*
X158797520Y-88010135D01*
X158855865Y-88037342D01*
X158908305Y-88083514D01*
X158927457Y-88150707D01*
X158907242Y-88217589D01*
X158855867Y-88262105D01*
X158797268Y-88289431D01*
X158797264Y-88289433D01*
X158610858Y-88419954D01*
X158449954Y-88580858D01*
X158319432Y-88767265D01*
X158319431Y-88767267D01*
X158223261Y-88973502D01*
X158223258Y-88973511D01*
X158164366Y-89193302D01*
X158164364Y-89193313D01*
X158144532Y-89419998D01*
X158144532Y-89420001D01*
X158164364Y-89646686D01*
X158164366Y-89646697D01*
X158223258Y-89866488D01*
X158223261Y-89866497D01*
X158319431Y-90072732D01*
X158319432Y-90072734D01*
X158449954Y-90259141D01*
X158610858Y-90420045D01*
X158610861Y-90420047D01*
X158797266Y-90550568D01*
X159003504Y-90646739D01*
X159223308Y-90705635D01*
X159385230Y-90719801D01*
X159449998Y-90725468D01*
X159450000Y-90725468D01*
X159450002Y-90725468D01*
X159506807Y-90720498D01*
X159676692Y-90705635D01*
X159896496Y-90646739D01*
X160102734Y-90550568D01*
X160289139Y-90420047D01*
X160450047Y-90259139D01*
X160580568Y-90072734D01*
X160676739Y-89866496D01*
X160735635Y-89646692D01*
X160755468Y-89420000D01*
X160735635Y-89193308D01*
X160680814Y-88988713D01*
X160676741Y-88973511D01*
X160676738Y-88973502D01*
X160654932Y-88926739D01*
X160580568Y-88767266D01*
X160450047Y-88580861D01*
X160450045Y-88580858D01*
X160289141Y-88419954D01*
X160102734Y-88289432D01*
X160102732Y-88289431D01*
X160091275Y-88284088D01*
X160044132Y-88262105D01*
X159991694Y-88215934D01*
X159972542Y-88148740D01*
X159992758Y-88081859D01*
X160044134Y-88037341D01*
X160102484Y-88010132D01*
X160288820Y-87879657D01*
X160449657Y-87718820D01*
X160580134Y-87532482D01*
X160676265Y-87326326D01*
X160676269Y-87326317D01*
X160728872Y-87130000D01*
X159883012Y-87130000D01*
X159915925Y-87072993D01*
X159950000Y-86945826D01*
X159950000Y-86814174D01*
X159915925Y-86687007D01*
X159883012Y-86630000D01*
X160728872Y-86630000D01*
X160728872Y-86629999D01*
X160676269Y-86433682D01*
X160676265Y-86433673D01*
X160580134Y-86227517D01*
X160449657Y-86041179D01*
X160288820Y-85880342D01*
X160102482Y-85749865D01*
X160044133Y-85722657D01*
X159991694Y-85676484D01*
X159972542Y-85609291D01*
X159992758Y-85542410D01*
X160044129Y-85497895D01*
X160102734Y-85470568D01*
X160289139Y-85340047D01*
X160450047Y-85179139D01*
X160580568Y-84992734D01*
X160676739Y-84786496D01*
X160735635Y-84566692D01*
X160755468Y-84340000D01*
X160735635Y-84113308D01*
X160676739Y-83893504D01*
X160580568Y-83687266D01*
X160450047Y-83500861D01*
X160450045Y-83500858D01*
X160289141Y-83339954D01*
X160102734Y-83209432D01*
X160102728Y-83209429D01*
X160044725Y-83182382D01*
X159992285Y-83136210D01*
X159973133Y-83069017D01*
X159993348Y-83002135D01*
X160044725Y-82957618D01*
X160045319Y-82957341D01*
X160102734Y-82930568D01*
X160289139Y-82800047D01*
X160450047Y-82639139D01*
X160580568Y-82452734D01*
X160676739Y-82246496D01*
X160735635Y-82026692D01*
X160755468Y-81800000D01*
X160735635Y-81573308D01*
X160723922Y-81529594D01*
X160725584Y-81459745D01*
X160764746Y-81401882D01*
X160828974Y-81374377D01*
X160843696Y-81373500D01*
X173296821Y-81373500D01*
X173363860Y-81393185D01*
X173409615Y-81445989D01*
X173419559Y-81515147D01*
X173416596Y-81529594D01*
X173411128Y-81549999D01*
X173411128Y-81550000D01*
X174256988Y-81550000D01*
X174224075Y-81607007D01*
X174190000Y-81734174D01*
X174190000Y-81865826D01*
X174224075Y-81992993D01*
X174256988Y-82050000D01*
X173411128Y-82050000D01*
X173463730Y-82246317D01*
X173463734Y-82246326D01*
X173559865Y-82452482D01*
X173690342Y-82638820D01*
X173851179Y-82799657D01*
X174037518Y-82930134D01*
X174037520Y-82930135D01*
X174095865Y-82957342D01*
X174148305Y-83003514D01*
X174167457Y-83070707D01*
X174147242Y-83137589D01*
X174095867Y-83182105D01*
X174037268Y-83209431D01*
X174037264Y-83209433D01*
X173850858Y-83339954D01*
X173689954Y-83500858D01*
X173559432Y-83687265D01*
X173559431Y-83687267D01*
X173463261Y-83893502D01*
X173463258Y-83893511D01*
X173404366Y-84113302D01*
X173404364Y-84113313D01*
X173384532Y-84339998D01*
X173384532Y-84340001D01*
X173404364Y-84566686D01*
X173404366Y-84566697D01*
X173463258Y-84786488D01*
X173463261Y-84786497D01*
X173559431Y-84992732D01*
X173559432Y-84992734D01*
X173689954Y-85179141D01*
X173850858Y-85340045D01*
X173850861Y-85340047D01*
X174037266Y-85470568D01*
X174095275Y-85497618D01*
X174147714Y-85543791D01*
X174166866Y-85610984D01*
X174146650Y-85677865D01*
X174095275Y-85722382D01*
X174037267Y-85749431D01*
X174037265Y-85749432D01*
X173850858Y-85879954D01*
X173689954Y-86040858D01*
X173559432Y-86227265D01*
X173559431Y-86227267D01*
X173463261Y-86433502D01*
X173463258Y-86433511D01*
X173404366Y-86653302D01*
X173404364Y-86653313D01*
X173384532Y-86879998D01*
X173384532Y-86880001D01*
X173404364Y-87106686D01*
X173404366Y-87106697D01*
X173463258Y-87326488D01*
X173463261Y-87326497D01*
X173559431Y-87532732D01*
X173559432Y-87532734D01*
X173689954Y-87719141D01*
X173850858Y-87880045D01*
X173875462Y-87897273D01*
X173919087Y-87951849D01*
X173926281Y-88021348D01*
X173894758Y-88083703D01*
X173834529Y-88119117D01*
X173817593Y-88122138D01*
X173782516Y-88125908D01*
X173647671Y-88176202D01*
X173647664Y-88176206D01*
X173532455Y-88262452D01*
X173532452Y-88262455D01*
X173446206Y-88377664D01*
X173446202Y-88377671D01*
X173395908Y-88512517D01*
X173389804Y-88569298D01*
X173389501Y-88572123D01*
X173389500Y-88572135D01*
X173389500Y-90267870D01*
X173389501Y-90267876D01*
X173395908Y-90327483D01*
X173446202Y-90462328D01*
X173446206Y-90462335D01*
X173532452Y-90577544D01*
X173532455Y-90577547D01*
X173647664Y-90663793D01*
X173647671Y-90663797D01*
X173782517Y-90714091D01*
X173782516Y-90714091D01*
X173789444Y-90714835D01*
X173842127Y-90720500D01*
X175537872Y-90720499D01*
X175597483Y-90714091D01*
X175732331Y-90663796D01*
X175847546Y-90577546D01*
X175933796Y-90462331D01*
X175984091Y-90327483D01*
X175990500Y-90267873D01*
X175990499Y-88572128D01*
X175984091Y-88512517D01*
X175949567Y-88419954D01*
X175933797Y-88377671D01*
X175933793Y-88377664D01*
X175847547Y-88262455D01*
X175847544Y-88262452D01*
X175732335Y-88176206D01*
X175732328Y-88176202D01*
X175597482Y-88125908D01*
X175597483Y-88125908D01*
X175562404Y-88122137D01*
X175497853Y-88095399D01*
X175458005Y-88038006D01*
X175455512Y-87968181D01*
X175491165Y-87908092D01*
X175504539Y-87897272D01*
X175529140Y-87880046D01*
X175690045Y-87719141D01*
X175690047Y-87719139D01*
X175703450Y-87699998D01*
X179094532Y-87699998D01*
X179094532Y-87700001D01*
X179114364Y-87926686D01*
X179114366Y-87926697D01*
X179173258Y-88146488D01*
X179173261Y-88146497D01*
X179269431Y-88352732D01*
X179269432Y-88352734D01*
X179399954Y-88539141D01*
X179560858Y-88700045D01*
X179560861Y-88700047D01*
X179747266Y-88830568D01*
X179953504Y-88926739D01*
X180173308Y-88985635D01*
X180335230Y-88999801D01*
X180399998Y-89005468D01*
X180400000Y-89005468D01*
X180400002Y-89005468D01*
X180456673Y-89000509D01*
X180626692Y-88985635D01*
X180846496Y-88926739D01*
X181052734Y-88830568D01*
X181239139Y-88700047D01*
X181400047Y-88539139D01*
X181530118Y-88353375D01*
X181584693Y-88309752D01*
X181631692Y-88300500D01*
X184887163Y-88300500D01*
X184954202Y-88320185D01*
X184999957Y-88372989D01*
X185010690Y-88435305D01*
X184997956Y-88580861D01*
X184994532Y-88619999D01*
X184994532Y-88620001D01*
X185014364Y-88846686D01*
X185014366Y-88846697D01*
X185073258Y-89066488D01*
X185073261Y-89066497D01*
X185169431Y-89272732D01*
X185169432Y-89272734D01*
X185299954Y-89459141D01*
X185460858Y-89620045D01*
X185460861Y-89620047D01*
X185647266Y-89750568D01*
X185853504Y-89846739D01*
X186073308Y-89905635D01*
X186235230Y-89919801D01*
X186299998Y-89925468D01*
X186300000Y-89925468D01*
X186300002Y-89925468D01*
X186356673Y-89920509D01*
X186526692Y-89905635D01*
X186746496Y-89846739D01*
X186952734Y-89750568D01*
X187139139Y-89620047D01*
X187300047Y-89459139D01*
X187430118Y-89273375D01*
X187484693Y-89229752D01*
X187531692Y-89220500D01*
X189093331Y-89220500D01*
X189093347Y-89220501D01*
X189100943Y-89220501D01*
X189259054Y-89220501D01*
X189259057Y-89220501D01*
X189411785Y-89179577D01*
X189461904Y-89150639D01*
X189548716Y-89100520D01*
X189660520Y-88988716D01*
X189660520Y-88988714D01*
X189670728Y-88978507D01*
X189670730Y-88978504D01*
X190046452Y-88602781D01*
X190107773Y-88569298D01*
X190174392Y-88573182D01*
X190246350Y-88597886D01*
X190280385Y-88609571D01*
X190525665Y-88650500D01*
X190774335Y-88650500D01*
X191019614Y-88609571D01*
X191254810Y-88528828D01*
X191473509Y-88410474D01*
X191669744Y-88257738D01*
X191838164Y-88074785D01*
X191974173Y-87866607D01*
X191992560Y-87824689D01*
X192037517Y-87771204D01*
X192104253Y-87750514D01*
X192106116Y-87750500D01*
X195693884Y-87750500D01*
X195760923Y-87770185D01*
X195806678Y-87822989D01*
X195807440Y-87824689D01*
X195825827Y-87866608D01*
X195961833Y-88074782D01*
X195991252Y-88106739D01*
X196130256Y-88257738D01*
X196326491Y-88410474D01*
X196545190Y-88528828D01*
X196780386Y-88609571D01*
X197025665Y-88650500D01*
X197274335Y-88650500D01*
X197519614Y-88609571D01*
X197754810Y-88528828D01*
X197973509Y-88410474D01*
X198169744Y-88257738D01*
X198338164Y-88074785D01*
X198474173Y-87866607D01*
X198574063Y-87638881D01*
X198635108Y-87397821D01*
X198636694Y-87378681D01*
X198655643Y-87150005D01*
X198655643Y-87149994D01*
X198635109Y-86902187D01*
X198635107Y-86902175D01*
X198574063Y-86661118D01*
X198474173Y-86433393D01*
X198338166Y-86225217D01*
X198316557Y-86201744D01*
X198169744Y-86042262D01*
X197973509Y-85889526D01*
X197973507Y-85889525D01*
X197973506Y-85889524D01*
X197754811Y-85771172D01*
X197754802Y-85771169D01*
X197519616Y-85690429D01*
X197274335Y-85649500D01*
X197025665Y-85649500D01*
X196780383Y-85690429D01*
X196545197Y-85771169D01*
X196545188Y-85771172D01*
X196326493Y-85889524D01*
X196130257Y-86042261D01*
X195961833Y-86225217D01*
X195825827Y-86433391D01*
X195807440Y-86475311D01*
X195762483Y-86528796D01*
X195695747Y-86549486D01*
X195693884Y-86549500D01*
X192106116Y-86549500D01*
X192039077Y-86529815D01*
X191993322Y-86477011D01*
X191992560Y-86475311D01*
X191974172Y-86433391D01*
X191838166Y-86225217D01*
X191816557Y-86201744D01*
X191669744Y-86042262D01*
X191473509Y-85889526D01*
X191473507Y-85889525D01*
X191473506Y-85889524D01*
X191254811Y-85771172D01*
X191254802Y-85771169D01*
X191019616Y-85690429D01*
X190774335Y-85649500D01*
X190525665Y-85649500D01*
X190280383Y-85690429D01*
X190045197Y-85771169D01*
X190045188Y-85771172D01*
X189826493Y-85889524D01*
X189630257Y-86042261D01*
X189461833Y-86225217D01*
X189325826Y-86433393D01*
X189225936Y-86661118D01*
X189164892Y-86902175D01*
X189164890Y-86902187D01*
X189144357Y-87149994D01*
X189144357Y-87150005D01*
X189164890Y-87397812D01*
X189164892Y-87397824D01*
X189226007Y-87639160D01*
X189223382Y-87708980D01*
X189193482Y-87757281D01*
X188967582Y-87983182D01*
X188906262Y-88016666D01*
X188879903Y-88019500D01*
X187531692Y-88019500D01*
X187464653Y-87999815D01*
X187430119Y-87966625D01*
X187300047Y-87780861D01*
X187300045Y-87780858D01*
X187139141Y-87619954D01*
X186952734Y-87489432D01*
X186952732Y-87489431D01*
X186746497Y-87393261D01*
X186746488Y-87393258D01*
X186526697Y-87334366D01*
X186526693Y-87334365D01*
X186526692Y-87334365D01*
X186526691Y-87334364D01*
X186526686Y-87334364D01*
X186300002Y-87314532D01*
X186299998Y-87314532D01*
X186073313Y-87334364D01*
X186073302Y-87334366D01*
X185977068Y-87360152D01*
X185907218Y-87358489D01*
X185857294Y-87328058D01*
X185748717Y-87219481D01*
X185748716Y-87219480D01*
X185661904Y-87169360D01*
X185661904Y-87169359D01*
X185661900Y-87169358D01*
X185611785Y-87140423D01*
X185459057Y-87099499D01*
X185300943Y-87099499D01*
X185293347Y-87099499D01*
X185293331Y-87099500D01*
X181631692Y-87099500D01*
X181564653Y-87079815D01*
X181530119Y-87046625D01*
X181400047Y-86860861D01*
X181400045Y-86860858D01*
X181239141Y-86699954D01*
X181052734Y-86569432D01*
X181052732Y-86569431D01*
X180846497Y-86473261D01*
X180846488Y-86473258D01*
X180626697Y-86414366D01*
X180626693Y-86414365D01*
X180626692Y-86414365D01*
X180626691Y-86414364D01*
X180626686Y-86414364D01*
X180400002Y-86394532D01*
X180399998Y-86394532D01*
X180173313Y-86414364D01*
X180173302Y-86414366D01*
X179953511Y-86473258D01*
X179953502Y-86473261D01*
X179747267Y-86569431D01*
X179747265Y-86569432D01*
X179560858Y-86699954D01*
X179399954Y-86860858D01*
X179269432Y-87047265D01*
X179269431Y-87047267D01*
X179173261Y-87253502D01*
X179173258Y-87253511D01*
X179114366Y-87473302D01*
X179114364Y-87473313D01*
X179094532Y-87699998D01*
X175703450Y-87699998D01*
X175820568Y-87532734D01*
X175916739Y-87326496D01*
X175975635Y-87106692D01*
X175995468Y-86880000D01*
X175975635Y-86653308D01*
X175916739Y-86433504D01*
X175820568Y-86227266D01*
X175690047Y-86040861D01*
X175690045Y-86040858D01*
X175529141Y-85879954D01*
X175342734Y-85749432D01*
X175342728Y-85749429D01*
X175284725Y-85722382D01*
X175232285Y-85676210D01*
X175213133Y-85609017D01*
X175233348Y-85542135D01*
X175284725Y-85497618D01*
X175342734Y-85470568D01*
X175529139Y-85340047D01*
X175690047Y-85179139D01*
X175820568Y-84992734D01*
X175916739Y-84786496D01*
X175975635Y-84566692D01*
X175995468Y-84340000D01*
X175975635Y-84113308D01*
X175916739Y-83893504D01*
X175820568Y-83687266D01*
X175690047Y-83500861D01*
X175690045Y-83500858D01*
X175529141Y-83339954D01*
X175342734Y-83209432D01*
X175342732Y-83209431D01*
X175284725Y-83182382D01*
X175284132Y-83182105D01*
X175231694Y-83135934D01*
X175212542Y-83068740D01*
X175232758Y-83001859D01*
X175284134Y-82957341D01*
X175342484Y-82930132D01*
X175528820Y-82799657D01*
X175689657Y-82638820D01*
X175820134Y-82452482D01*
X175916265Y-82246326D01*
X175916269Y-82246317D01*
X175968872Y-82050000D01*
X175123012Y-82050000D01*
X175155925Y-81992993D01*
X175190000Y-81865826D01*
X175190000Y-81734174D01*
X175155925Y-81607007D01*
X175123012Y-81550000D01*
X175968872Y-81550000D01*
X175968871Y-81549999D01*
X175963404Y-81529594D01*
X175965067Y-81459744D01*
X176004229Y-81401881D01*
X176068457Y-81374377D01*
X176083179Y-81373500D01*
X179634678Y-81373500D01*
X179701717Y-81393185D01*
X179747472Y-81445989D01*
X179757416Y-81515147D01*
X179728391Y-81578703D01*
X179705801Y-81599075D01*
X179674526Y-81620973D01*
X179674526Y-81620974D01*
X180353553Y-82300000D01*
X180347339Y-82300000D01*
X180245606Y-82327259D01*
X180154394Y-82379920D01*
X180079920Y-82454394D01*
X180027259Y-82545606D01*
X180000000Y-82647339D01*
X180000000Y-82653552D01*
X179320974Y-81974526D01*
X179320973Y-81974526D01*
X179269868Y-82047512D01*
X179269866Y-82047516D01*
X179173734Y-82253673D01*
X179173730Y-82253682D01*
X179114860Y-82473389D01*
X179114858Y-82473400D01*
X179095034Y-82699997D01*
X179095034Y-82700002D01*
X179114858Y-82926599D01*
X179114860Y-82926610D01*
X179173730Y-83146317D01*
X179173735Y-83146331D01*
X179269863Y-83352478D01*
X179320974Y-83425472D01*
X180000000Y-82746446D01*
X180000000Y-82752661D01*
X180027259Y-82854394D01*
X180079920Y-82945606D01*
X180154394Y-83020080D01*
X180245606Y-83072741D01*
X180347339Y-83100000D01*
X180353553Y-83100000D01*
X179674526Y-83779025D01*
X179747513Y-83830132D01*
X179747521Y-83830136D01*
X179953668Y-83926264D01*
X179953682Y-83926269D01*
X180173389Y-83985139D01*
X180173400Y-83985141D01*
X180399998Y-84004966D01*
X180400002Y-84004966D01*
X180626599Y-83985141D01*
X180626610Y-83985139D01*
X180846317Y-83926269D01*
X180846331Y-83926264D01*
X181052478Y-83830136D01*
X181125471Y-83779024D01*
X180446447Y-83100000D01*
X180452661Y-83100000D01*
X180554394Y-83072741D01*
X180645606Y-83020080D01*
X180720080Y-82945606D01*
X180772741Y-82854394D01*
X180800000Y-82752661D01*
X180800000Y-82746447D01*
X181479024Y-83425471D01*
X181530136Y-83352478D01*
X181626264Y-83146331D01*
X181626269Y-83146317D01*
X181685139Y-82926610D01*
X181685141Y-82926599D01*
X181704966Y-82700002D01*
X181704966Y-82699997D01*
X181700591Y-82649994D01*
X189144859Y-82649994D01*
X189144859Y-82650005D01*
X189165385Y-82897729D01*
X189165387Y-82897738D01*
X189226412Y-83138717D01*
X189326266Y-83366364D01*
X189426564Y-83519882D01*
X190126212Y-82820234D01*
X190137482Y-82862292D01*
X190209890Y-82987708D01*
X190312292Y-83090110D01*
X190437708Y-83162518D01*
X190479765Y-83173787D01*
X189779942Y-83873609D01*
X189826768Y-83910055D01*
X189826770Y-83910056D01*
X190045385Y-84028364D01*
X190045396Y-84028369D01*
X190280506Y-84109083D01*
X190525707Y-84150000D01*
X190774293Y-84150000D01*
X191019493Y-84109083D01*
X191254603Y-84028369D01*
X191254614Y-84028364D01*
X191473228Y-83910057D01*
X191473231Y-83910055D01*
X191520056Y-83873609D01*
X190820234Y-83173787D01*
X190862292Y-83162518D01*
X190987708Y-83090110D01*
X191090110Y-82987708D01*
X191162518Y-82862292D01*
X191173787Y-82820234D01*
X191873434Y-83519882D01*
X191973731Y-83366369D01*
X192073587Y-83138717D01*
X192134612Y-82897738D01*
X192134614Y-82897729D01*
X192155141Y-82650005D01*
X192155141Y-82649994D01*
X195644859Y-82649994D01*
X195644859Y-82650005D01*
X195665385Y-82897729D01*
X195665387Y-82897738D01*
X195726412Y-83138717D01*
X195826266Y-83366364D01*
X195926564Y-83519882D01*
X196626212Y-82820234D01*
X196637482Y-82862292D01*
X196709890Y-82987708D01*
X196812292Y-83090110D01*
X196937708Y-83162518D01*
X196979765Y-83173787D01*
X196279942Y-83873609D01*
X196326768Y-83910055D01*
X196326770Y-83910056D01*
X196545385Y-84028364D01*
X196545396Y-84028369D01*
X196780506Y-84109083D01*
X197025707Y-84150000D01*
X197274293Y-84150000D01*
X197519493Y-84109083D01*
X197754603Y-84028369D01*
X197754614Y-84028364D01*
X197973228Y-83910057D01*
X197973231Y-83910055D01*
X198020056Y-83873609D01*
X197320234Y-83173787D01*
X197362292Y-83162518D01*
X197487708Y-83090110D01*
X197590110Y-82987708D01*
X197662518Y-82862292D01*
X197673787Y-82820234D01*
X198373434Y-83519882D01*
X198473731Y-83366369D01*
X198573587Y-83138717D01*
X198634612Y-82897738D01*
X198634614Y-82897729D01*
X198655141Y-82650005D01*
X198655141Y-82649994D01*
X198634614Y-82402270D01*
X198634612Y-82402261D01*
X198573587Y-82161282D01*
X198473731Y-81933630D01*
X198373434Y-81780116D01*
X197673787Y-82479764D01*
X197662518Y-82437708D01*
X197590110Y-82312292D01*
X197487708Y-82209890D01*
X197362292Y-82137482D01*
X197320235Y-82126212D01*
X198020057Y-81426390D01*
X198020056Y-81426389D01*
X197973229Y-81389943D01*
X197754614Y-81271635D01*
X197754603Y-81271630D01*
X197519493Y-81190916D01*
X197274293Y-81150000D01*
X197025707Y-81150000D01*
X196780506Y-81190916D01*
X196545396Y-81271630D01*
X196545390Y-81271632D01*
X196326761Y-81389949D01*
X196279942Y-81426388D01*
X196279942Y-81426390D01*
X196979765Y-82126212D01*
X196937708Y-82137482D01*
X196812292Y-82209890D01*
X196709890Y-82312292D01*
X196637482Y-82437708D01*
X196626212Y-82479764D01*
X195926564Y-81780116D01*
X195826267Y-81933632D01*
X195726412Y-82161282D01*
X195665387Y-82402261D01*
X195665385Y-82402270D01*
X195644859Y-82649994D01*
X192155141Y-82649994D01*
X192134614Y-82402270D01*
X192134612Y-82402261D01*
X192073587Y-82161282D01*
X191973731Y-81933630D01*
X191873434Y-81780116D01*
X191173787Y-82479764D01*
X191162518Y-82437708D01*
X191090110Y-82312292D01*
X190987708Y-82209890D01*
X190862292Y-82137482D01*
X190820235Y-82126212D01*
X191520057Y-81426390D01*
X191520056Y-81426389D01*
X191473229Y-81389943D01*
X191254614Y-81271635D01*
X191254603Y-81271630D01*
X191019493Y-81190916D01*
X190774293Y-81150000D01*
X190525707Y-81150000D01*
X190280506Y-81190916D01*
X190045396Y-81271630D01*
X190045390Y-81271632D01*
X189826761Y-81389949D01*
X189779942Y-81426388D01*
X189779942Y-81426390D01*
X190479765Y-82126212D01*
X190437708Y-82137482D01*
X190312292Y-82209890D01*
X190209890Y-82312292D01*
X190137482Y-82437708D01*
X190126212Y-82479764D01*
X189426564Y-81780116D01*
X189326267Y-81933632D01*
X189226412Y-82161282D01*
X189165387Y-82402261D01*
X189165385Y-82402270D01*
X189144859Y-82649994D01*
X181700591Y-82649994D01*
X181685141Y-82473400D01*
X181685139Y-82473389D01*
X181626269Y-82253682D01*
X181626264Y-82253668D01*
X181530136Y-82047521D01*
X181530132Y-82047513D01*
X181479025Y-81974526D01*
X180800000Y-82653551D01*
X180800000Y-82647339D01*
X180772741Y-82545606D01*
X180720080Y-82454394D01*
X180645606Y-82379920D01*
X180554394Y-82327259D01*
X180452661Y-82300000D01*
X180446448Y-82300000D01*
X181125472Y-81620974D01*
X181125472Y-81620973D01*
X181094197Y-81599074D01*
X181050572Y-81544497D01*
X181043380Y-81474999D01*
X181074902Y-81412644D01*
X181135133Y-81377231D01*
X181165321Y-81373500D01*
X184960226Y-81373500D01*
X185027265Y-81393185D01*
X185072608Y-81445095D01*
X185073260Y-81446494D01*
X185073261Y-81446496D01*
X185112011Y-81529595D01*
X185169431Y-81652732D01*
X185169432Y-81652734D01*
X185299954Y-81839141D01*
X185460858Y-82000045D01*
X185460861Y-82000047D01*
X185647266Y-82130568D01*
X185853504Y-82226739D01*
X186073308Y-82285635D01*
X186235230Y-82299801D01*
X186299998Y-82305468D01*
X186300000Y-82305468D01*
X186300002Y-82305468D01*
X186362499Y-82300000D01*
X186526692Y-82285635D01*
X186746496Y-82226739D01*
X186952734Y-82130568D01*
X187139139Y-82000047D01*
X187300047Y-81839139D01*
X187430568Y-81652734D01*
X187526739Y-81446496D01*
X187585635Y-81226692D01*
X187605468Y-81000000D01*
X187585635Y-80773308D01*
X187526739Y-80553504D01*
X187430568Y-80347266D01*
X187300047Y-80160861D01*
X187300045Y-80160858D01*
X187139141Y-79999954D01*
X186952734Y-79869432D01*
X186952732Y-79869431D01*
X186746497Y-79773261D01*
X186746488Y-79773258D01*
X186526697Y-79714366D01*
X186526693Y-79714365D01*
X186526692Y-79714365D01*
X186526691Y-79714364D01*
X186526686Y-79714364D01*
X186300002Y-79694532D01*
X186299998Y-79694532D01*
X186073313Y-79714364D01*
X186073302Y-79714366D01*
X185853511Y-79773258D01*
X185853502Y-79773261D01*
X185647267Y-79869431D01*
X185647265Y-79869432D01*
X185460862Y-79999951D01*
X185417230Y-80043584D01*
X185324631Y-80136182D01*
X185263311Y-80169666D01*
X185236952Y-80172500D01*
X178735794Y-80172500D01*
X178670582Y-80153351D01*
X178635600Y-80170640D01*
X178614206Y-80172500D01*
X175876880Y-80172500D01*
X175809841Y-80152815D01*
X175764086Y-80100011D01*
X175754142Y-80030853D01*
X175775304Y-79977378D01*
X175792416Y-79952939D01*
X175820118Y-79913376D01*
X175874693Y-79869752D01*
X175921692Y-79860500D01*
X178332161Y-79860500D01*
X178373116Y-79867459D01*
X178495737Y-79910366D01*
X178495743Y-79910367D01*
X178495745Y-79910368D01*
X178495746Y-79910368D01*
X178495750Y-79910369D01*
X178628089Y-79925280D01*
X178676081Y-79945446D01*
X178700859Y-79929523D01*
X178721911Y-79925280D01*
X178854249Y-79910369D01*
X178854252Y-79910368D01*
X178854255Y-79910368D01*
X179024522Y-79850789D01*
X179177262Y-79754816D01*
X179304816Y-79627262D01*
X179400789Y-79474522D01*
X179460368Y-79304255D01*
X179461960Y-79290127D01*
X179480565Y-79125003D01*
X179480565Y-79124996D01*
X179460369Y-78945750D01*
X179460368Y-78945745D01*
X179440760Y-78889708D01*
X179400789Y-78775478D01*
X179385136Y-78750567D01*
X179315546Y-78639815D01*
X179304816Y-78622738D01*
X179177262Y-78495184D01*
X179119897Y-78459139D01*
X179024523Y-78399211D01*
X178854254Y-78339631D01*
X178854249Y-78339630D01*
X178675004Y-78319435D01*
X178674996Y-78319435D01*
X178495750Y-78339630D01*
X178495745Y-78339631D01*
X178325476Y-78399211D01*
X178172737Y-78495184D01*
X178044741Y-78623181D01*
X177983418Y-78656666D01*
X177957060Y-78659500D01*
X175921692Y-78659500D01*
X175854653Y-78639815D01*
X175820119Y-78606625D01*
X175690047Y-78420861D01*
X175690045Y-78420858D01*
X175529141Y-78259954D01*
X175342734Y-78129432D01*
X175342728Y-78129429D01*
X175284725Y-78102382D01*
X175232285Y-78056210D01*
X175213133Y-77989017D01*
X175233348Y-77922135D01*
X175284725Y-77877618D01*
X175342734Y-77850568D01*
X175529139Y-77720047D01*
X175690047Y-77559139D01*
X175820118Y-77373375D01*
X175874693Y-77329752D01*
X175921692Y-77320500D01*
X179893331Y-77320500D01*
X179893347Y-77320501D01*
X179900943Y-77320501D01*
X180059054Y-77320501D01*
X180059057Y-77320501D01*
X180211785Y-77279577D01*
X180243031Y-77261535D01*
X180310929Y-77245060D01*
X180337123Y-77249144D01*
X180473308Y-77285635D01*
X180635230Y-77299801D01*
X180699998Y-77305468D01*
X180700000Y-77305468D01*
X180700002Y-77305468D01*
X180756784Y-77300500D01*
X180926692Y-77285635D01*
X181146496Y-77226739D01*
X181352734Y-77130568D01*
X181539139Y-77000047D01*
X181700047Y-76839139D01*
X181830118Y-76653375D01*
X181884693Y-76609752D01*
X181931692Y-76600500D01*
X184379903Y-76600500D01*
X184446942Y-76620185D01*
X184467584Y-76636819D01*
X185008058Y-77177293D01*
X185041543Y-77238616D01*
X185040152Y-77297067D01*
X185014366Y-77393302D01*
X185014364Y-77393313D01*
X184994532Y-77619998D01*
X184994532Y-77620001D01*
X185014364Y-77846686D01*
X185014366Y-77846697D01*
X185073258Y-78066488D01*
X185073261Y-78066497D01*
X185169431Y-78272732D01*
X185169432Y-78272734D01*
X185299954Y-78459141D01*
X185460858Y-78620045D01*
X185479250Y-78632923D01*
X185647266Y-78750568D01*
X185853504Y-78846739D01*
X185853509Y-78846740D01*
X185853511Y-78846741D01*
X185874721Y-78852424D01*
X186073308Y-78905635D01*
X186235230Y-78919801D01*
X186299998Y-78925468D01*
X186300000Y-78925468D01*
X186300002Y-78925468D01*
X186356673Y-78920509D01*
X186526692Y-78905635D01*
X186746496Y-78846739D01*
X186952734Y-78750568D01*
X187139139Y-78620047D01*
X187300047Y-78459139D01*
X187430118Y-78273375D01*
X187484693Y-78229752D01*
X187531692Y-78220500D01*
X188993331Y-78220500D01*
X188993347Y-78220501D01*
X189000943Y-78220501D01*
X189159054Y-78220501D01*
X189159057Y-78220501D01*
X189311785Y-78179577D01*
X189398638Y-78129432D01*
X189448716Y-78100520D01*
X189560520Y-77988716D01*
X189560520Y-77988714D01*
X189570724Y-77978511D01*
X189570728Y-77978506D01*
X190296452Y-77252781D01*
X190357773Y-77219298D01*
X190424392Y-77223182D01*
X190488118Y-77245060D01*
X190530385Y-77259571D01*
X190775665Y-77300500D01*
X191024335Y-77300500D01*
X191269614Y-77259571D01*
X191504810Y-77178828D01*
X191723509Y-77060474D01*
X191919744Y-76907738D01*
X192088164Y-76724785D01*
X192091292Y-76719998D01*
X192156654Y-76619953D01*
X192224173Y-76516607D01*
X192242560Y-76474689D01*
X192287517Y-76421204D01*
X192354253Y-76400514D01*
X192356116Y-76400500D01*
X195943884Y-76400500D01*
X196010923Y-76420185D01*
X196056678Y-76472989D01*
X196057440Y-76474689D01*
X196075827Y-76516608D01*
X196211833Y-76724782D01*
X196211836Y-76724785D01*
X196380256Y-76907738D01*
X196576491Y-77060474D01*
X196576493Y-77060475D01*
X196792353Y-77177293D01*
X196795190Y-77178828D01*
X197030386Y-77259571D01*
X197275665Y-77300500D01*
X197524335Y-77300500D01*
X197769614Y-77259571D01*
X198004810Y-77178828D01*
X198223509Y-77060474D01*
X198419744Y-76907738D01*
X198588164Y-76724785D01*
X198591292Y-76719998D01*
X198656654Y-76619953D01*
X198724173Y-76516607D01*
X198824063Y-76288881D01*
X198885108Y-76047821D01*
X198905643Y-75800000D01*
X198903431Y-75773308D01*
X198885109Y-75552187D01*
X198885107Y-75552175D01*
X198824063Y-75311118D01*
X198724173Y-75083393D01*
X198588166Y-74875217D01*
X198549649Y-74833377D01*
X198419744Y-74692262D01*
X198223509Y-74539526D01*
X198223507Y-74539525D01*
X198223506Y-74539524D01*
X198004811Y-74421172D01*
X198004802Y-74421169D01*
X197769616Y-74340429D01*
X197524335Y-74299500D01*
X197275665Y-74299500D01*
X197030383Y-74340429D01*
X196795197Y-74421169D01*
X196795188Y-74421172D01*
X196576493Y-74539524D01*
X196380257Y-74692261D01*
X196211833Y-74875217D01*
X196075827Y-75083391D01*
X196057440Y-75125311D01*
X196012483Y-75178796D01*
X195945747Y-75199486D01*
X195943884Y-75199500D01*
X192356116Y-75199500D01*
X192289077Y-75179815D01*
X192243322Y-75127011D01*
X192242560Y-75125311D01*
X192224172Y-75083391D01*
X192088166Y-74875217D01*
X192049649Y-74833377D01*
X191919744Y-74692262D01*
X191723509Y-74539526D01*
X191723507Y-74539525D01*
X191723506Y-74539524D01*
X191504811Y-74421172D01*
X191504802Y-74421169D01*
X191269616Y-74340429D01*
X191024335Y-74299500D01*
X190775665Y-74299500D01*
X190530383Y-74340429D01*
X190295197Y-74421169D01*
X190295188Y-74421172D01*
X190076493Y-74539524D01*
X189880257Y-74692261D01*
X189711833Y-74875217D01*
X189575826Y-75083393D01*
X189475936Y-75311118D01*
X189414892Y-75552175D01*
X189414890Y-75552187D01*
X189394357Y-75799994D01*
X189394357Y-75800005D01*
X189414890Y-76047812D01*
X189414892Y-76047824D01*
X189476007Y-76289160D01*
X189473382Y-76358980D01*
X189443482Y-76407281D01*
X188867584Y-76983181D01*
X188806261Y-77016666D01*
X188779903Y-77019500D01*
X187531692Y-77019500D01*
X187464653Y-76999815D01*
X187430119Y-76966625D01*
X187300047Y-76780861D01*
X187300045Y-76780858D01*
X187139141Y-76619954D01*
X186952734Y-76489432D01*
X186952732Y-76489431D01*
X186746497Y-76393261D01*
X186746488Y-76393258D01*
X186526697Y-76334366D01*
X186526693Y-76334365D01*
X186526692Y-76334365D01*
X186526691Y-76334364D01*
X186526686Y-76334364D01*
X186300002Y-76314532D01*
X186299998Y-76314532D01*
X186073313Y-76334364D01*
X186073302Y-76334366D01*
X185977067Y-76360152D01*
X185907217Y-76358489D01*
X185857293Y-76328058D01*
X185167590Y-75638355D01*
X185167588Y-75638352D01*
X185048717Y-75519481D01*
X185048716Y-75519480D01*
X184955453Y-75465635D01*
X184955452Y-75465634D01*
X184911790Y-75440425D01*
X184911787Y-75440423D01*
X184850693Y-75424053D01*
X184759057Y-75399499D01*
X184600943Y-75399499D01*
X184593347Y-75399499D01*
X184593331Y-75399500D01*
X181931692Y-75399500D01*
X181864653Y-75379815D01*
X181830119Y-75346625D01*
X181700047Y-75160861D01*
X181700045Y-75160858D01*
X181539141Y-74999954D01*
X181352734Y-74869432D01*
X181352732Y-74869431D01*
X181146497Y-74773261D01*
X181146488Y-74773258D01*
X180926697Y-74714366D01*
X180926693Y-74714365D01*
X180926692Y-74714365D01*
X180926691Y-74714364D01*
X180926686Y-74714364D01*
X180700002Y-74694532D01*
X180699998Y-74694532D01*
X180473313Y-74714364D01*
X180473302Y-74714366D01*
X180253511Y-74773258D01*
X180253502Y-74773261D01*
X180047267Y-74869431D01*
X180047265Y-74869432D01*
X179860858Y-74999954D01*
X179699954Y-75160858D01*
X179569432Y-75347265D01*
X179569431Y-75347267D01*
X179473261Y-75553502D01*
X179473258Y-75553511D01*
X179414366Y-75773302D01*
X179414364Y-75773313D01*
X179394060Y-76005393D01*
X179391688Y-76005185D01*
X179374847Y-76062539D01*
X179322043Y-76108294D01*
X179270532Y-76119500D01*
X175921692Y-76119500D01*
X175854653Y-76099815D01*
X175820119Y-76066625D01*
X175690047Y-75880861D01*
X175690045Y-75880858D01*
X175529141Y-75719954D01*
X175342734Y-75589432D01*
X175342728Y-75589429D01*
X175284725Y-75562382D01*
X175232285Y-75516210D01*
X175213133Y-75449017D01*
X175233348Y-75382135D01*
X175284725Y-75337618D01*
X175342734Y-75310568D01*
X175529139Y-75180047D01*
X175690047Y-75019139D01*
X175820568Y-74832734D01*
X175872160Y-74722094D01*
X175918332Y-74669656D01*
X175984542Y-74650500D01*
X177640588Y-74650500D01*
X177707627Y-74670185D01*
X177717903Y-74677555D01*
X177720736Y-74679814D01*
X177720738Y-74679816D01*
X177788025Y-74722095D01*
X177869454Y-74773261D01*
X177873478Y-74775789D01*
X177961717Y-74806665D01*
X178043745Y-74835368D01*
X178043750Y-74835369D01*
X178222996Y-74855565D01*
X178223000Y-74855565D01*
X178223004Y-74855565D01*
X178402249Y-74835369D01*
X178402252Y-74835368D01*
X178402255Y-74835368D01*
X178572522Y-74775789D01*
X178725262Y-74679816D01*
X178852816Y-74552262D01*
X178948789Y-74399522D01*
X179008368Y-74229255D01*
X179028565Y-74050000D01*
X179017671Y-73953313D01*
X179008369Y-73870750D01*
X179008368Y-73870745D01*
X178960345Y-73733504D01*
X178948789Y-73700478D01*
X178852816Y-73547738D01*
X178725262Y-73420184D01*
X178687765Y-73396623D01*
X178572523Y-73324211D01*
X178402254Y-73264631D01*
X178402249Y-73264630D01*
X178223004Y-73244435D01*
X178222996Y-73244435D01*
X178043750Y-73264630D01*
X178043745Y-73264631D01*
X177873476Y-73324211D01*
X177720736Y-73420185D01*
X177717903Y-73422445D01*
X177715724Y-73423334D01*
X177714842Y-73423889D01*
X177714744Y-73423734D01*
X177653217Y-73448855D01*
X177640588Y-73449500D01*
X175830667Y-73449500D01*
X175763628Y-73429815D01*
X175729092Y-73396623D01*
X175690045Y-73340858D01*
X175529141Y-73179954D01*
X175342734Y-73049432D01*
X175342728Y-73049429D01*
X175284725Y-73022382D01*
X175232285Y-72976210D01*
X175213133Y-72909017D01*
X175233348Y-72842135D01*
X175284725Y-72797618D01*
X175342734Y-72770568D01*
X175529139Y-72640047D01*
X175690047Y-72479139D01*
X175820568Y-72292734D01*
X175916739Y-72086496D01*
X175975635Y-71866692D01*
X175995468Y-71640000D01*
X175995267Y-71637708D01*
X175975635Y-71413313D01*
X175975635Y-71413308D01*
X175916739Y-71193504D01*
X175826505Y-70999997D01*
X179395034Y-70999997D01*
X179395034Y-71000002D01*
X179414858Y-71226599D01*
X179414860Y-71226610D01*
X179473730Y-71446317D01*
X179473735Y-71446331D01*
X179569863Y-71652478D01*
X179620974Y-71725472D01*
X180300000Y-71046446D01*
X180300000Y-71052661D01*
X180327259Y-71154394D01*
X180379920Y-71245606D01*
X180454394Y-71320080D01*
X180545606Y-71372741D01*
X180647339Y-71400000D01*
X180653553Y-71400000D01*
X179974526Y-72079025D01*
X180047513Y-72130132D01*
X180047521Y-72130136D01*
X180253668Y-72226264D01*
X180253682Y-72226269D01*
X180473389Y-72285139D01*
X180473400Y-72285141D01*
X180699998Y-72304966D01*
X180700002Y-72304966D01*
X180926599Y-72285141D01*
X180926610Y-72285139D01*
X181146317Y-72226269D01*
X181146331Y-72226264D01*
X181352478Y-72130136D01*
X181425471Y-72079024D01*
X180746447Y-71400000D01*
X180752661Y-71400000D01*
X180854394Y-71372741D01*
X180945606Y-71320080D01*
X181020080Y-71245606D01*
X181072741Y-71154394D01*
X181100000Y-71052661D01*
X181100000Y-71046447D01*
X181779024Y-71725471D01*
X181830136Y-71652478D01*
X181926264Y-71446331D01*
X181926269Y-71446317D01*
X181985139Y-71226610D01*
X181985141Y-71226599D01*
X182004966Y-71000002D01*
X182004966Y-70999997D01*
X181985141Y-70773400D01*
X181985139Y-70773389D01*
X181926269Y-70553682D01*
X181926264Y-70553668D01*
X181830136Y-70347521D01*
X181830132Y-70347513D01*
X181779025Y-70274526D01*
X181100000Y-70953551D01*
X181100000Y-70947339D01*
X181072741Y-70845606D01*
X181020080Y-70754394D01*
X180945606Y-70679920D01*
X180854394Y-70627259D01*
X180752661Y-70600000D01*
X180746448Y-70600000D01*
X181346448Y-69999998D01*
X184994532Y-69999998D01*
X184994532Y-70000001D01*
X185014364Y-70226686D01*
X185014366Y-70226697D01*
X185073258Y-70446488D01*
X185073261Y-70446497D01*
X185169431Y-70652732D01*
X185169432Y-70652734D01*
X185299954Y-70839141D01*
X185460858Y-71000045D01*
X185460861Y-71000047D01*
X185647266Y-71130568D01*
X185853504Y-71226739D01*
X185853509Y-71226740D01*
X185853511Y-71226741D01*
X185906415Y-71240916D01*
X186073308Y-71285635D01*
X186235230Y-71299801D01*
X186299998Y-71305468D01*
X186300000Y-71305468D01*
X186300002Y-71305468D01*
X186362568Y-71299994D01*
X189394859Y-71299994D01*
X189394859Y-71300005D01*
X189415385Y-71547729D01*
X189415387Y-71547738D01*
X189476412Y-71788717D01*
X189576266Y-72016364D01*
X189676564Y-72169882D01*
X190376212Y-71470234D01*
X190387482Y-71512292D01*
X190459890Y-71637708D01*
X190562292Y-71740110D01*
X190687708Y-71812518D01*
X190729765Y-71823787D01*
X190029942Y-72523609D01*
X190076768Y-72560055D01*
X190076770Y-72560056D01*
X190295385Y-72678364D01*
X190295396Y-72678369D01*
X190530506Y-72759083D01*
X190775707Y-72800000D01*
X191024293Y-72800000D01*
X191269493Y-72759083D01*
X191504603Y-72678369D01*
X191504614Y-72678364D01*
X191723228Y-72560057D01*
X191723231Y-72560055D01*
X191770056Y-72523609D01*
X191070234Y-71823787D01*
X191112292Y-71812518D01*
X191237708Y-71740110D01*
X191340110Y-71637708D01*
X191412518Y-71512292D01*
X191423787Y-71470234D01*
X192123434Y-72169882D01*
X192223731Y-72016369D01*
X192323587Y-71788717D01*
X192384612Y-71547738D01*
X192384614Y-71547729D01*
X192405141Y-71300005D01*
X192405141Y-71299994D01*
X195894859Y-71299994D01*
X195894859Y-71300005D01*
X195915385Y-71547729D01*
X195915387Y-71547738D01*
X195976412Y-71788717D01*
X196076266Y-72016364D01*
X196176564Y-72169882D01*
X196876212Y-71470234D01*
X196887482Y-71512292D01*
X196959890Y-71637708D01*
X197062292Y-71740110D01*
X197187708Y-71812518D01*
X197229765Y-71823787D01*
X196529942Y-72523609D01*
X196576768Y-72560055D01*
X196576770Y-72560056D01*
X196795385Y-72678364D01*
X196795396Y-72678369D01*
X197030506Y-72759083D01*
X197275707Y-72800000D01*
X197524293Y-72800000D01*
X197769493Y-72759083D01*
X198004603Y-72678369D01*
X198004614Y-72678364D01*
X198223228Y-72560057D01*
X198223231Y-72560055D01*
X198270056Y-72523609D01*
X197570234Y-71823787D01*
X197612292Y-71812518D01*
X197737708Y-71740110D01*
X197840110Y-71637708D01*
X197912518Y-71512292D01*
X197923787Y-71470234D01*
X198623434Y-72169882D01*
X198723731Y-72016369D01*
X198823587Y-71788717D01*
X198884612Y-71547738D01*
X198884614Y-71547729D01*
X198905141Y-71300005D01*
X198905141Y-71299994D01*
X198884614Y-71052270D01*
X198884612Y-71052261D01*
X198823587Y-70811282D01*
X198723731Y-70583630D01*
X198623434Y-70430116D01*
X197923787Y-71129764D01*
X197912518Y-71087708D01*
X197840110Y-70962292D01*
X197737708Y-70859890D01*
X197612292Y-70787482D01*
X197570235Y-70776212D01*
X198270057Y-70076390D01*
X198270056Y-70076389D01*
X198223229Y-70039943D01*
X198004614Y-69921635D01*
X198004603Y-69921630D01*
X197769493Y-69840916D01*
X197524293Y-69800000D01*
X197275707Y-69800000D01*
X197030506Y-69840916D01*
X196795396Y-69921630D01*
X196795390Y-69921632D01*
X196576761Y-70039949D01*
X196529942Y-70076388D01*
X196529942Y-70076390D01*
X197229765Y-70776212D01*
X197187708Y-70787482D01*
X197062292Y-70859890D01*
X196959890Y-70962292D01*
X196887482Y-71087708D01*
X196876212Y-71129764D01*
X196176564Y-70430116D01*
X196076267Y-70583632D01*
X195976412Y-70811282D01*
X195915387Y-71052261D01*
X195915385Y-71052270D01*
X195894859Y-71299994D01*
X192405141Y-71299994D01*
X192384614Y-71052270D01*
X192384612Y-71052261D01*
X192323587Y-70811282D01*
X192223731Y-70583630D01*
X192123434Y-70430116D01*
X191423787Y-71129764D01*
X191412518Y-71087708D01*
X191340110Y-70962292D01*
X191237708Y-70859890D01*
X191112292Y-70787482D01*
X191070235Y-70776212D01*
X191770057Y-70076390D01*
X191770056Y-70076389D01*
X191723229Y-70039943D01*
X191504614Y-69921635D01*
X191504603Y-69921630D01*
X191269493Y-69840916D01*
X191024293Y-69800000D01*
X190775707Y-69800000D01*
X190530506Y-69840916D01*
X190295396Y-69921630D01*
X190295390Y-69921632D01*
X190076761Y-70039949D01*
X190029942Y-70076388D01*
X190029942Y-70076390D01*
X190729765Y-70776212D01*
X190687708Y-70787482D01*
X190562292Y-70859890D01*
X190459890Y-70962292D01*
X190387482Y-71087708D01*
X190376212Y-71129764D01*
X189676564Y-70430116D01*
X189576267Y-70583632D01*
X189476412Y-70811282D01*
X189415387Y-71052261D01*
X189415385Y-71052270D01*
X189394859Y-71299994D01*
X186362568Y-71299994D01*
X186526692Y-71285635D01*
X186746496Y-71226739D01*
X186952734Y-71130568D01*
X187139139Y-71000047D01*
X187300047Y-70839139D01*
X187430568Y-70652734D01*
X187526739Y-70446496D01*
X187585635Y-70226692D01*
X187605468Y-70000000D01*
X187585635Y-69773308D01*
X187526739Y-69553504D01*
X187430568Y-69347266D01*
X187300047Y-69160861D01*
X187300045Y-69160858D01*
X187139141Y-68999954D01*
X186952734Y-68869432D01*
X186952732Y-68869431D01*
X186746497Y-68773261D01*
X186746488Y-68773258D01*
X186526697Y-68714366D01*
X186526693Y-68714365D01*
X186526692Y-68714365D01*
X186526691Y-68714364D01*
X186526686Y-68714364D01*
X186300002Y-68694532D01*
X186299998Y-68694532D01*
X186073313Y-68714364D01*
X186073302Y-68714366D01*
X185853511Y-68773258D01*
X185853502Y-68773261D01*
X185647267Y-68869431D01*
X185647265Y-68869432D01*
X185460858Y-68999954D01*
X185299954Y-69160858D01*
X185169432Y-69347265D01*
X185169431Y-69347267D01*
X185073261Y-69553502D01*
X185073258Y-69553511D01*
X185014366Y-69773302D01*
X185014364Y-69773313D01*
X184994532Y-69999998D01*
X181346448Y-69999998D01*
X181425472Y-69920974D01*
X181352478Y-69869863D01*
X181146331Y-69773735D01*
X181146317Y-69773730D01*
X180926610Y-69714860D01*
X180926599Y-69714858D01*
X180700002Y-69695034D01*
X180699998Y-69695034D01*
X180473400Y-69714858D01*
X180473389Y-69714860D01*
X180253682Y-69773730D01*
X180253673Y-69773734D01*
X180047516Y-69869866D01*
X180047512Y-69869868D01*
X179974526Y-69920973D01*
X179974526Y-69920974D01*
X180653553Y-70600000D01*
X180647339Y-70600000D01*
X180545606Y-70627259D01*
X180454394Y-70679920D01*
X180379920Y-70754394D01*
X180327259Y-70845606D01*
X180300000Y-70947339D01*
X180300000Y-70953552D01*
X179620974Y-70274526D01*
X179620973Y-70274526D01*
X179569868Y-70347512D01*
X179569866Y-70347516D01*
X179473734Y-70553673D01*
X179473730Y-70553682D01*
X179414860Y-70773389D01*
X179414858Y-70773400D01*
X179395034Y-70999997D01*
X175826505Y-70999997D01*
X175820568Y-70987266D01*
X175716849Y-70839139D01*
X175690045Y-70800858D01*
X175529141Y-70639954D01*
X175342734Y-70509432D01*
X175342728Y-70509429D01*
X175284725Y-70482382D01*
X175232285Y-70436210D01*
X175213133Y-70369017D01*
X175233348Y-70302135D01*
X175284725Y-70257618D01*
X175342734Y-70230568D01*
X175529139Y-70100047D01*
X175690047Y-69939139D01*
X175820568Y-69752734D01*
X175916739Y-69546496D01*
X175975635Y-69326692D01*
X175995468Y-69100000D01*
X175975635Y-68873308D01*
X175916739Y-68653504D01*
X175820568Y-68447266D01*
X175690047Y-68260861D01*
X175690045Y-68260858D01*
X175529141Y-68099954D01*
X175342734Y-67969432D01*
X175342728Y-67969429D01*
X175284725Y-67942382D01*
X175232285Y-67896210D01*
X175213133Y-67829017D01*
X175233348Y-67762135D01*
X175284725Y-67717618D01*
X175342734Y-67690568D01*
X175529139Y-67560047D01*
X175690047Y-67399139D01*
X175820568Y-67212734D01*
X175916739Y-67006496D01*
X175975635Y-66786692D01*
X175995468Y-66560000D01*
X175975635Y-66333308D01*
X175916739Y-66113504D01*
X175820568Y-65907266D01*
X175690047Y-65720861D01*
X175690045Y-65720858D01*
X175529141Y-65559954D01*
X175342734Y-65429432D01*
X175342728Y-65429429D01*
X175284725Y-65402382D01*
X175232285Y-65356210D01*
X175213133Y-65289017D01*
X175233348Y-65222135D01*
X175284725Y-65177618D01*
X175342734Y-65150568D01*
X175529139Y-65020047D01*
X175690047Y-64859139D01*
X175731458Y-64799998D01*
X179294532Y-64799998D01*
X179294532Y-64800001D01*
X179314364Y-65026686D01*
X179314366Y-65026697D01*
X179373258Y-65246488D01*
X179373261Y-65246497D01*
X179469431Y-65452732D01*
X179469432Y-65452734D01*
X179599954Y-65639141D01*
X179760858Y-65800045D01*
X179760861Y-65800047D01*
X179947266Y-65930568D01*
X180153504Y-66026739D01*
X180153509Y-66026740D01*
X180153511Y-66026741D01*
X180206415Y-66040916D01*
X180373308Y-66085635D01*
X180535230Y-66099801D01*
X180599998Y-66105468D01*
X180600000Y-66105468D01*
X180600002Y-66105468D01*
X180656673Y-66100509D01*
X180826692Y-66085635D01*
X181046496Y-66026739D01*
X181252734Y-65930568D01*
X181439139Y-65800047D01*
X181600047Y-65639139D01*
X181730118Y-65453375D01*
X181784693Y-65409752D01*
X181831692Y-65400500D01*
X184389903Y-65400500D01*
X184456942Y-65420185D01*
X184477584Y-65436819D01*
X184808058Y-65767293D01*
X184841543Y-65828616D01*
X184840152Y-65887067D01*
X184814366Y-65983302D01*
X184814364Y-65983313D01*
X184794532Y-66209998D01*
X184794532Y-66210001D01*
X184814364Y-66436686D01*
X184814366Y-66436697D01*
X184873258Y-66656488D01*
X184873261Y-66656497D01*
X184969431Y-66862732D01*
X184969432Y-66862734D01*
X185099954Y-67049141D01*
X185260858Y-67210045D01*
X185264698Y-67212734D01*
X185447266Y-67340568D01*
X185653504Y-67436739D01*
X185873308Y-67495635D01*
X186035230Y-67509801D01*
X186099998Y-67515468D01*
X186100000Y-67515468D01*
X186100002Y-67515468D01*
X186156673Y-67510509D01*
X186326692Y-67495635D01*
X186546496Y-67436739D01*
X186752734Y-67340568D01*
X186939139Y-67210047D01*
X187100047Y-67049139D01*
X187230118Y-66863375D01*
X187284693Y-66819752D01*
X187331692Y-66810500D01*
X189003331Y-66810500D01*
X189003347Y-66810501D01*
X189010943Y-66810501D01*
X189169054Y-66810501D01*
X189169057Y-66810501D01*
X189321785Y-66769577D01*
X189371904Y-66740639D01*
X189458716Y-66690520D01*
X189570520Y-66578716D01*
X189570520Y-66578714D01*
X189580728Y-66568507D01*
X189580730Y-66568504D01*
X190046452Y-66102781D01*
X190107773Y-66069298D01*
X190174392Y-66073182D01*
X190246350Y-66097886D01*
X190280385Y-66109571D01*
X190525665Y-66150500D01*
X190774335Y-66150500D01*
X191019614Y-66109571D01*
X191254810Y-66028828D01*
X191473509Y-65910474D01*
X191669744Y-65757738D01*
X191838164Y-65574785D01*
X191974173Y-65366607D01*
X191992560Y-65324689D01*
X192037517Y-65271204D01*
X192104253Y-65250514D01*
X192106116Y-65250500D01*
X195693884Y-65250500D01*
X195760923Y-65270185D01*
X195806678Y-65322989D01*
X195807440Y-65324689D01*
X195825827Y-65366608D01*
X195961833Y-65574782D01*
X195993793Y-65609500D01*
X196130256Y-65757738D01*
X196326491Y-65910474D01*
X196435840Y-65969651D01*
X196541333Y-66026741D01*
X196545190Y-66028828D01*
X196780386Y-66109571D01*
X197025665Y-66150500D01*
X197274335Y-66150500D01*
X197519614Y-66109571D01*
X197754810Y-66028828D01*
X197973509Y-65910474D01*
X198169744Y-65757738D01*
X198338164Y-65574785D01*
X198474173Y-65366607D01*
X198574063Y-65138881D01*
X198635108Y-64897821D01*
X198638313Y-64859141D01*
X198655643Y-64650005D01*
X198655643Y-64649994D01*
X198635109Y-64402187D01*
X198635107Y-64402175D01*
X198574063Y-64161118D01*
X198474173Y-63933393D01*
X198338166Y-63725217D01*
X198286811Y-63669431D01*
X198169744Y-63542262D01*
X197973509Y-63389526D01*
X197973507Y-63389525D01*
X197973506Y-63389524D01*
X197754811Y-63271172D01*
X197754802Y-63271169D01*
X197519616Y-63190429D01*
X197274335Y-63149500D01*
X197025665Y-63149500D01*
X196780383Y-63190429D01*
X196545197Y-63271169D01*
X196545188Y-63271172D01*
X196326493Y-63389524D01*
X196130257Y-63542261D01*
X195961833Y-63725217D01*
X195825827Y-63933391D01*
X195807440Y-63975311D01*
X195762483Y-64028796D01*
X195695747Y-64049486D01*
X195693884Y-64049500D01*
X192106116Y-64049500D01*
X192039077Y-64029815D01*
X191993322Y-63977011D01*
X191992560Y-63975311D01*
X191974172Y-63933391D01*
X191838166Y-63725217D01*
X191786811Y-63669431D01*
X191669744Y-63542262D01*
X191473509Y-63389526D01*
X191473507Y-63389525D01*
X191473506Y-63389524D01*
X191254811Y-63271172D01*
X191254802Y-63271169D01*
X191019616Y-63190429D01*
X190774335Y-63149500D01*
X190525665Y-63149500D01*
X190280383Y-63190429D01*
X190045197Y-63271169D01*
X190045188Y-63271172D01*
X189826493Y-63389524D01*
X189630257Y-63542261D01*
X189461833Y-63725217D01*
X189325826Y-63933393D01*
X189225936Y-64161118D01*
X189164892Y-64402175D01*
X189164890Y-64402187D01*
X189144357Y-64649994D01*
X189144357Y-64650005D01*
X189164890Y-64897812D01*
X189164892Y-64897824D01*
X189226007Y-65139160D01*
X189223382Y-65208980D01*
X189193482Y-65257281D01*
X188877582Y-65573182D01*
X188816261Y-65606666D01*
X188789903Y-65609500D01*
X187331692Y-65609500D01*
X187264653Y-65589815D01*
X187230119Y-65556625D01*
X187100047Y-65370861D01*
X187100045Y-65370858D01*
X186939141Y-65209954D01*
X186752734Y-65079432D01*
X186752732Y-65079431D01*
X186546497Y-64983261D01*
X186546488Y-64983258D01*
X186326697Y-64924366D01*
X186326693Y-64924365D01*
X186326692Y-64924365D01*
X186326691Y-64924364D01*
X186326686Y-64924364D01*
X186100002Y-64904532D01*
X186099998Y-64904532D01*
X185873313Y-64924364D01*
X185873302Y-64924366D01*
X185777067Y-64950152D01*
X185707217Y-64948489D01*
X185657293Y-64918058D01*
X185177590Y-64438355D01*
X185177588Y-64438352D01*
X185058717Y-64319481D01*
X185058716Y-64319480D01*
X184971904Y-64269360D01*
X184971904Y-64269359D01*
X184971900Y-64269358D01*
X184921785Y-64240423D01*
X184769057Y-64199499D01*
X184610943Y-64199499D01*
X184603347Y-64199499D01*
X184603331Y-64199500D01*
X181831692Y-64199500D01*
X181764653Y-64179815D01*
X181730119Y-64146625D01*
X181600047Y-63960861D01*
X181600045Y-63960858D01*
X181439141Y-63799954D01*
X181252734Y-63669432D01*
X181252732Y-63669431D01*
X181046497Y-63573261D01*
X181046488Y-63573258D01*
X180826697Y-63514366D01*
X180826693Y-63514365D01*
X180826692Y-63514365D01*
X180826691Y-63514364D01*
X180826686Y-63514364D01*
X180600002Y-63494532D01*
X180599998Y-63494532D01*
X180373313Y-63514364D01*
X180373302Y-63514366D01*
X180153511Y-63573258D01*
X180153502Y-63573261D01*
X179947267Y-63669431D01*
X179947265Y-63669432D01*
X179760858Y-63799954D01*
X179599954Y-63960858D01*
X179469432Y-64147265D01*
X179469431Y-64147267D01*
X179373261Y-64353502D01*
X179373258Y-64353511D01*
X179314366Y-64573302D01*
X179314364Y-64573313D01*
X179294532Y-64799998D01*
X175731458Y-64799998D01*
X175820568Y-64672734D01*
X175916739Y-64466496D01*
X175975635Y-64246692D01*
X175994609Y-64029815D01*
X175995468Y-64020001D01*
X175995468Y-64019998D01*
X175975635Y-63793313D01*
X175975635Y-63793308D01*
X175916739Y-63573504D01*
X175820568Y-63367266D01*
X175690047Y-63180861D01*
X175690045Y-63180858D01*
X175529141Y-63019954D01*
X175342734Y-62889432D01*
X175342728Y-62889429D01*
X175284725Y-62862382D01*
X175232285Y-62816210D01*
X175213133Y-62749017D01*
X175233348Y-62682135D01*
X175284725Y-62637618D01*
X175342734Y-62610568D01*
X175529139Y-62480047D01*
X175690047Y-62319139D01*
X175820568Y-62132734D01*
X175916739Y-61926496D01*
X175975635Y-61706692D01*
X175995468Y-61480000D01*
X175975635Y-61253308D01*
X175916739Y-61033504D01*
X175820568Y-60827266D01*
X175690047Y-60640861D01*
X175690045Y-60640858D01*
X175529141Y-60479954D01*
X175342734Y-60349432D01*
X175342728Y-60349429D01*
X175284725Y-60322382D01*
X175232285Y-60276210D01*
X175213133Y-60209017D01*
X175233348Y-60142135D01*
X175284725Y-60097618D01*
X175342734Y-60070568D01*
X175529139Y-59940047D01*
X175669189Y-59799997D01*
X179295034Y-59799997D01*
X179295034Y-59800002D01*
X179314858Y-60026599D01*
X179314860Y-60026610D01*
X179373730Y-60246317D01*
X179373735Y-60246331D01*
X179469863Y-60452478D01*
X179520974Y-60525472D01*
X180200000Y-59846446D01*
X180200000Y-59852661D01*
X180227259Y-59954394D01*
X180279920Y-60045606D01*
X180354394Y-60120080D01*
X180445606Y-60172741D01*
X180547339Y-60200000D01*
X180553553Y-60200000D01*
X179874526Y-60879025D01*
X179947513Y-60930132D01*
X179947521Y-60930136D01*
X180153668Y-61026264D01*
X180153682Y-61026269D01*
X180373389Y-61085139D01*
X180373400Y-61085141D01*
X180599998Y-61104966D01*
X180600002Y-61104966D01*
X180826599Y-61085141D01*
X180826610Y-61085139D01*
X181046317Y-61026269D01*
X181046331Y-61026264D01*
X181252478Y-60930136D01*
X181325471Y-60879024D01*
X180646447Y-60200000D01*
X180652661Y-60200000D01*
X180754394Y-60172741D01*
X180845606Y-60120080D01*
X180920080Y-60045606D01*
X180972741Y-59954394D01*
X181000000Y-59852661D01*
X181000000Y-59846447D01*
X181679024Y-60525471D01*
X181730136Y-60452478D01*
X181826264Y-60246331D01*
X181826269Y-60246317D01*
X181852079Y-60149994D01*
X189144859Y-60149994D01*
X189144859Y-60150005D01*
X189165385Y-60397729D01*
X189165387Y-60397738D01*
X189226412Y-60638717D01*
X189326266Y-60866364D01*
X189426564Y-61019882D01*
X190126212Y-60320234D01*
X190137482Y-60362292D01*
X190209890Y-60487708D01*
X190312292Y-60590110D01*
X190437708Y-60662518D01*
X190479765Y-60673787D01*
X189779942Y-61373609D01*
X189826768Y-61410055D01*
X189826770Y-61410056D01*
X190045385Y-61528364D01*
X190045396Y-61528369D01*
X190280506Y-61609083D01*
X190525707Y-61650000D01*
X190774293Y-61650000D01*
X191019493Y-61609083D01*
X191254603Y-61528369D01*
X191254614Y-61528364D01*
X191473228Y-61410057D01*
X191473231Y-61410055D01*
X191520056Y-61373609D01*
X190820234Y-60673787D01*
X190862292Y-60662518D01*
X190987708Y-60590110D01*
X191090110Y-60487708D01*
X191162518Y-60362292D01*
X191173787Y-60320235D01*
X191873434Y-61019882D01*
X191973731Y-60866369D01*
X192073587Y-60638717D01*
X192134612Y-60397738D01*
X192134614Y-60397729D01*
X192155141Y-60150005D01*
X192155141Y-60149994D01*
X195644859Y-60149994D01*
X195644859Y-60150005D01*
X195665385Y-60397729D01*
X195665387Y-60397738D01*
X195726412Y-60638717D01*
X195826266Y-60866364D01*
X195926564Y-61019882D01*
X196626212Y-60320234D01*
X196637482Y-60362292D01*
X196709890Y-60487708D01*
X196812292Y-60590110D01*
X196937708Y-60662518D01*
X196979765Y-60673787D01*
X196279942Y-61373609D01*
X196326768Y-61410055D01*
X196326770Y-61410056D01*
X196545385Y-61528364D01*
X196545396Y-61528369D01*
X196780506Y-61609083D01*
X197025707Y-61650000D01*
X197274293Y-61650000D01*
X197519493Y-61609083D01*
X197754603Y-61528369D01*
X197754614Y-61528364D01*
X197973228Y-61410057D01*
X197973231Y-61410055D01*
X198020056Y-61373609D01*
X197320234Y-60673787D01*
X197362292Y-60662518D01*
X197487708Y-60590110D01*
X197590110Y-60487708D01*
X197662518Y-60362292D01*
X197673787Y-60320235D01*
X198373434Y-61019882D01*
X198473731Y-60866369D01*
X198573587Y-60638717D01*
X198634612Y-60397738D01*
X198634614Y-60397729D01*
X198655141Y-60150005D01*
X198655141Y-60149994D01*
X198634614Y-59902270D01*
X198634612Y-59902261D01*
X198573587Y-59661282D01*
X198473731Y-59433630D01*
X198373434Y-59280116D01*
X197673787Y-59979764D01*
X197662518Y-59937708D01*
X197590110Y-59812292D01*
X197487708Y-59709890D01*
X197362292Y-59637482D01*
X197320235Y-59626212D01*
X198020057Y-58926390D01*
X198020056Y-58926389D01*
X197973229Y-58889943D01*
X197754614Y-58771635D01*
X197754603Y-58771630D01*
X197519493Y-58690916D01*
X197274293Y-58650000D01*
X197025707Y-58650000D01*
X196780506Y-58690916D01*
X196545396Y-58771630D01*
X196545390Y-58771632D01*
X196326761Y-58889949D01*
X196279942Y-58926388D01*
X196279942Y-58926390D01*
X196979765Y-59626212D01*
X196937708Y-59637482D01*
X196812292Y-59709890D01*
X196709890Y-59812292D01*
X196637482Y-59937708D01*
X196626212Y-59979764D01*
X195926564Y-59280116D01*
X195826267Y-59433632D01*
X195726412Y-59661282D01*
X195665387Y-59902261D01*
X195665385Y-59902270D01*
X195644859Y-60149994D01*
X192155141Y-60149994D01*
X192134614Y-59902270D01*
X192134612Y-59902261D01*
X192073587Y-59661282D01*
X191973731Y-59433630D01*
X191873434Y-59280116D01*
X191173787Y-59979764D01*
X191162518Y-59937708D01*
X191090110Y-59812292D01*
X190987708Y-59709890D01*
X190862292Y-59637482D01*
X190820235Y-59626212D01*
X191520057Y-58926390D01*
X191520056Y-58926389D01*
X191473229Y-58889943D01*
X191254614Y-58771635D01*
X191254603Y-58771630D01*
X191019493Y-58690916D01*
X190774293Y-58650000D01*
X190525707Y-58650000D01*
X190280506Y-58690916D01*
X190045396Y-58771630D01*
X190045390Y-58771632D01*
X189826761Y-58889949D01*
X189779942Y-58926388D01*
X189779942Y-58926390D01*
X190479765Y-59626212D01*
X190437708Y-59637482D01*
X190312292Y-59709890D01*
X190209890Y-59812292D01*
X190137482Y-59937708D01*
X190126212Y-59979764D01*
X189426564Y-59280116D01*
X189326267Y-59433632D01*
X189226412Y-59661282D01*
X189165387Y-59902261D01*
X189165385Y-59902270D01*
X189144859Y-60149994D01*
X181852079Y-60149994D01*
X181885139Y-60026610D01*
X181885141Y-60026599D01*
X181904966Y-59800002D01*
X181904966Y-59799997D01*
X181885141Y-59573400D01*
X181885139Y-59573389D01*
X181826269Y-59353682D01*
X181826264Y-59353668D01*
X181730136Y-59147521D01*
X181730132Y-59147513D01*
X181679025Y-59074526D01*
X181000000Y-59753551D01*
X181000000Y-59747339D01*
X180972741Y-59645606D01*
X180920080Y-59554394D01*
X180845606Y-59479920D01*
X180754394Y-59427259D01*
X180652661Y-59400000D01*
X180646448Y-59400000D01*
X181325472Y-58720974D01*
X181252478Y-58669863D01*
X181081207Y-58589998D01*
X184794532Y-58589998D01*
X184794532Y-58590001D01*
X184814364Y-58816686D01*
X184814366Y-58816697D01*
X184873258Y-59036488D01*
X184873261Y-59036497D01*
X184969431Y-59242732D01*
X184969432Y-59242734D01*
X185099954Y-59429141D01*
X185260858Y-59590045D01*
X185264698Y-59592734D01*
X185447266Y-59720568D01*
X185653504Y-59816739D01*
X185873308Y-59875635D01*
X186035230Y-59889801D01*
X186099998Y-59895468D01*
X186100000Y-59895468D01*
X186100002Y-59895468D01*
X186156673Y-59890509D01*
X186326692Y-59875635D01*
X186546496Y-59816739D01*
X186752734Y-59720568D01*
X186939139Y-59590047D01*
X187100047Y-59429139D01*
X187230568Y-59242734D01*
X187326739Y-59036496D01*
X187385635Y-58816692D01*
X187405468Y-58590000D01*
X187385635Y-58363308D01*
X187326739Y-58143504D01*
X187230568Y-57937266D01*
X187100047Y-57750861D01*
X187100045Y-57750858D01*
X186939141Y-57589954D01*
X186752734Y-57459432D01*
X186752732Y-57459431D01*
X186546497Y-57363261D01*
X186546488Y-57363258D01*
X186326697Y-57304366D01*
X186326693Y-57304365D01*
X186326692Y-57304365D01*
X186326691Y-57304364D01*
X186326686Y-57304364D01*
X186100002Y-57284532D01*
X186099998Y-57284532D01*
X185873313Y-57304364D01*
X185873302Y-57304366D01*
X185653511Y-57363258D01*
X185653502Y-57363261D01*
X185447267Y-57459431D01*
X185447265Y-57459432D01*
X185260858Y-57589954D01*
X185099954Y-57750858D01*
X184969432Y-57937265D01*
X184969431Y-57937267D01*
X184873261Y-58143502D01*
X184873258Y-58143511D01*
X184814366Y-58363302D01*
X184814364Y-58363313D01*
X184794532Y-58589998D01*
X181081207Y-58589998D01*
X181046331Y-58573735D01*
X181046317Y-58573730D01*
X180826610Y-58514860D01*
X180826599Y-58514858D01*
X180600002Y-58495034D01*
X180599998Y-58495034D01*
X180373400Y-58514858D01*
X180373389Y-58514860D01*
X180153682Y-58573730D01*
X180153673Y-58573734D01*
X179947516Y-58669866D01*
X179947512Y-58669868D01*
X179874526Y-58720973D01*
X179874526Y-58720974D01*
X180553553Y-59400000D01*
X180547339Y-59400000D01*
X180445606Y-59427259D01*
X180354394Y-59479920D01*
X180279920Y-59554394D01*
X180227259Y-59645606D01*
X180200000Y-59747339D01*
X180200000Y-59753552D01*
X179520974Y-59074526D01*
X179520973Y-59074526D01*
X179469868Y-59147512D01*
X179469866Y-59147516D01*
X179373734Y-59353673D01*
X179373730Y-59353682D01*
X179314860Y-59573389D01*
X179314858Y-59573400D01*
X179295034Y-59799997D01*
X175669189Y-59799997D01*
X175690047Y-59779139D01*
X175820568Y-59592734D01*
X175916739Y-59386496D01*
X175975635Y-59166692D01*
X175995468Y-58940000D01*
X175975635Y-58713308D01*
X175916739Y-58493504D01*
X175820568Y-58287266D01*
X175690047Y-58100861D01*
X175690045Y-58100858D01*
X175529141Y-57939954D01*
X175342734Y-57809432D01*
X175342728Y-57809429D01*
X175284725Y-57782382D01*
X175232285Y-57736210D01*
X175213133Y-57669017D01*
X175233348Y-57602135D01*
X175284725Y-57557618D01*
X175342734Y-57530568D01*
X175529139Y-57400047D01*
X175690047Y-57239139D01*
X175820568Y-57052734D01*
X175916739Y-56846496D01*
X175975635Y-56626692D01*
X175995468Y-56400000D01*
X175975635Y-56173308D01*
X175916739Y-55953504D01*
X175820568Y-55747266D01*
X175690047Y-55560861D01*
X175690045Y-55560858D01*
X175529141Y-55399954D01*
X175342734Y-55269432D01*
X175342728Y-55269429D01*
X175284725Y-55242382D01*
X175232285Y-55196210D01*
X175213133Y-55129017D01*
X175233348Y-55062135D01*
X175284725Y-55017618D01*
X175342734Y-54990568D01*
X175529139Y-54860047D01*
X175690047Y-54699139D01*
X175820118Y-54513375D01*
X175874693Y-54469752D01*
X175921692Y-54460500D01*
X177343331Y-54460500D01*
X177343347Y-54460501D01*
X177350943Y-54460501D01*
X177509054Y-54460501D01*
X177509057Y-54460501D01*
X177661785Y-54419577D01*
X177711904Y-54390639D01*
X177798716Y-54340520D01*
X177910520Y-54228716D01*
X177910520Y-54228714D01*
X177920728Y-54218507D01*
X177920730Y-54218504D01*
X180647294Y-51491939D01*
X180708615Y-51458456D01*
X180767066Y-51459847D01*
X180786604Y-51465082D01*
X180863308Y-51485635D01*
X181025230Y-51499801D01*
X181089998Y-51505468D01*
X181090000Y-51505468D01*
X181090002Y-51505468D01*
X181146673Y-51500509D01*
X181316692Y-51485635D01*
X181536496Y-51426739D01*
X181742734Y-51330568D01*
X181929139Y-51200047D01*
X182090047Y-51039139D01*
X182220568Y-50852734D01*
X182316739Y-50646496D01*
X182375635Y-50426692D01*
X182395468Y-50200000D01*
X182395468Y-50199998D01*
X187404532Y-50199998D01*
X187404532Y-50200001D01*
X187424364Y-50426686D01*
X187424366Y-50426697D01*
X187483258Y-50646488D01*
X187483261Y-50646497D01*
X187579431Y-50852732D01*
X187579432Y-50852734D01*
X187709954Y-51039141D01*
X187870858Y-51200045D01*
X187870861Y-51200047D01*
X188057266Y-51330568D01*
X188263504Y-51426739D01*
X188483308Y-51485635D01*
X188645230Y-51499801D01*
X188709998Y-51505468D01*
X188710000Y-51505468D01*
X188710002Y-51505468D01*
X188766673Y-51500509D01*
X188936692Y-51485635D01*
X189156496Y-51426739D01*
X189362734Y-51330568D01*
X189549139Y-51200047D01*
X189710047Y-51039139D01*
X189840118Y-50853375D01*
X189894693Y-50809752D01*
X189941692Y-50800500D01*
X194188877Y-50800500D01*
X194255916Y-50820185D01*
X194301671Y-50872989D01*
X194312453Y-50914260D01*
X194313864Y-50931296D01*
X194313866Y-50931308D01*
X194370842Y-51156300D01*
X194464075Y-51368848D01*
X194591018Y-51563150D01*
X194686167Y-51666510D01*
X194717089Y-51729164D01*
X194709228Y-51798590D01*
X194665081Y-51852746D01*
X194638271Y-51866674D01*
X194557911Y-51896646D01*
X194557906Y-51896649D01*
X194442812Y-51982809D01*
X194442809Y-51982812D01*
X194356649Y-52097906D01*
X194356645Y-52097913D01*
X194306403Y-52232620D01*
X194306401Y-52232627D01*
X194300000Y-52292155D01*
X194300000Y-52990000D01*
X195324722Y-52990000D01*
X195280667Y-53066306D01*
X195250000Y-53180756D01*
X195250000Y-53299244D01*
X195280667Y-53413694D01*
X195324722Y-53490000D01*
X194300000Y-53490000D01*
X194300000Y-54187844D01*
X194306401Y-54247372D01*
X194306403Y-54247379D01*
X194356645Y-54382086D01*
X194356649Y-54382093D01*
X194442809Y-54497187D01*
X194442812Y-54497190D01*
X194557906Y-54583350D01*
X194557913Y-54583354D01*
X194692620Y-54633596D01*
X194692627Y-54633598D01*
X194752155Y-54639999D01*
X194752172Y-54640000D01*
X195450000Y-54640000D01*
X195450000Y-53615277D01*
X195526306Y-53659333D01*
X195640756Y-53690000D01*
X195759244Y-53690000D01*
X195873694Y-53659333D01*
X195950000Y-53615277D01*
X195950000Y-54640000D01*
X196647828Y-54640000D01*
X196647844Y-54639999D01*
X196707372Y-54633598D01*
X196707379Y-54633596D01*
X196842086Y-54583354D01*
X196842093Y-54583350D01*
X196957187Y-54497190D01*
X196957190Y-54497187D01*
X197043350Y-54382093D01*
X197043354Y-54382086D01*
X197093596Y-54247379D01*
X197093598Y-54247372D01*
X197099999Y-54187844D01*
X197100000Y-54187827D01*
X197100000Y-53490000D01*
X196075278Y-53490000D01*
X196119333Y-53413694D01*
X196150000Y-53299244D01*
X196150000Y-53180756D01*
X196119333Y-53066306D01*
X196075278Y-52990000D01*
X197100000Y-52990000D01*
X197100000Y-52292172D01*
X197099999Y-52292155D01*
X197093598Y-52232627D01*
X197093596Y-52232620D01*
X197043354Y-52097913D01*
X197043350Y-52097906D01*
X196957190Y-51982812D01*
X196957187Y-51982809D01*
X196842093Y-51896649D01*
X196842086Y-51896645D01*
X196761729Y-51866674D01*
X196705795Y-51824803D01*
X196681378Y-51759338D01*
X196696230Y-51691065D01*
X196713826Y-51666516D01*
X196808979Y-51563153D01*
X196935924Y-51368849D01*
X197029157Y-51156300D01*
X197086134Y-50931305D01*
X197086135Y-50931296D01*
X197105300Y-50700006D01*
X197105300Y-50699993D01*
X197086135Y-50468702D01*
X197086133Y-50468691D01*
X197029157Y-50243699D01*
X196935924Y-50031151D01*
X196808983Y-49836852D01*
X196808980Y-49836849D01*
X196808979Y-49836847D01*
X196651784Y-49666087D01*
X196651779Y-49666083D01*
X196651777Y-49666081D01*
X196468634Y-49523535D01*
X196468628Y-49523531D01*
X196264504Y-49413064D01*
X196264495Y-49413061D01*
X196044984Y-49337702D01*
X195873282Y-49309050D01*
X195816049Y-49299500D01*
X195583951Y-49299500D01*
X195538164Y-49307140D01*
X195355015Y-49337702D01*
X195135504Y-49413061D01*
X195135495Y-49413064D01*
X194931371Y-49523531D01*
X194931365Y-49523535D01*
X194867360Y-49573353D01*
X194802366Y-49598996D01*
X194791198Y-49599500D01*
X189941692Y-49599500D01*
X189874653Y-49579815D01*
X189840119Y-49546625D01*
X189710047Y-49360861D01*
X189710045Y-49360858D01*
X189549141Y-49199954D01*
X189362734Y-49069432D01*
X189362732Y-49069431D01*
X189156497Y-48973261D01*
X189156488Y-48973258D01*
X188936697Y-48914366D01*
X188936693Y-48914365D01*
X188936692Y-48914365D01*
X188936691Y-48914364D01*
X188936686Y-48914364D01*
X188710002Y-48894532D01*
X188709998Y-48894532D01*
X188483313Y-48914364D01*
X188483302Y-48914366D01*
X188263511Y-48973258D01*
X188263502Y-48973261D01*
X188057267Y-49069431D01*
X188057265Y-49069432D01*
X187870858Y-49199954D01*
X187709954Y-49360858D01*
X187579432Y-49547265D01*
X187579431Y-49547267D01*
X187483261Y-49753502D01*
X187483258Y-49753511D01*
X187424366Y-49973302D01*
X187424364Y-49973313D01*
X187404532Y-50199998D01*
X182395468Y-50199998D01*
X182375635Y-49973308D01*
X182316739Y-49753504D01*
X182220568Y-49547266D01*
X182090047Y-49360861D01*
X182090045Y-49360858D01*
X181929141Y-49199954D01*
X181742734Y-49069432D01*
X181742732Y-49069431D01*
X181536497Y-48973261D01*
X181536488Y-48973258D01*
X181316697Y-48914366D01*
X181316693Y-48914365D01*
X181316692Y-48914365D01*
X181316691Y-48914364D01*
X181316686Y-48914364D01*
X181090002Y-48894532D01*
X181089998Y-48894532D01*
X180863313Y-48914364D01*
X180863302Y-48914366D01*
X180643511Y-48973258D01*
X180643502Y-48973261D01*
X180437267Y-49069431D01*
X180437265Y-49069432D01*
X180250858Y-49199954D01*
X180089954Y-49360858D01*
X179959432Y-49547265D01*
X179959431Y-49547267D01*
X179863261Y-49753502D01*
X179863258Y-49753511D01*
X179804366Y-49973302D01*
X179804364Y-49973313D01*
X179784532Y-50199998D01*
X179784532Y-50200001D01*
X179804364Y-50426686D01*
X179804366Y-50426697D01*
X179815621Y-50468702D01*
X179829409Y-50520160D01*
X179830152Y-50522931D01*
X179828489Y-50592781D01*
X179798058Y-50642705D01*
X177217584Y-53223181D01*
X177156261Y-53256666D01*
X177129903Y-53259500D01*
X175921692Y-53259500D01*
X175854653Y-53239815D01*
X175820119Y-53206625D01*
X175690047Y-53020861D01*
X175690045Y-53020858D01*
X175529141Y-52859954D01*
X175342734Y-52729432D01*
X175342732Y-52729431D01*
X175136497Y-52633261D01*
X175136488Y-52633258D01*
X174916697Y-52574366D01*
X174916693Y-52574365D01*
X174916692Y-52574365D01*
X174916691Y-52574364D01*
X174916686Y-52574364D01*
X174690002Y-52554532D01*
X174689998Y-52554532D01*
X174463313Y-52574364D01*
X174463302Y-52574366D01*
X174243511Y-52633258D01*
X174243502Y-52633261D01*
X174037267Y-52729431D01*
X174037265Y-52729432D01*
X173850858Y-52859954D01*
X173689954Y-53020858D01*
X173559432Y-53207265D01*
X173559431Y-53207267D01*
X173463261Y-53413502D01*
X173463258Y-53413511D01*
X173404366Y-53633302D01*
X173404364Y-53633313D01*
X173384532Y-53859998D01*
X173384532Y-53860001D01*
X173404364Y-54086686D01*
X173404366Y-54086697D01*
X173463258Y-54306488D01*
X173463261Y-54306497D01*
X173559431Y-54512732D01*
X173559432Y-54512734D01*
X173689954Y-54699141D01*
X173850858Y-54860045D01*
X173850861Y-54860047D01*
X174037266Y-54990568D01*
X174095275Y-55017618D01*
X174147714Y-55063791D01*
X174166866Y-55130984D01*
X174146650Y-55197865D01*
X174095275Y-55242382D01*
X174037267Y-55269431D01*
X174037265Y-55269432D01*
X173850858Y-55399954D01*
X173689954Y-55560858D01*
X173559432Y-55747265D01*
X173559431Y-55747267D01*
X173463261Y-55953502D01*
X173463258Y-55953511D01*
X173404366Y-56173302D01*
X173404364Y-56173313D01*
X173384532Y-56399998D01*
X173384532Y-56400001D01*
X173404364Y-56626686D01*
X173404366Y-56626697D01*
X173463258Y-56846488D01*
X173463261Y-56846497D01*
X173559431Y-57052732D01*
X173559432Y-57052734D01*
X173689954Y-57239141D01*
X173850858Y-57400045D01*
X173850861Y-57400047D01*
X174037266Y-57530568D01*
X174095275Y-57557618D01*
X174147714Y-57603791D01*
X174166866Y-57670984D01*
X174146650Y-57737865D01*
X174095275Y-57782382D01*
X174037267Y-57809431D01*
X174037265Y-57809432D01*
X173850858Y-57939954D01*
X173689954Y-58100858D01*
X173559432Y-58287265D01*
X173559431Y-58287267D01*
X173463261Y-58493502D01*
X173463258Y-58493511D01*
X173404366Y-58713302D01*
X173404364Y-58713313D01*
X173384532Y-58939998D01*
X173384532Y-58940001D01*
X173404364Y-59166686D01*
X173404366Y-59166697D01*
X173463258Y-59386488D01*
X173463261Y-59386497D01*
X173559431Y-59592732D01*
X173559432Y-59592734D01*
X173689954Y-59779141D01*
X173850858Y-59940045D01*
X173850861Y-59940047D01*
X174037266Y-60070568D01*
X174095275Y-60097618D01*
X174147714Y-60143791D01*
X174166866Y-60210984D01*
X174146650Y-60277865D01*
X174095275Y-60322382D01*
X174037267Y-60349431D01*
X174037265Y-60349432D01*
X173850858Y-60479954D01*
X173689954Y-60640858D01*
X173559432Y-60827265D01*
X173559431Y-60827267D01*
X173463261Y-61033502D01*
X173463258Y-61033511D01*
X173404366Y-61253302D01*
X173404364Y-61253313D01*
X173384532Y-61479998D01*
X173384532Y-61480001D01*
X173404364Y-61706686D01*
X173404366Y-61706697D01*
X173463258Y-61926488D01*
X173463261Y-61926497D01*
X173559431Y-62132732D01*
X173559432Y-62132734D01*
X173689954Y-62319141D01*
X173850858Y-62480045D01*
X173850861Y-62480047D01*
X174037266Y-62610568D01*
X174095275Y-62637618D01*
X174147714Y-62683791D01*
X174166866Y-62750984D01*
X174146650Y-62817865D01*
X174095275Y-62862382D01*
X174037267Y-62889431D01*
X174037265Y-62889432D01*
X173850858Y-63019954D01*
X173689954Y-63180858D01*
X173559432Y-63367265D01*
X173559431Y-63367267D01*
X173463261Y-63573502D01*
X173463258Y-63573511D01*
X173404366Y-63793302D01*
X173404364Y-63793313D01*
X173384532Y-64019998D01*
X173384532Y-64020001D01*
X173404364Y-64246686D01*
X173404366Y-64246697D01*
X173463258Y-64466488D01*
X173463261Y-64466497D01*
X173559431Y-64672732D01*
X173559432Y-64672734D01*
X173689954Y-64859141D01*
X173850858Y-65020045D01*
X173860351Y-65026692D01*
X174037266Y-65150568D01*
X174095275Y-65177618D01*
X174147714Y-65223791D01*
X174166866Y-65290984D01*
X174146650Y-65357865D01*
X174095275Y-65402382D01*
X174037267Y-65429431D01*
X174037265Y-65429432D01*
X173850858Y-65559954D01*
X173689954Y-65720858D01*
X173559432Y-65907265D01*
X173559431Y-65907267D01*
X173463261Y-66113502D01*
X173463258Y-66113511D01*
X173404366Y-66333302D01*
X173404364Y-66333313D01*
X173384532Y-66559998D01*
X173384532Y-66560001D01*
X173404364Y-66786686D01*
X173404366Y-66786697D01*
X173463258Y-67006488D01*
X173463261Y-67006497D01*
X173559431Y-67212732D01*
X173559432Y-67212734D01*
X173689954Y-67399141D01*
X173850858Y-67560045D01*
X173850861Y-67560047D01*
X174037266Y-67690568D01*
X174095275Y-67717618D01*
X174147714Y-67763791D01*
X174166866Y-67830984D01*
X174146650Y-67897865D01*
X174095275Y-67942382D01*
X174037267Y-67969431D01*
X174037265Y-67969432D01*
X173850858Y-68099954D01*
X173689954Y-68260858D01*
X173559432Y-68447265D01*
X173559431Y-68447267D01*
X173463261Y-68653502D01*
X173463258Y-68653511D01*
X173404366Y-68873302D01*
X173404364Y-68873313D01*
X173384532Y-69099998D01*
X173384532Y-69100001D01*
X173404364Y-69326686D01*
X173404366Y-69326697D01*
X173463258Y-69546488D01*
X173463261Y-69546497D01*
X173559431Y-69752732D01*
X173559432Y-69752734D01*
X173689954Y-69939141D01*
X173850858Y-70100045D01*
X173850861Y-70100047D01*
X174037266Y-70230568D01*
X174095275Y-70257618D01*
X174147714Y-70303791D01*
X174166866Y-70370984D01*
X174146650Y-70437865D01*
X174095275Y-70482382D01*
X174037267Y-70509431D01*
X174037265Y-70509432D01*
X173850858Y-70639954D01*
X173689954Y-70800858D01*
X173559432Y-70987265D01*
X173559431Y-70987267D01*
X173463261Y-71193502D01*
X173463258Y-71193511D01*
X173404366Y-71413302D01*
X173404364Y-71413313D01*
X173384532Y-71639998D01*
X173384532Y-71640001D01*
X173404364Y-71866686D01*
X173404366Y-71866697D01*
X173463258Y-72086488D01*
X173463261Y-72086497D01*
X173559431Y-72292732D01*
X173559432Y-72292734D01*
X173689954Y-72479141D01*
X173850858Y-72640045D01*
X173850861Y-72640047D01*
X174037266Y-72770568D01*
X174095275Y-72797618D01*
X174147714Y-72843791D01*
X174166866Y-72910984D01*
X174146650Y-72977865D01*
X174095275Y-73022382D01*
X174037267Y-73049431D01*
X174037265Y-73049432D01*
X173850858Y-73179954D01*
X173689954Y-73340858D01*
X173559432Y-73527265D01*
X173559431Y-73527267D01*
X173463261Y-73733502D01*
X173463258Y-73733511D01*
X173404366Y-73953302D01*
X173404364Y-73953313D01*
X173384532Y-74179998D01*
X173384532Y-74180001D01*
X173404364Y-74406686D01*
X173404366Y-74406697D01*
X173463258Y-74626488D01*
X173463261Y-74626497D01*
X173559431Y-74832732D01*
X173559432Y-74832734D01*
X173689954Y-75019141D01*
X173850858Y-75180045D01*
X173850861Y-75180047D01*
X174037266Y-75310568D01*
X174095275Y-75337618D01*
X174147714Y-75383791D01*
X174166866Y-75450984D01*
X174146650Y-75517865D01*
X174095275Y-75562382D01*
X174037267Y-75589431D01*
X174037265Y-75589432D01*
X173850858Y-75719954D01*
X173689954Y-75880858D01*
X173559432Y-76067265D01*
X173559431Y-76067267D01*
X173463261Y-76273502D01*
X173463258Y-76273511D01*
X173404366Y-76493302D01*
X173404364Y-76493313D01*
X173384532Y-76719998D01*
X173384532Y-76720001D01*
X173404364Y-76946686D01*
X173404366Y-76946697D01*
X173463258Y-77166488D01*
X173463261Y-77166497D01*
X173559431Y-77372732D01*
X173559432Y-77372734D01*
X173689954Y-77559141D01*
X173850858Y-77720045D01*
X173850861Y-77720047D01*
X174037266Y-77850568D01*
X174095275Y-77877618D01*
X174147714Y-77923791D01*
X174166866Y-77990984D01*
X174146650Y-78057865D01*
X174095275Y-78102382D01*
X174037267Y-78129431D01*
X174037265Y-78129432D01*
X173850858Y-78259954D01*
X173689954Y-78420858D01*
X173559432Y-78607265D01*
X173559431Y-78607267D01*
X173463261Y-78813502D01*
X173463258Y-78813511D01*
X173404366Y-79033302D01*
X173404364Y-79033313D01*
X173384532Y-79259998D01*
X173384532Y-79260001D01*
X173404364Y-79486686D01*
X173404366Y-79486697D01*
X173463258Y-79706488D01*
X173463261Y-79706497D01*
X173485793Y-79754816D01*
X173559432Y-79912734D01*
X173604696Y-79977378D01*
X173627023Y-80043584D01*
X173610011Y-80111351D01*
X173559063Y-80159163D01*
X173503120Y-80172500D01*
X160636880Y-80172500D01*
X160569841Y-80152815D01*
X160524086Y-80100011D01*
X160514142Y-80030853D01*
X160535304Y-79977378D01*
X160580568Y-79912734D01*
X160676739Y-79706496D01*
X160735635Y-79486692D01*
X160755468Y-79260000D01*
X160752888Y-79230516D01*
X160743657Y-79125000D01*
X160735635Y-79033308D01*
X160681257Y-78830365D01*
X160676741Y-78813511D01*
X160676738Y-78813502D01*
X160630209Y-78713721D01*
X160580568Y-78607266D01*
X160450047Y-78420861D01*
X160450045Y-78420858D01*
X160289141Y-78259954D01*
X160102734Y-78129432D01*
X160102728Y-78129429D01*
X160044725Y-78102382D01*
X159992285Y-78056210D01*
X159973133Y-77989017D01*
X159993348Y-77922135D01*
X160044725Y-77877618D01*
X160102734Y-77850568D01*
X160289139Y-77720047D01*
X160450047Y-77559139D01*
X160580568Y-77372734D01*
X160676739Y-77166496D01*
X160735635Y-76946692D01*
X160755468Y-76720000D01*
X160735635Y-76493308D01*
X160676739Y-76273504D01*
X160580568Y-76067266D01*
X160450047Y-75880861D01*
X160450045Y-75880858D01*
X160289141Y-75719954D01*
X160102734Y-75589432D01*
X160102728Y-75589429D01*
X160044725Y-75562382D01*
X159992285Y-75516210D01*
X159973133Y-75449017D01*
X159993348Y-75382135D01*
X160044725Y-75337618D01*
X160102734Y-75310568D01*
X160289139Y-75180047D01*
X160450047Y-75019139D01*
X160580568Y-74832734D01*
X160676739Y-74626496D01*
X160735635Y-74406692D01*
X160755468Y-74180000D01*
X160735635Y-73953308D01*
X160676739Y-73733504D01*
X160580568Y-73527266D01*
X160450047Y-73340861D01*
X160450045Y-73340858D01*
X160289141Y-73179954D01*
X160102734Y-73049432D01*
X160102728Y-73049429D01*
X160044725Y-73022382D01*
X159992285Y-72976210D01*
X159973133Y-72909017D01*
X159993348Y-72842135D01*
X160044725Y-72797618D01*
X160102734Y-72770568D01*
X160289139Y-72640047D01*
X160450047Y-72479139D01*
X160580568Y-72292734D01*
X160676739Y-72086496D01*
X160735635Y-71866692D01*
X160755468Y-71640000D01*
X160755267Y-71637708D01*
X160735635Y-71413313D01*
X160735635Y-71413308D01*
X160676739Y-71193504D01*
X160580568Y-70987266D01*
X160476849Y-70839139D01*
X160450045Y-70800858D01*
X160289141Y-70639954D01*
X160102734Y-70509432D01*
X160102728Y-70509429D01*
X160044725Y-70482382D01*
X159992285Y-70436210D01*
X159973133Y-70369017D01*
X159993348Y-70302135D01*
X160044725Y-70257618D01*
X160102734Y-70230568D01*
X160289139Y-70100047D01*
X160450047Y-69939139D01*
X160580568Y-69752734D01*
X160676739Y-69546496D01*
X160735635Y-69326692D01*
X160755468Y-69100000D01*
X160735635Y-68873308D01*
X160676739Y-68653504D01*
X160580568Y-68447266D01*
X160450047Y-68260861D01*
X160450045Y-68260858D01*
X160289141Y-68099954D01*
X160102734Y-67969432D01*
X160102728Y-67969429D01*
X160044725Y-67942382D01*
X159992285Y-67896210D01*
X159973133Y-67829017D01*
X159993348Y-67762135D01*
X160044725Y-67717618D01*
X160102734Y-67690568D01*
X160289139Y-67560047D01*
X160450047Y-67399139D01*
X160580568Y-67212734D01*
X160676739Y-67006496D01*
X160735635Y-66786692D01*
X160755468Y-66560000D01*
X160735635Y-66333308D01*
X160676739Y-66113504D01*
X160580568Y-65907266D01*
X160450047Y-65720861D01*
X160450045Y-65720858D01*
X160289141Y-65559954D01*
X160102734Y-65429432D01*
X160102728Y-65429429D01*
X160044725Y-65402382D01*
X159992285Y-65356210D01*
X159973133Y-65289017D01*
X159993348Y-65222135D01*
X160044725Y-65177618D01*
X160102734Y-65150568D01*
X160289139Y-65020047D01*
X160450047Y-64859139D01*
X160580568Y-64672734D01*
X160676739Y-64466496D01*
X160735635Y-64246692D01*
X160754609Y-64029815D01*
X160755468Y-64020001D01*
X160755468Y-64019998D01*
X160735635Y-63793313D01*
X160735635Y-63793308D01*
X160676739Y-63573504D01*
X160580568Y-63367266D01*
X160450047Y-63180861D01*
X160450045Y-63180858D01*
X160289141Y-63019954D01*
X160102734Y-62889432D01*
X160102728Y-62889429D01*
X160044725Y-62862382D01*
X159992285Y-62816210D01*
X159973133Y-62749017D01*
X159993348Y-62682135D01*
X160044725Y-62637618D01*
X160102734Y-62610568D01*
X160289139Y-62480047D01*
X160450047Y-62319139D01*
X160580568Y-62132734D01*
X160676739Y-61926496D01*
X160735635Y-61706692D01*
X160755468Y-61480000D01*
X160735635Y-61253308D01*
X160676739Y-61033504D01*
X160580568Y-60827266D01*
X160450047Y-60640861D01*
X160450045Y-60640858D01*
X160289141Y-60479954D01*
X160102734Y-60349432D01*
X160102728Y-60349429D01*
X160044725Y-60322382D01*
X159992285Y-60276210D01*
X159973133Y-60209017D01*
X159993348Y-60142135D01*
X160044725Y-60097618D01*
X160102734Y-60070568D01*
X160289139Y-59940047D01*
X160450047Y-59779139D01*
X160580568Y-59592734D01*
X160676739Y-59386496D01*
X160735635Y-59166692D01*
X160755468Y-58940000D01*
X160735635Y-58713308D01*
X160676739Y-58493504D01*
X160580568Y-58287266D01*
X160450047Y-58100861D01*
X160450045Y-58100858D01*
X160289141Y-57939954D01*
X160102734Y-57809432D01*
X160102728Y-57809429D01*
X160044725Y-57782382D01*
X159992285Y-57736210D01*
X159973133Y-57669017D01*
X159993348Y-57602135D01*
X160044725Y-57557618D01*
X160102734Y-57530568D01*
X160289139Y-57400047D01*
X160450047Y-57239139D01*
X160580568Y-57052734D01*
X160676739Y-56846496D01*
X160735635Y-56626692D01*
X160755468Y-56400000D01*
X160735635Y-56173308D01*
X160676739Y-55953504D01*
X160580568Y-55747266D01*
X160450047Y-55560861D01*
X160450045Y-55560858D01*
X160289141Y-55399954D01*
X160102734Y-55269432D01*
X160102728Y-55269429D01*
X160044725Y-55242382D01*
X159992285Y-55196210D01*
X159973133Y-55129017D01*
X159993348Y-55062135D01*
X160044725Y-55017618D01*
X160102734Y-54990568D01*
X160289139Y-54860047D01*
X160450047Y-54699139D01*
X160580568Y-54512734D01*
X160676739Y-54306496D01*
X160735635Y-54086692D01*
X160755468Y-53860000D01*
X160735635Y-53633308D01*
X160676739Y-53413504D01*
X160580568Y-53207266D01*
X160450047Y-53020861D01*
X160450045Y-53020858D01*
X160289141Y-52859954D01*
X160102734Y-52729432D01*
X160102732Y-52729431D01*
X159896497Y-52633261D01*
X159896488Y-52633258D01*
X159676697Y-52574366D01*
X159676693Y-52574365D01*
X159676692Y-52574365D01*
X159676691Y-52574364D01*
X159676686Y-52574364D01*
X159450002Y-52554532D01*
X159449998Y-52554532D01*
X159223313Y-52574364D01*
X159223302Y-52574366D01*
X159003511Y-52633258D01*
X159003502Y-52633261D01*
X158797267Y-52729431D01*
X158797265Y-52729432D01*
X158610858Y-52859954D01*
X158449954Y-53020858D01*
X158319432Y-53207265D01*
X158319431Y-53207267D01*
X158223261Y-53413502D01*
X158223258Y-53413511D01*
X158164366Y-53633302D01*
X158164364Y-53633313D01*
X158144532Y-53859998D01*
X158144532Y-53860001D01*
X158164364Y-54086686D01*
X158164366Y-54086697D01*
X158223258Y-54306488D01*
X158223261Y-54306497D01*
X158319431Y-54512732D01*
X158319432Y-54512734D01*
X158449954Y-54699141D01*
X158610858Y-54860045D01*
X158610861Y-54860047D01*
X158797266Y-54990568D01*
X158855275Y-55017618D01*
X158907714Y-55063791D01*
X158926866Y-55130984D01*
X158906650Y-55197865D01*
X158855275Y-55242382D01*
X158797267Y-55269431D01*
X158797265Y-55269432D01*
X158610858Y-55399954D01*
X158449954Y-55560858D01*
X158319432Y-55747265D01*
X158319431Y-55747267D01*
X158223261Y-55953502D01*
X158223258Y-55953511D01*
X158164366Y-56173302D01*
X158164364Y-56173313D01*
X158144532Y-56399998D01*
X158144532Y-56400001D01*
X158164364Y-56626686D01*
X158164366Y-56626697D01*
X158223258Y-56846488D01*
X158223261Y-56846497D01*
X158319431Y-57052732D01*
X158319432Y-57052734D01*
X158449954Y-57239141D01*
X158610858Y-57400045D01*
X158610861Y-57400047D01*
X158797266Y-57530568D01*
X158855275Y-57557618D01*
X158907714Y-57603791D01*
X158926866Y-57670984D01*
X158906650Y-57737865D01*
X158855275Y-57782382D01*
X158797267Y-57809431D01*
X158797265Y-57809432D01*
X158610858Y-57939954D01*
X158449954Y-58100858D01*
X158319432Y-58287265D01*
X158319431Y-58287267D01*
X158223261Y-58493502D01*
X158223258Y-58493511D01*
X158164366Y-58713302D01*
X158164364Y-58713313D01*
X158144532Y-58939998D01*
X158144532Y-58940001D01*
X158164364Y-59166686D01*
X158164366Y-59166697D01*
X158223258Y-59386488D01*
X158223261Y-59386497D01*
X158319431Y-59592732D01*
X158319432Y-59592734D01*
X158449954Y-59779141D01*
X158610858Y-59940045D01*
X158610861Y-59940047D01*
X158797266Y-60070568D01*
X158855275Y-60097618D01*
X158907714Y-60143791D01*
X158926866Y-60210984D01*
X158906650Y-60277865D01*
X158855275Y-60322382D01*
X158797267Y-60349431D01*
X158797265Y-60349432D01*
X158610858Y-60479954D01*
X158449954Y-60640858D01*
X158319432Y-60827265D01*
X158319431Y-60827267D01*
X158223261Y-61033502D01*
X158223258Y-61033511D01*
X158164366Y-61253302D01*
X158164364Y-61253313D01*
X158144532Y-61479998D01*
X158144532Y-61480001D01*
X158164364Y-61706686D01*
X158164366Y-61706697D01*
X158223258Y-61926488D01*
X158223261Y-61926497D01*
X158319431Y-62132732D01*
X158319432Y-62132734D01*
X158449954Y-62319141D01*
X158610858Y-62480045D01*
X158610861Y-62480047D01*
X158797266Y-62610568D01*
X158855275Y-62637618D01*
X158907714Y-62683791D01*
X158926866Y-62750984D01*
X158906650Y-62817865D01*
X158855275Y-62862382D01*
X158797267Y-62889431D01*
X158797265Y-62889432D01*
X158610858Y-63019954D01*
X158449954Y-63180858D01*
X158319432Y-63367265D01*
X158319431Y-63367267D01*
X158223261Y-63573502D01*
X158223258Y-63573511D01*
X158164366Y-63793302D01*
X158164364Y-63793313D01*
X158144532Y-64019998D01*
X158144532Y-64020001D01*
X158164364Y-64246686D01*
X158164366Y-64246697D01*
X158223258Y-64466488D01*
X158223261Y-64466497D01*
X158319431Y-64672732D01*
X158319432Y-64672734D01*
X158449954Y-64859141D01*
X158610858Y-65020045D01*
X158620351Y-65026692D01*
X158797266Y-65150568D01*
X158855275Y-65177618D01*
X158907714Y-65223791D01*
X158926866Y-65290984D01*
X158906650Y-65357865D01*
X158855275Y-65402382D01*
X158797267Y-65429431D01*
X158797265Y-65429432D01*
X158610858Y-65559954D01*
X158449954Y-65720858D01*
X158319432Y-65907265D01*
X158319431Y-65907267D01*
X158223261Y-66113502D01*
X158223258Y-66113511D01*
X158164366Y-66333302D01*
X158164364Y-66333313D01*
X158144532Y-66559998D01*
X158144532Y-66560001D01*
X158164364Y-66786686D01*
X158164366Y-66786697D01*
X158223258Y-67006488D01*
X158223261Y-67006497D01*
X158319431Y-67212732D01*
X158319432Y-67212734D01*
X158449954Y-67399141D01*
X158610858Y-67560045D01*
X158610861Y-67560047D01*
X158797266Y-67690568D01*
X158855275Y-67717618D01*
X158907714Y-67763791D01*
X158926866Y-67830984D01*
X158906650Y-67897865D01*
X158855275Y-67942382D01*
X158797267Y-67969431D01*
X158797265Y-67969432D01*
X158610858Y-68099954D01*
X158449954Y-68260858D01*
X158319432Y-68447265D01*
X158319431Y-68447267D01*
X158223261Y-68653502D01*
X158223258Y-68653511D01*
X158164366Y-68873302D01*
X158164364Y-68873313D01*
X158144532Y-69099998D01*
X158144532Y-69100001D01*
X158164364Y-69326686D01*
X158164366Y-69326697D01*
X158223258Y-69546488D01*
X158223261Y-69546497D01*
X158319431Y-69752732D01*
X158319432Y-69752734D01*
X158449954Y-69939141D01*
X158610858Y-70100045D01*
X158610861Y-70100047D01*
X158797266Y-70230568D01*
X158855275Y-70257618D01*
X158907714Y-70303791D01*
X158926866Y-70370984D01*
X158906650Y-70437865D01*
X158855275Y-70482382D01*
X158797267Y-70509431D01*
X158797265Y-70509432D01*
X158610858Y-70639954D01*
X158449954Y-70800858D01*
X158398593Y-70874211D01*
X158319881Y-70986624D01*
X158265307Y-71030248D01*
X158218308Y-71039500D01*
X146672940Y-71039500D01*
X146605901Y-71019815D01*
X146585259Y-71003181D01*
X146552262Y-70970184D01*
X146399523Y-70874211D01*
X146229254Y-70814631D01*
X146229249Y-70814630D01*
X146050004Y-70794435D01*
X146049996Y-70794435D01*
X145870750Y-70814630D01*
X145870745Y-70814631D01*
X145700476Y-70874211D01*
X145547736Y-70970185D01*
X145544903Y-70972445D01*
X145542724Y-70973334D01*
X145541842Y-70973889D01*
X145541744Y-70973734D01*
X145480217Y-70998855D01*
X145467588Y-70999500D01*
X141439057Y-70999500D01*
X141280942Y-70999500D01*
X141128215Y-71040423D01*
X141128214Y-71040423D01*
X141128212Y-71040424D01*
X141128209Y-71040425D01*
X141093066Y-71060716D01*
X141093064Y-71060717D01*
X140991290Y-71119475D01*
X140991282Y-71119481D01*
X140879478Y-71231286D01*
X133271679Y-78839084D01*
X133210356Y-78872569D01*
X133151906Y-78871178D01*
X133080076Y-78851932D01*
X133080073Y-78851931D01*
X133080068Y-78851930D01*
X133080065Y-78851929D01*
X133080062Y-78851929D01*
X132860002Y-78832677D01*
X132859998Y-78832677D01*
X132639937Y-78851929D01*
X132639929Y-78851930D01*
X132426554Y-78909104D01*
X132426548Y-78909107D01*
X132226340Y-79002465D01*
X132226338Y-79002466D01*
X132045377Y-79129175D01*
X131889175Y-79285377D01*
X131808074Y-79401203D01*
X131753497Y-79444828D01*
X131683999Y-79452022D01*
X131621644Y-79420499D01*
X131586230Y-79360270D01*
X131582499Y-79330080D01*
X131582499Y-79290129D01*
X131582498Y-79290123D01*
X131582497Y-79290116D01*
X131576091Y-79230517D01*
X131536734Y-79124996D01*
X131525797Y-79095671D01*
X131525793Y-79095664D01*
X131439547Y-78980455D01*
X131439544Y-78980452D01*
X131324335Y-78894206D01*
X131324328Y-78894202D01*
X131189482Y-78843908D01*
X131189483Y-78843908D01*
X131129883Y-78837501D01*
X131129881Y-78837500D01*
X131129873Y-78837500D01*
X131129864Y-78837500D01*
X129510129Y-78837500D01*
X129510123Y-78837501D01*
X129450516Y-78843908D01*
X129315671Y-78894202D01*
X129315664Y-78894206D01*
X129200455Y-78980452D01*
X129200452Y-78980455D01*
X129114206Y-79095664D01*
X129114202Y-79095671D01*
X129063908Y-79230517D01*
X129058010Y-79285380D01*
X129057501Y-79290123D01*
X129057500Y-79290135D01*
X126000000Y-79290135D01*
X126000000Y-49660155D01*
X134268000Y-49660155D01*
X134268000Y-50220000D01*
X135241184Y-50220000D01*
X135225124Y-50236060D01*
X135174964Y-50322939D01*
X135149000Y-50419840D01*
X135149000Y-50520160D01*
X135174964Y-50617061D01*
X135225124Y-50703940D01*
X135241184Y-50720000D01*
X134268000Y-50720000D01*
X134268000Y-51279844D01*
X134274401Y-51339372D01*
X134274403Y-51339379D01*
X134324645Y-51474086D01*
X134324649Y-51474093D01*
X134410809Y-51589187D01*
X134410812Y-51589190D01*
X134525906Y-51675350D01*
X134525913Y-51675354D01*
X134660620Y-51725596D01*
X134660627Y-51725598D01*
X134720155Y-51731999D01*
X134720172Y-51732000D01*
X135280000Y-51732000D01*
X135280000Y-50758816D01*
X135296060Y-50774876D01*
X135382939Y-50825036D01*
X135479840Y-50851000D01*
X135580160Y-50851000D01*
X135677061Y-50825036D01*
X135763940Y-50774876D01*
X135780000Y-50758816D01*
X135780000Y-51732000D01*
X136339828Y-51732000D01*
X136339844Y-51731999D01*
X136399372Y-51725598D01*
X136399379Y-51725596D01*
X136534086Y-51675354D01*
X136534093Y-51675350D01*
X136649187Y-51589190D01*
X136649190Y-51589187D01*
X136735350Y-51474093D01*
X136735354Y-51474086D01*
X136785596Y-51339379D01*
X136785598Y-51339372D01*
X136791999Y-51279844D01*
X136792000Y-51279827D01*
X136792000Y-50720000D01*
X135818816Y-50720000D01*
X135834876Y-50703940D01*
X135885036Y-50617061D01*
X135911000Y-50520160D01*
X135911000Y-50469997D01*
X137762677Y-50469997D01*
X137762677Y-50470002D01*
X137781929Y-50690062D01*
X137781930Y-50690070D01*
X137839104Y-50903445D01*
X137839105Y-50903447D01*
X137839106Y-50903450D01*
X137932466Y-51103662D01*
X137932468Y-51103666D01*
X138059170Y-51284615D01*
X138059175Y-51284621D01*
X138215378Y-51440824D01*
X138215384Y-51440829D01*
X138396333Y-51567531D01*
X138396335Y-51567532D01*
X138396338Y-51567534D01*
X138596550Y-51660894D01*
X138809932Y-51718070D01*
X138967123Y-51731822D01*
X139029998Y-51737323D01*
X139030000Y-51737323D01*
X139030002Y-51737323D01*
X139085017Y-51732509D01*
X139250068Y-51718070D01*
X139463450Y-51660894D01*
X139663662Y-51567534D01*
X139844620Y-51440826D01*
X140000826Y-51284620D01*
X140127534Y-51103662D01*
X140220894Y-50903450D01*
X140278070Y-50690068D01*
X140297323Y-50470000D01*
X140297323Y-50469997D01*
X141262677Y-50469997D01*
X141262677Y-50470002D01*
X141281929Y-50690062D01*
X141281930Y-50690070D01*
X141339104Y-50903445D01*
X141339105Y-50903447D01*
X141339106Y-50903450D01*
X141432466Y-51103662D01*
X141432468Y-51103666D01*
X141559170Y-51284615D01*
X141559175Y-51284621D01*
X141715378Y-51440824D01*
X141715384Y-51440829D01*
X141896333Y-51567531D01*
X141896335Y-51567532D01*
X141896338Y-51567534D01*
X142096550Y-51660894D01*
X142309932Y-51718070D01*
X142467123Y-51731822D01*
X142529998Y-51737323D01*
X142530000Y-51737323D01*
X142530002Y-51737323D01*
X142585017Y-51732509D01*
X142750068Y-51718070D01*
X142963450Y-51660894D01*
X143163662Y-51567534D01*
X143344620Y-51440826D01*
X143500826Y-51284620D01*
X143627534Y-51103662D01*
X143720894Y-50903450D01*
X143778070Y-50690068D01*
X143797323Y-50470000D01*
X143797323Y-50469997D01*
X144762677Y-50469997D01*
X144762677Y-50470002D01*
X144781929Y-50690062D01*
X144781930Y-50690070D01*
X144839104Y-50903445D01*
X144839105Y-50903447D01*
X144839106Y-50903450D01*
X144932466Y-51103662D01*
X144932468Y-51103666D01*
X145059170Y-51284615D01*
X145059175Y-51284621D01*
X145215378Y-51440824D01*
X145215384Y-51440829D01*
X145396333Y-51567531D01*
X145396335Y-51567532D01*
X145396338Y-51567534D01*
X145596550Y-51660894D01*
X145809932Y-51718070D01*
X145967123Y-51731822D01*
X146029998Y-51737323D01*
X146030000Y-51737323D01*
X146030002Y-51737323D01*
X146085017Y-51732509D01*
X146250068Y-51718070D01*
X146463450Y-51660894D01*
X146663662Y-51567534D01*
X146844620Y-51440826D01*
X147000826Y-51284620D01*
X147127534Y-51103662D01*
X147220894Y-50903450D01*
X147278070Y-50690068D01*
X147297323Y-50470000D01*
X147297209Y-50468702D01*
X147278070Y-50249937D01*
X147278070Y-50249932D01*
X147220894Y-50036550D01*
X147127534Y-49836339D01*
X147008319Y-49666081D01*
X147000827Y-49655381D01*
X146925261Y-49579815D01*
X146844620Y-49499174D01*
X146844616Y-49499171D01*
X146844615Y-49499170D01*
X146663666Y-49372468D01*
X146663662Y-49372466D01*
X146638768Y-49360858D01*
X146463450Y-49279106D01*
X146463447Y-49279105D01*
X146463445Y-49279104D01*
X146250070Y-49221930D01*
X146250062Y-49221929D01*
X146030002Y-49202677D01*
X146029998Y-49202677D01*
X145809937Y-49221929D01*
X145809929Y-49221930D01*
X145596554Y-49279104D01*
X145596548Y-49279107D01*
X145396340Y-49372465D01*
X145396338Y-49372466D01*
X145215377Y-49499175D01*
X145059175Y-49655377D01*
X144932466Y-49836338D01*
X144932465Y-49836340D01*
X144839107Y-50036548D01*
X144839104Y-50036554D01*
X144781930Y-50249929D01*
X144781929Y-50249937D01*
X144762677Y-50469997D01*
X143797323Y-50469997D01*
X143797209Y-50468702D01*
X143778070Y-50249937D01*
X143778070Y-50249932D01*
X143720894Y-50036550D01*
X143627534Y-49836339D01*
X143508319Y-49666081D01*
X143500827Y-49655381D01*
X143425261Y-49579815D01*
X143344620Y-49499174D01*
X143344616Y-49499171D01*
X143344615Y-49499170D01*
X143163666Y-49372468D01*
X143163662Y-49372466D01*
X143138768Y-49360858D01*
X142963450Y-49279106D01*
X142963447Y-49279105D01*
X142963445Y-49279104D01*
X142750070Y-49221930D01*
X142750062Y-49221929D01*
X142530002Y-49202677D01*
X142529998Y-49202677D01*
X142309937Y-49221929D01*
X142309929Y-49221930D01*
X142096554Y-49279104D01*
X142096548Y-49279107D01*
X141896340Y-49372465D01*
X141896338Y-49372466D01*
X141715377Y-49499175D01*
X141559175Y-49655377D01*
X141432466Y-49836338D01*
X141432465Y-49836340D01*
X141339107Y-50036548D01*
X141339104Y-50036554D01*
X141281930Y-50249929D01*
X141281929Y-50249937D01*
X141262677Y-50469997D01*
X140297323Y-50469997D01*
X140297209Y-50468702D01*
X140278070Y-50249937D01*
X140278070Y-50249932D01*
X140220894Y-50036550D01*
X140127534Y-49836339D01*
X140008319Y-49666081D01*
X140000827Y-49655381D01*
X139925261Y-49579815D01*
X139844620Y-49499174D01*
X139844616Y-49499171D01*
X139844615Y-49499170D01*
X139663666Y-49372468D01*
X139663662Y-49372466D01*
X139638768Y-49360858D01*
X139463450Y-49279106D01*
X139463447Y-49279105D01*
X139463445Y-49279104D01*
X139250070Y-49221930D01*
X139250062Y-49221929D01*
X139030002Y-49202677D01*
X139029998Y-49202677D01*
X138809937Y-49221929D01*
X138809929Y-49221930D01*
X138596554Y-49279104D01*
X138596548Y-49279107D01*
X138396340Y-49372465D01*
X138396338Y-49372466D01*
X138215377Y-49499175D01*
X138059175Y-49655377D01*
X137932466Y-49836338D01*
X137932465Y-49836340D01*
X137839107Y-50036548D01*
X137839104Y-50036554D01*
X137781930Y-50249929D01*
X137781929Y-50249937D01*
X137762677Y-50469997D01*
X135911000Y-50469997D01*
X135911000Y-50419840D01*
X135885036Y-50322939D01*
X135834876Y-50236060D01*
X135818816Y-50220000D01*
X136792000Y-50220000D01*
X136792000Y-49660172D01*
X136791999Y-49660155D01*
X136785598Y-49600627D01*
X136785596Y-49600620D01*
X136735354Y-49465913D01*
X136735350Y-49465906D01*
X136649190Y-49350812D01*
X136649187Y-49350809D01*
X136534093Y-49264649D01*
X136534086Y-49264645D01*
X136399379Y-49214403D01*
X136399372Y-49214401D01*
X136339844Y-49208000D01*
X135780000Y-49208000D01*
X135780000Y-50181184D01*
X135763940Y-50165124D01*
X135677061Y-50114964D01*
X135580160Y-50089000D01*
X135479840Y-50089000D01*
X135382939Y-50114964D01*
X135296060Y-50165124D01*
X135280000Y-50181184D01*
X135280000Y-49208000D01*
X134720155Y-49208000D01*
X134660627Y-49214401D01*
X134660620Y-49214403D01*
X134525913Y-49264645D01*
X134525906Y-49264649D01*
X134410812Y-49350809D01*
X134410809Y-49350812D01*
X134324649Y-49465906D01*
X134324645Y-49465913D01*
X134274403Y-49600620D01*
X134274401Y-49600627D01*
X134268000Y-49660155D01*
X126000000Y-49660155D01*
X126000000Y-46124000D01*
X126019685Y-46056961D01*
X126072489Y-46011206D01*
X126124000Y-46000000D01*
X200876000Y-46000000D01*
X200943039Y-46019685D01*
G37*
G04 #@! TD.AperFunction*
M02*
