M48
; DRILL file {KiCad 8.0.5} date 2024-10-27T13:36:49-0400
; FORMAT={-:-/ absolute / metric / decimal}
; #@! TF.CreationDate,2024-10-27T13:36:49-04:00
; #@! TF.GenerationSoftware,Kicad,Pcbnew,8.0.5
; #@! TF.FileFunction,Plated,1,4,PTH
FMAT,2
METRIC
; #@! TA.AperFunction,Plated,PTH,ViaDrill
T1C0.300
; #@! TA.AperFunction,Plated,PTH,ComponentDrill
T2C0.762
; #@! TA.AperFunction,Plated,PTH,ComponentDrill
T3C0.800
; #@! TA.AperFunction,Plated,PTH,ComponentDrill
T4C0.900
; #@! TA.AperFunction,Plated,PTH,ComponentDrill
T5C1.000
; #@! TA.AperFunction,Plated,PTH,ComponentDrill
T6C1.100
%
G90
G05
T1
X142.5Y-74.18
X146.05Y-71.6
X178.223Y-74.05
X178.675Y-79.125
T2
X130.32Y-80.1
X132.86Y-80.1
X135.4Y-80.1
X135.53Y-50.47
X137.94Y-80.1
X139.03Y-50.47
X140.48Y-80.1
X142.53Y-50.47
X146.03Y-50.47
T3
X180.4Y-82.7
X180.4Y-87.7
X180.6Y-59.8
X180.6Y-64.8
X180.7Y-71.0
X180.7Y-76.0
X181.09Y-50.2
X186.1Y-58.59
X186.1Y-66.21
X186.3Y-70.0
X186.3Y-77.62
X186.3Y-81.0
X186.3Y-88.62
X188.71Y-50.2
T4
X195.7Y-50.7
X195.7Y-53.24
T5
X159.45Y-53.86
X159.45Y-56.4
X159.45Y-58.94
X159.45Y-61.48
X159.45Y-64.02
X159.45Y-66.56
X159.45Y-69.1
X159.45Y-71.64
X159.45Y-74.18
X159.45Y-76.72
X159.45Y-79.26
X159.45Y-81.8
X159.45Y-84.34
X159.45Y-86.88
X159.45Y-89.42
X174.69Y-53.86
X174.69Y-56.4
X174.69Y-58.94
X174.69Y-61.48
X174.69Y-64.02
X174.69Y-66.56
X174.69Y-69.1
X174.69Y-71.64
X174.69Y-74.18
X174.69Y-76.72
X174.69Y-79.26
X174.69Y-81.8
X174.69Y-84.34
X174.69Y-86.88
X174.69Y-89.42
T6
X190.65Y-60.15
X190.65Y-64.65
X190.65Y-82.65
X190.65Y-87.15
X190.9Y-71.3
X190.9Y-75.8
X197.15Y-60.15
X197.15Y-64.65
X197.15Y-82.65
X197.15Y-87.15
X197.4Y-71.3
X197.4Y-75.8
M30
